<svg id="visual" viewBox="0 0 900 600" width="900" height="600" xmlns="http://www.w3.org/2000/svg" xmlns:xlink="http://www.w3.org/1999/xlink" version="1.1"><g stroke-width="1" stroke-linejoin="bevel"><path d="M480.9 313L470.9 373L553.7 367Z" fill="#19435d" stroke="#19435d"></path><path d="M553.7 367L559.7 318L480.9 313Z" fill="#15384f" stroke="#15384f"></path><path d="M470.9 373L491.9 445L553.7 367Z" fill="#1d4e6b" stroke="#1d4e6b"></path><path d="M491.9 445L568.7 431L553.7 367Z" fill="#246688" stroke="#246688"></path><path d="M668.5 371L640.5 282L559.7 318Z" fill="#297ea6" stroke="#297ea6"></path><path d="M559.7 318L497.9 230L480.9 313Z" fill="#15384f" stroke="#15384f"></path><path d="M390.1 310L470.9 373L480.9 313Z" fill="#277297" stroke="#277297"></path><path d="M390.1 310L394.1 395L470.9 373Z" fill="#1d4e6b" stroke="#1d4e6b"></path><path d="M470.9 373L420.1 440L491.9 445Z" fill="#205a7a" stroke="#205a7a"></path><path d="M392.1 238L390.1 310L480.9 313Z" fill="#15384f" stroke="#15384f"></path><path d="M394.1 395L420.1 440L470.9 373Z" fill="#205a7a" stroke="#205a7a"></path><path d="M640.5 282L589.7 242L559.7 318Z" fill="#00101c" stroke="#00101c"></path><path d="M559.7 318L589.7 242L497.9 230Z" fill="#205a7a" stroke="#205a7a"></path><path d="M668.5 371L559.7 318L553.7 367Z" fill="#205a7a" stroke="#205a7a"></path><path d="M554.7 517L645.5 432L568.7 431Z" fill="#00101c" stroke="#00101c"></path><path d="M568.7 431L645.5 432L553.7 367Z" fill="#1d4e6b" stroke="#1d4e6b"></path><path d="M645.5 432L668.5 371L553.7 367Z" fill="#112e42" stroke="#112e42"></path><path d="M497.9 230L392.1 238L480.9 313Z" fill="#205a7a" stroke="#205a7a"></path><path d="M474.9 528L554.7 517L491.9 445Z" fill="#246688" stroke="#246688"></path><path d="M491.9 445L554.7 517L568.7 431Z" fill="#081a28" stroke="#081a28"></path><path d="M420.1 440L474.9 528L491.9 445Z" fill="#19435d" stroke="#19435d"></path><path d="M311.3 241L319.3 316L390.1 310Z" fill="#19435d" stroke="#19435d"></path><path d="M390.1 310L314.3 366L394.1 395Z" fill="#19435d" stroke="#19435d"></path><path d="M394.1 395L311.3 460L420.1 440Z" fill="#00101c" stroke="#00101c"></path><path d="M420.1 440L427.1 539L474.9 528Z" fill="#297ea6" stroke="#297ea6"></path><path d="M583.7 162L483.9 154L497.9 230Z" fill="#205a7a" stroke="#205a7a"></path><path d="M497.9 230L413.1 150L392.1 238Z" fill="#112e42" stroke="#112e42"></path><path d="M583.7 162L497.9 230L589.7 242Z" fill="#205a7a" stroke="#205a7a"></path><path d="M319.3 316L314.3 366L390.1 310Z" fill="#081a28" stroke="#081a28"></path><path d="M754.4 280L651.5 206L640.5 282Z" fill="#1d4e6b" stroke="#1d4e6b"></path><path d="M640.5 282L651.5 206L589.7 242Z" fill="#277297" stroke="#277297"></path><path d="M651.5 206L583.7 162L589.7 242Z" fill="#246688" stroke="#246688"></path><path d="M311.3 460L427.1 539L420.1 440Z" fill="#205a7a" stroke="#205a7a"></path><path d="M474.9 528L472.9 600L554.7 517Z" fill="#246688" stroke="#246688"></path><path d="M715.4 443L729.4 356L668.5 371Z" fill="#0c2435" stroke="#0c2435"></path><path d="M668.5 371L729.4 356L640.5 282Z" fill="#112e42" stroke="#112e42"></path><path d="M715.4 443L668.5 371L645.5 432Z" fill="#00101c" stroke="#00101c"></path><path d="M483.9 154L413.1 150L497.9 230Z" fill="#297ea6" stroke="#297ea6"></path><path d="M392.1 238L311.3 241L390.1 310Z" fill="#15384f" stroke="#15384f"></path><path d="M672.5 507L715.4 443L645.5 432Z" fill="#1d4e6b" stroke="#1d4e6b"></path><path d="M554.7 517L672.5 507L645.5 432Z" fill="#00101c" stroke="#00101c"></path><path d="M663.5 600L672.5 507L554.7 517Z" fill="#1d4e6b" stroke="#1d4e6b"></path><path d="M334.3 162L311.3 241L392.1 238Z" fill="#277297" stroke="#277297"></path><path d="M319.3 316L260.5 359L314.3 366Z" fill="#112e42" stroke="#112e42"></path><path d="M260.5 359L311.3 460L314.3 366Z" fill="#15384f" stroke="#15384f"></path><path d="M314.3 366L311.3 460L394.1 395Z" fill="#1d4e6b" stroke="#1d4e6b"></path><path d="M746.4 205L670.5 160L651.5 206Z" fill="#297ea6" stroke="#297ea6"></path><path d="M651.5 206L670.5 160L583.7 162Z" fill="#205a7a" stroke="#205a7a"></path><path d="M583.7 162L580.7 92L483.9 154Z" fill="#0c2435" stroke="#0c2435"></path><path d="M483.9 154L422.1 85L413.1 150Z" fill="#19435d" stroke="#19435d"></path><path d="M239.5 297L260.5 359L319.3 316Z" fill="#081a28" stroke="#081a28"></path><path d="M729.4 356L754.4 280L640.5 282Z" fill="#277297" stroke="#277297"></path><path d="M805.2 307L754.4 280L729.4 356Z" fill="#0c2435" stroke="#0c2435"></path><path d="M399.1 600L472.9 600L427.1 539Z" fill="#19435d" stroke="#19435d"></path><path d="M427.1 539L472.9 600L474.9 528Z" fill="#0c2435" stroke="#0c2435"></path><path d="M413.1 150L334.3 162L392.1 238Z" fill="#205a7a" stroke="#205a7a"></path><path d="M311.3 241L239.5 297L319.3 316Z" fill="#1d4e6b" stroke="#1d4e6b"></path><path d="M472.9 600L569.7 600L554.7 517Z" fill="#19435d" stroke="#19435d"></path><path d="M670.5 160L580.7 92L583.7 162Z" fill="#246688" stroke="#246688"></path><path d="M413.1 150L422.1 85L334.3 162Z" fill="#297ea6" stroke="#297ea6"></path><path d="M308.3 539L399.1 600L427.1 539Z" fill="#19435d" stroke="#19435d"></path><path d="M754.4 280L746.4 205L651.5 206Z" fill="#277297" stroke="#277297"></path><path d="M670.5 160L672.5 63L580.7 92Z" fill="#277297" stroke="#277297"></path><path d="M264.5 217L239.5 297L311.3 241Z" fill="#1d4e6b" stroke="#1d4e6b"></path><path d="M311.3 460L308.3 539L427.1 539Z" fill="#112e42" stroke="#112e42"></path><path d="M252.5 504L308.3 539L311.3 460Z" fill="#112e42" stroke="#112e42"></path><path d="M239.5 454L311.3 460L260.5 359Z" fill="#19435d" stroke="#19435d"></path><path d="M469.9 67L422.1 85L483.9 154Z" fill="#081a28" stroke="#081a28"></path><path d="M334.3 162L264.5 217L311.3 241Z" fill="#15384f" stroke="#15384f"></path><path d="M225.5 148L264.5 217L334.3 162Z" fill="#19435d" stroke="#19435d"></path><path d="M580.7 92L469.9 67L483.9 154Z" fill="#00101c" stroke="#00101c"></path><path d="M672.5 507L748.4 510L715.4 443Z" fill="#112e42" stroke="#112e42"></path><path d="M816.2 374L805.2 307L729.4 356Z" fill="#205a7a" stroke="#205a7a"></path><path d="M725.4 600L748.4 510L672.5 507Z" fill="#081a28" stroke="#081a28"></path><path d="M176.6 383L239.5 454L260.5 359Z" fill="#246688" stroke="#246688"></path><path d="M569.7 600L663.5 600L554.7 517Z" fill="#277297" stroke="#277297"></path><path d="M816.2 374L729.4 356L715.4 443Z" fill="#081a28" stroke="#081a28"></path><path d="M754.4 280L838.2 222L746.4 205Z" fill="#15384f" stroke="#15384f"></path><path d="M239.5 454L252.5 504L311.3 460Z" fill="#19435d" stroke="#19435d"></path><path d="M308.3 539L313.3 600L399.1 600Z" fill="#297ea6" stroke="#297ea6"></path><path d="M814.2 154L734.4 145L746.4 205Z" fill="#277297" stroke="#277297"></path><path d="M746.4 205L734.4 145L670.5 160Z" fill="#19435d" stroke="#19435d"></path><path d="M813.2 463L816.2 374L715.4 443Z" fill="#246688" stroke="#246688"></path><path d="M243.5 600L313.3 600L308.3 539Z" fill="#081a28" stroke="#081a28"></path><path d="M811.2 523L813.2 463L748.4 510Z" fill="#19435d" stroke="#19435d"></path><path d="M748.4 510L813.2 463L715.4 443Z" fill="#081a28" stroke="#081a28"></path><path d="M729.4 82L672.5 63L670.5 160Z" fill="#19435d" stroke="#19435d"></path><path d="M580.7 92L508.9 0L469.9 67Z" fill="#19435d" stroke="#19435d"></path><path d="M663.5 600L725.4 600L672.5 507Z" fill="#205a7a" stroke="#205a7a"></path><path d="M314.3 0L308.3 86L422.1 85Z" fill="#15384f" stroke="#15384f"></path><path d="M422.1 85L308.3 86L334.3 162Z" fill="#0c2435" stroke="#0c2435"></path><path d="M239.5 297L176.6 383L260.5 359Z" fill="#0c2435" stroke="#0c2435"></path><path d="M239.5 454L171.6 450L252.5 504Z" fill="#0c2435" stroke="#0c2435"></path><path d="M142.6 306L176.6 383L239.5 297Z" fill="#0c2435" stroke="#0c2435"></path><path d="M169.6 213L239.5 297L264.5 217Z" fill="#1d4e6b" stroke="#1d4e6b"></path><path d="M734.4 145L729.4 82L670.5 160Z" fill="#0c2435" stroke="#0c2435"></path><path d="M811.2 64L729.4 82L734.4 145Z" fill="#00101c" stroke="#00101c"></path><path d="M725.4 600L811.2 523L748.4 510Z" fill="#19435d" stroke="#19435d"></path><path d="M900 310L805.2 307L816.2 374Z" fill="#297ea6" stroke="#297ea6"></path><path d="M583.7 0L508.9 0L580.7 92Z" fill="#277297" stroke="#277297"></path><path d="M469.9 67L426.1 0L422.1 85Z" fill="#277297" stroke="#277297"></path><path d="M583.7 0L580.7 92L636.5 0Z" fill="#1d4e6b" stroke="#1d4e6b"></path><path d="M308.3 86L225.5 148L334.3 162Z" fill="#081a28" stroke="#081a28"></path><path d="M900 310L838.2 222L805.2 307Z" fill="#081a28" stroke="#081a28"></path><path d="M805.2 307L838.2 222L754.4 280Z" fill="#081a28" stroke="#081a28"></path><path d="M900 310L816.2 374L900 390Z" fill="#15384f" stroke="#15384f"></path><path d="M176.6 383L171.6 450L239.5 454Z" fill="#297ea6" stroke="#297ea6"></path><path d="M252.5 504L243.5 600L308.3 539Z" fill="#00101c" stroke="#00101c"></path><path d="M636.5 0L580.7 92L672.5 63Z" fill="#246688" stroke="#246688"></path><path d="M508.9 0L426.1 0L469.9 67Z" fill="#297ea6" stroke="#297ea6"></path><path d="M838.2 222L814.2 154L746.4 205Z" fill="#246688" stroke="#246688"></path><path d="M172.6 531L243.5 600L252.5 504Z" fill="#205a7a" stroke="#205a7a"></path><path d="M225.5 148L169.6 213L264.5 217Z" fill="#0c2435" stroke="#0c2435"></path><path d="M176.6 383L79.8 435L171.6 450Z" fill="#15384f" stroke="#15384f"></path><path d="M169.6 213L142.6 306L239.5 297Z" fill="#297ea6" stroke="#297ea6"></path><path d="M735.4 0L672.5 63L729.4 82Z" fill="#00101c" stroke="#00101c"></path><path d="M735.4 0L636.5 0L672.5 63Z" fill="#19435d" stroke="#19435d"></path><path d="M308.3 86L246.5 86L225.5 148Z" fill="#15384f" stroke="#15384f"></path><path d="M225.5 148L170.6 159L169.6 213Z" fill="#205a7a" stroke="#205a7a"></path><path d="M261.5 0L246.5 86L308.3 86Z" fill="#15384f" stroke="#15384f"></path><path d="M96.8 526L172.6 531L171.6 450Z" fill="#19435d" stroke="#19435d"></path><path d="M171.6 450L172.6 531L252.5 504Z" fill="#112e42" stroke="#112e42"></path><path d="M169.6 213L88.8 282L142.6 306Z" fill="#00101c" stroke="#00101c"></path><path d="M177.6 90L170.6 159L225.5 148Z" fill="#0c2435" stroke="#0c2435"></path><path d="M900 390L816.2 374L900 437Z" fill="#1d4e6b" stroke="#1d4e6b"></path><path d="M838.2 222L900 209L814.2 154Z" fill="#246688" stroke="#246688"></path><path d="M900 437L816.2 374L813.2 463Z" fill="#19435d" stroke="#19435d"></path><path d="M900 530L900 437L813.2 463Z" fill="#15384f" stroke="#15384f"></path><path d="M426.1 0L314.3 0L422.1 85Z" fill="#1d4e6b" stroke="#1d4e6b"></path><path d="M246.5 86L177.6 90L225.5 148Z" fill="#081a28" stroke="#081a28"></path><path d="M725.4 600L832.2 600L811.2 523Z" fill="#15384f" stroke="#15384f"></path><path d="M811.2 523L900 530L813.2 463Z" fill="#00101c" stroke="#00101c"></path><path d="M900 310L900 209L838.2 222Z" fill="#112e42" stroke="#112e42"></path><path d="M814.2 154L811.2 64L734.4 145Z" fill="#205a7a" stroke="#205a7a"></path><path d="M900 140L811.2 64L814.2 154Z" fill="#19435d" stroke="#19435d"></path><path d="M811.2 64L735.4 0L729.4 82Z" fill="#205a7a" stroke="#205a7a"></path><path d="M261.5 0L177.6 90L246.5 86Z" fill="#00101c" stroke="#00101c"></path><path d="M72.8 240L88.8 282L169.6 213Z" fill="#246688" stroke="#246688"></path><path d="M72.8 240L169.6 213L91.8 166Z" fill="#15384f" stroke="#15384f"></path><path d="M69.8 371L79.8 435L176.6 383Z" fill="#19435d" stroke="#19435d"></path><path d="M314.3 0L261.5 0L308.3 86Z" fill="#0c2435" stroke="#0c2435"></path><path d="M172.6 531L162.6 600L243.5 600Z" fill="#081a28" stroke="#081a28"></path><path d="M96.8 526L162.6 600L172.6 531Z" fill="#0c2435" stroke="#0c2435"></path><path d="M832.2 600L900 530L811.2 523Z" fill="#19435d" stroke="#19435d"></path><path d="M69.8 371L176.6 383L142.6 306Z" fill="#1d4e6b" stroke="#1d4e6b"></path><path d="M88.8 282L69.8 371L142.6 306Z" fill="#246688" stroke="#246688"></path><path d="M900 209L900 140L814.2 154Z" fill="#081a28" stroke="#081a28"></path><path d="M79.8 435L96.8 526L171.6 450Z" fill="#277297" stroke="#277297"></path><path d="M91.8 166L169.6 213L170.6 159Z" fill="#081a28" stroke="#081a28"></path><path d="M0 289L0 357L69.8 371Z" fill="#081a28" stroke="#081a28"></path><path d="M87.8 85L91.8 166L170.6 159Z" fill="#15384f" stroke="#15384f"></path><path d="M87.8 85L170.6 159L177.6 90Z" fill="#297ea6" stroke="#297ea6"></path><path d="M832.2 600L900 600L900 530Z" fill="#1d4e6b" stroke="#1d4e6b"></path><path d="M900 61L821.2 0L811.2 64Z" fill="#00101c" stroke="#00101c"></path><path d="M811.2 64L821.2 0L735.4 0Z" fill="#112e42" stroke="#112e42"></path><path d="M900 140L900 61L811.2 64Z" fill="#1d4e6b" stroke="#1d4e6b"></path><path d="M146.6 0L87.8 85L177.6 90Z" fill="#112e42" stroke="#112e42"></path><path d="M0 243L0 289L72.8 240Z" fill="#15384f" stroke="#15384f"></path><path d="M96.8 526L76.8 600L162.6 600Z" fill="#00101c" stroke="#00101c"></path><path d="M0 517L76.8 600L96.8 526Z" fill="#1d4e6b" stroke="#1d4e6b"></path><path d="M0 463L96.8 526L79.8 435Z" fill="#0c2435" stroke="#0c2435"></path><path d="M261.5 0L146.6 0L177.6 90Z" fill="#112e42" stroke="#112e42"></path><path d="M0 289L69.8 371L88.8 282Z" fill="#205a7a" stroke="#205a7a"></path><path d="M69.8 371L0 463L79.8 435Z" fill="#081a28" stroke="#081a28"></path><path d="M0 289L88.8 282L72.8 240Z" fill="#112e42" stroke="#112e42"></path><path d="M0 243L72.8 240L0 157Z" fill="#081a28" stroke="#081a28"></path><path d="M0 157L72.8 240L91.8 166Z" fill="#0c2435" stroke="#0c2435"></path><path d="M900 61L900 0L821.2 0Z" fill="#297ea6" stroke="#297ea6"></path><path d="M0 357L0 463L69.8 371Z" fill="#081a28" stroke="#081a28"></path><path d="M0 463L0 517L96.8 526Z" fill="#1d4e6b" stroke="#1d4e6b"></path><path d="M87.8 85L0 157L91.8 166Z" fill="#081a28" stroke="#081a28"></path><path d="M0 80L0 157L87.8 85Z" fill="#277297" stroke="#277297"></path><path d="M146.6 0L74.8 0L87.8 85Z" fill="#0c2435" stroke="#0c2435"></path><path d="M0 517L0 600L76.8 600Z" fill="#081a28" stroke="#081a28"></path><path d="M74.8 0L0 80L87.8 85Z" fill="#246688" stroke="#246688"></path><path d="M74.8 0L0 0L0 80Z" fill="#205a7a" stroke="#205a7a"></path></g></svg>