<svg id="visual" viewBox="0 0 900 600" width="900" height="600" xmlns="http://www.w3.org/2000/svg" xmlns:xlink="http://www.w3.org/1999/xlink" version="1.1"><g stroke-width="1" stroke-linejoin="bevel"><path d="M401.1 305L398.1 355L475.9 368Z" fill="#9f4236" stroke="#9f4236"></path><path d="M475.9 368L507.9 290L401.1 305Z" fill="#2d2341" stroke="#2d2341"></path><path d="M507.9 290L502.9 240L401.1 305Z" fill="#00101c" stroke="#00101c"></path><path d="M502.9 240L404.1 224L401.1 305Z" fill="#923740" stroke="#923740"></path><path d="M312.3 290L318.3 390L398.1 355Z" fill="#00101c" stroke="#00101c"></path><path d="M559.7 359L560.7 320L507.9 290Z" fill="#00101c" stroke="#00101c"></path><path d="M507.9 290L573.7 223L502.9 240Z" fill="#0c182a" stroke="#0c182a"></path><path d="M475.9 368L559.7 359L507.9 290Z" fill="#a65129" stroke="#a65129"></path><path d="M398.1 355L398.1 461L475.9 368Z" fill="#923740" stroke="#923740"></path><path d="M475.9 368L558.7 454L559.7 359Z" fill="#822f48" stroke="#822f48"></path><path d="M312.3 290L398.1 355L401.1 305Z" fill="#422749" stroke="#422749"></path><path d="M398.1 355L318.3 390L398.1 461Z" fill="#00101c" stroke="#00101c"></path><path d="M341.3 227L312.3 290L401.1 305Z" fill="#923740" stroke="#923740"></path><path d="M404.1 224L341.3 227L401.1 305Z" fill="#9f4236" stroke="#9f4236"></path><path d="M398.1 461L509.9 465L475.9 368Z" fill="#923740" stroke="#923740"></path><path d="M318.3 390L321.3 434L398.1 461Z" fill="#2d2341" stroke="#2d2341"></path><path d="M573.7 223L474.9 169L502.9 240Z" fill="#822f48" stroke="#822f48"></path><path d="M502.9 240L474.9 169L404.1 224Z" fill="#2d2341" stroke="#2d2341"></path><path d="M404.1 224L396.1 170L341.3 227Z" fill="#6e2b4d" stroke="#6e2b4d"></path><path d="M509.9 465L558.7 454L475.9 368Z" fill="#9f4236" stroke="#9f4236"></path><path d="M645.5 295L573.7 223L560.7 320Z" fill="#422749" stroke="#422749"></path><path d="M474.9 169L396.1 170L404.1 224Z" fill="#1a1e37" stroke="#1a1e37"></path><path d="M645.5 295L560.7 320L559.7 359Z" fill="#923740" stroke="#923740"></path><path d="M560.7 320L573.7 223L507.9 290Z" fill="#9f4236" stroke="#9f4236"></path><path d="M674.5 357L645.5 295L559.7 359Z" fill="#2d2341" stroke="#2d2341"></path><path d="M341.3 227L254.5 242L312.3 290Z" fill="#a65129" stroke="#a65129"></path><path d="M312.3 290L228.5 308L318.3 390Z" fill="#9f4236" stroke="#9f4236"></path><path d="M318.3 390L259.5 465L321.3 434Z" fill="#a65129" stroke="#a65129"></path><path d="M306.3 140L254.5 242L341.3 227Z" fill="#0c182a" stroke="#0c182a"></path><path d="M315.3 518L422.1 540L398.1 461Z" fill="#9f4236" stroke="#9f4236"></path><path d="M398.1 461L422.1 540L509.9 465Z" fill="#6e2b4d" stroke="#6e2b4d"></path><path d="M509.9 465L565.7 518L558.7 454Z" fill="#58294d" stroke="#58294d"></path><path d="M254.5 242L228.5 308L312.3 290Z" fill="#422749" stroke="#422749"></path><path d="M422.1 540L491.9 544L509.9 465Z" fill="#6e2b4d" stroke="#6e2b4d"></path><path d="M228.5 308L226.5 386L318.3 390Z" fill="#1a1e37" stroke="#1a1e37"></path><path d="M321.3 434L315.3 518L398.1 461Z" fill="#1a1e37" stroke="#1a1e37"></path><path d="M491.9 544L565.7 518L509.9 465Z" fill="#00101c" stroke="#00101c"></path><path d="M673.5 457L674.5 357L559.7 359Z" fill="#2d2341" stroke="#2d2341"></path><path d="M259.5 465L315.3 518L321.3 434Z" fill="#a65129" stroke="#a65129"></path><path d="M226.5 386L259.5 465L318.3 390Z" fill="#0c182a" stroke="#0c182a"></path><path d="M573.7 223L572.7 144L474.9 169Z" fill="#00101c" stroke="#00101c"></path><path d="M389.1 82L306.3 140L396.1 170Z" fill="#923740" stroke="#923740"></path><path d="M657.5 159L572.7 144L573.7 223Z" fill="#00101c" stroke="#00101c"></path><path d="M673.5 457L559.7 359L558.7 454Z" fill="#9f4236" stroke="#9f4236"></path><path d="M389.1 82L396.1 170L474.9 169Z" fill="#822f48" stroke="#822f48"></path><path d="M396.1 170L306.3 140L341.3 227Z" fill="#00101c" stroke="#00101c"></path><path d="M508.9 54L389.1 82L474.9 169Z" fill="#9f4236" stroke="#9f4236"></path><path d="M254.5 78L263.5 144L306.3 140Z" fill="#6e2b4d" stroke="#6e2b4d"></path><path d="M306.3 140L263.5 144L254.5 242Z" fill="#9f4236" stroke="#9f4236"></path><path d="M254.5 242L172.6 231L228.5 308Z" fill="#6e2b4d" stroke="#6e2b4d"></path><path d="M744.4 285L669.5 206L645.5 295Z" fill="#2d2341" stroke="#2d2341"></path><path d="M645.5 295L669.5 206L573.7 223Z" fill="#58294d" stroke="#58294d"></path><path d="M671.5 507L673.5 457L558.7 454Z" fill="#a65129" stroke="#a65129"></path><path d="M228.5 308L183.6 386L226.5 386Z" fill="#58294d" stroke="#58294d"></path><path d="M226.5 386L153.6 441L259.5 465Z" fill="#6e2b4d" stroke="#6e2b4d"></path><path d="M144.6 303L183.6 386L228.5 308Z" fill="#6e2b4d" stroke="#6e2b4d"></path><path d="M325.3 600L422.1 600L422.1 540Z" fill="#6e2b4d" stroke="#6e2b4d"></path><path d="M422.1 540L474.9 600L491.9 544Z" fill="#9f4236" stroke="#9f4236"></path><path d="M491.9 544L579.7 600L565.7 518Z" fill="#2d2341" stroke="#2d2341"></path><path d="M565.7 518L671.5 507L558.7 454Z" fill="#2d2341" stroke="#2d2341"></path><path d="M422.1 600L474.9 600L422.1 540Z" fill="#9f4236" stroke="#9f4236"></path><path d="M669.5 206L657.5 159L573.7 223Z" fill="#2d2341" stroke="#2d2341"></path><path d="M572.7 144L508.9 54L474.9 169Z" fill="#2d2341" stroke="#2d2341"></path><path d="M259.5 465L232.5 524L315.3 518Z" fill="#822f48" stroke="#822f48"></path><path d="M315.3 518L325.3 600L422.1 540Z" fill="#1a1e37" stroke="#1a1e37"></path><path d="M153.6 441L232.5 524L259.5 465Z" fill="#58294d" stroke="#58294d"></path><path d="M389.1 82L322.3 75L306.3 140Z" fill="#923740" stroke="#923740"></path><path d="M556.7 70L508.9 54L572.7 144Z" fill="#58294d" stroke="#58294d"></path><path d="M389.1 82L397.1 0L322.3 75Z" fill="#822f48" stroke="#822f48"></path><path d="M644.5 89L556.7 70L572.7 144Z" fill="#6e2b4d" stroke="#6e2b4d"></path><path d="M167.6 149L172.6 231L263.5 144Z" fill="#9f4236" stroke="#9f4236"></path><path d="M263.5 144L172.6 231L254.5 242Z" fill="#923740" stroke="#923740"></path><path d="M655.5 600L671.5 507L565.7 518Z" fill="#822f48" stroke="#822f48"></path><path d="M261.5 600L325.3 600L315.3 518Z" fill="#822f48" stroke="#822f48"></path><path d="M172.6 231L144.6 303L228.5 308Z" fill="#6e2b4d" stroke="#6e2b4d"></path><path d="M183.6 386L153.6 441L226.5 386Z" fill="#00101c" stroke="#00101c"></path><path d="M717.4 529L722.4 438L673.5 457Z" fill="#58294d" stroke="#58294d"></path><path d="M673.5 457L722.4 438L674.5 357Z" fill="#0c182a" stroke="#0c182a"></path><path d="M674.5 357L744.4 285L645.5 295Z" fill="#422749" stroke="#422749"></path><path d="M474.9 600L579.7 600L491.9 544Z" fill="#a65129" stroke="#a65129"></path><path d="M752.4 381L744.4 285L674.5 357Z" fill="#58294d" stroke="#58294d"></path><path d="M669.5 206L724.4 210L657.5 159Z" fill="#a65129" stroke="#a65129"></path><path d="M66.8 372L153.6 441L183.6 386Z" fill="#1a1e37" stroke="#1a1e37"></path><path d="M744.4 285L724.4 210L669.5 206Z" fill="#a65129" stroke="#a65129"></path><path d="M657.5 159L644.5 89L572.7 144Z" fill="#58294d" stroke="#58294d"></path><path d="M722.4 438L752.4 381L674.5 357Z" fill="#2d2341" stroke="#2d2341"></path><path d="M257.5 0L254.5 78L322.3 75Z" fill="#923740" stroke="#923740"></path><path d="M322.3 75L254.5 78L306.3 140Z" fill="#6e2b4d" stroke="#6e2b4d"></path><path d="M556.7 70L510.9 0L508.9 54Z" fill="#422749" stroke="#422749"></path><path d="M724.4 88L644.5 89L657.5 159Z" fill="#00101c" stroke="#00101c"></path><path d="M179.6 600L261.5 600L232.5 524Z" fill="#1a1e37" stroke="#1a1e37"></path><path d="M232.5 524L261.5 600L315.3 518Z" fill="#1a1e37" stroke="#1a1e37"></path><path d="M254.5 78L167.6 149L263.5 144Z" fill="#58294d" stroke="#58294d"></path><path d="M61.8 237L61.8 290L144.6 303Z" fill="#0c182a" stroke="#0c182a"></path><path d="M510.9 0L397.1 0L508.9 54Z" fill="#923740" stroke="#923740"></path><path d="M508.9 54L397.1 0L389.1 82Z" fill="#58294d" stroke="#58294d"></path><path d="M153.6 441L162.6 521L232.5 524Z" fill="#0c182a" stroke="#0c182a"></path><path d="M671.5 507L717.4 529L673.5 457Z" fill="#923740" stroke="#923740"></path><path d="M812.2 433L800.2 360L752.4 381Z" fill="#2d2341" stroke="#2d2341"></path><path d="M655.5 600L717.4 529L671.5 507Z" fill="#9f4236" stroke="#9f4236"></path><path d="M579.7 0L510.9 0L556.7 70Z" fill="#9f4236" stroke="#9f4236"></path><path d="M579.7 600L655.5 600L565.7 518Z" fill="#2d2341" stroke="#2d2341"></path><path d="M397.1 0L317.3 0L322.3 75Z" fill="#6e2b4d" stroke="#6e2b4d"></path><path d="M254.5 78L162.6 58L167.6 149Z" fill="#2d2341" stroke="#2d2341"></path><path d="M824.2 240L745.4 147L724.4 210Z" fill="#a65129" stroke="#a65129"></path><path d="M724.4 210L745.4 147L657.5 159Z" fill="#2d2341" stroke="#2d2341"></path><path d="M644.5 89L579.7 0L556.7 70Z" fill="#2d2341" stroke="#2d2341"></path><path d="M824.2 240L724.4 210L744.4 285Z" fill="#a65129" stroke="#a65129"></path><path d="M812.2 433L752.4 381L722.4 438Z" fill="#1a1e37" stroke="#1a1e37"></path><path d="M752.4 381L800.2 360L744.4 285Z" fill="#0c182a" stroke="#0c182a"></path><path d="M673.5 0L579.7 0L644.5 89Z" fill="#6e2b4d" stroke="#6e2b4d"></path><path d="M66.8 372L101.8 463L153.6 441Z" fill="#2d2341" stroke="#2d2341"></path><path d="M153.6 441L101.8 463L162.6 521Z" fill="#822f48" stroke="#822f48"></path><path d="M66.8 372L183.6 386L144.6 303Z" fill="#6e2b4d" stroke="#6e2b4d"></path><path d="M745.4 147L724.4 88L657.5 159Z" fill="#58294d" stroke="#58294d"></path><path d="M86.8 600L179.6 600L162.6 521Z" fill="#a65129" stroke="#a65129"></path><path d="M162.6 521L179.6 600L232.5 524Z" fill="#422749" stroke="#422749"></path><path d="M61.8 290L66.8 372L144.6 303Z" fill="#422749" stroke="#422749"></path><path d="M317.3 0L257.5 0L322.3 75Z" fill="#0c182a" stroke="#0c182a"></path><path d="M61.8 237L172.6 231L84.8 147Z" fill="#822f48" stroke="#822f48"></path><path d="M61.8 237L144.6 303L172.6 231Z" fill="#9f4236" stroke="#9f4236"></path><path d="M828.2 534L812.2 433L717.4 529Z" fill="#923740" stroke="#923740"></path><path d="M717.4 529L812.2 433L722.4 438Z" fill="#2d2341" stroke="#2d2341"></path><path d="M900 370L830.2 297L800.2 360Z" fill="#9f4236" stroke="#9f4236"></path><path d="M800.2 360L830.2 297L744.4 285Z" fill="#0c182a" stroke="#0c182a"></path><path d="M745.4 147L816.2 55L724.4 88Z" fill="#6e2b4d" stroke="#6e2b4d"></path><path d="M257.5 0L162.6 58L254.5 78Z" fill="#822f48" stroke="#822f48"></path><path d="M84.8 147L172.6 231L167.6 149Z" fill="#822f48" stroke="#822f48"></path><path d="M830.2 297L824.2 240L744.4 285Z" fill="#58294d" stroke="#58294d"></path><path d="M162.6 58L84.8 147L167.6 149Z" fill="#6e2b4d" stroke="#6e2b4d"></path><path d="M724.4 88L673.5 0L644.5 89Z" fill="#2d2341" stroke="#2d2341"></path><path d="M746.4 0L673.5 0L724.4 88Z" fill="#58294d" stroke="#58294d"></path><path d="M655.5 600L746.4 600L717.4 529Z" fill="#1a1e37" stroke="#1a1e37"></path><path d="M0 455L79.8 539L101.8 463Z" fill="#9f4236" stroke="#9f4236"></path><path d="M101.8 463L79.8 539L162.6 521Z" fill="#2d2341" stroke="#2d2341"></path><path d="M900 214L835.2 160L824.2 240Z" fill="#822f48" stroke="#822f48"></path><path d="M824.2 240L835.2 160L745.4 147Z" fill="#58294d" stroke="#58294d"></path><path d="M746.4 600L828.2 534L717.4 529Z" fill="#6e2b4d" stroke="#6e2b4d"></path><path d="M812.2 433L900 370L800.2 360Z" fill="#822f48" stroke="#822f48"></path><path d="M830.2 297L900 285L824.2 240Z" fill="#58294d" stroke="#58294d"></path><path d="M0 218L61.8 290L61.8 237Z" fill="#6e2b4d" stroke="#6e2b4d"></path><path d="M0 218L0 310L61.8 290Z" fill="#a65129" stroke="#a65129"></path><path d="M61.8 290L0 310L66.8 372Z" fill="#0c182a" stroke="#0c182a"></path><path d="M66.8 372L0 455L101.8 463Z" fill="#58294d" stroke="#58294d"></path><path d="M257.5 0L148.6 0L162.6 58Z" fill="#6e2b4d" stroke="#6e2b4d"></path><path d="M162.6 58L60.8 69L84.8 147Z" fill="#00101c" stroke="#00101c"></path><path d="M84.8 147L0 218L61.8 237Z" fill="#6e2b4d" stroke="#6e2b4d"></path><path d="M79.8 539L86.8 600L162.6 521Z" fill="#422749" stroke="#422749"></path><path d="M0 600L86.8 600L79.8 539Z" fill="#2d2341" stroke="#2d2341"></path><path d="M0 310L0 382L66.8 372Z" fill="#822f48" stroke="#822f48"></path><path d="M816.2 55L746.4 0L724.4 88Z" fill="#00101c" stroke="#00101c"></path><path d="M0 137L0 218L84.8 147Z" fill="#0c182a" stroke="#0c182a"></path><path d="M0 382L0 455L66.8 372Z" fill="#2d2341" stroke="#2d2341"></path><path d="M900 467L900 370L812.2 433Z" fill="#9f4236" stroke="#9f4236"></path><path d="M900 370L900 285L830.2 297Z" fill="#58294d" stroke="#58294d"></path><path d="M78.8 0L60.8 69L162.6 58Z" fill="#a65129" stroke="#a65129"></path><path d="M900 94L816.2 55L835.2 160Z" fill="#58294d" stroke="#58294d"></path><path d="M835.2 160L816.2 55L745.4 147Z" fill="#0c182a" stroke="#0c182a"></path><path d="M746.4 600L826.2 600L828.2 534Z" fill="#58294d" stroke="#58294d"></path><path d="M828.2 534L900 467L812.2 433Z" fill="#a65129" stroke="#a65129"></path><path d="M900 285L900 214L824.2 240Z" fill="#a65129" stroke="#a65129"></path><path d="M900 515L900 467L828.2 534Z" fill="#822f48" stroke="#822f48"></path><path d="M60.8 69L0 137L84.8 147Z" fill="#00101c" stroke="#00101c"></path><path d="M0 455L0 536L79.8 539Z" fill="#9f4236" stroke="#9f4236"></path><path d="M900 214L900 167L835.2 160Z" fill="#00101c" stroke="#00101c"></path><path d="M148.6 0L78.8 0L162.6 58Z" fill="#0c182a" stroke="#0c182a"></path><path d="M60.8 69L0 73L0 137Z" fill="#00101c" stroke="#00101c"></path><path d="M900 600L900 515L828.2 534Z" fill="#58294d" stroke="#58294d"></path><path d="M900 0L826.2 0L816.2 55Z" fill="#422749" stroke="#422749"></path><path d="M816.2 55L826.2 0L746.4 0Z" fill="#00101c" stroke="#00101c"></path><path d="M0 0L0 73L60.8 69Z" fill="#00101c" stroke="#00101c"></path><path d="M0 536L0 600L79.8 539Z" fill="#1a1e37" stroke="#1a1e37"></path><path d="M900 167L900 94L835.2 160Z" fill="#6e2b4d" stroke="#6e2b4d"></path><path d="M826.2 600L900 600L828.2 534Z" fill="#a65129" stroke="#a65129"></path><path d="M78.8 0L0 0L60.8 69Z" fill="#a65129" stroke="#a65129"></path><path d="M900 94L900 0L816.2 55Z" fill="#422749" stroke="#422749"></path></g></svg>