<svg id="visual" viewBox="0 0 900 600" width="900" height="600" xmlns="http://www.w3.org/2000/svg" xmlns:xlink="http://www.w3.org/1999/xlink" version="1.1"><g stroke-width="1" stroke-linejoin="bevel"><path d="M420.1 280L505.9 219L409.1 220Z" fill="#15384f" stroke="#15384f"></path><path d="M420.1 280L506.9 313L505.9 219Z" fill="#1d4e6b" stroke="#1d4e6b"></path><path d="M506.9 313L552.7 298L505.9 219Z" fill="#246688" stroke="#246688"></path><path d="M563.7 141L478.9 131L505.9 219Z" fill="#15384f" stroke="#15384f"></path><path d="M505.9 219L478.9 131L409.1 220Z" fill="#297ea6" stroke="#297ea6"></path><path d="M478.9 131L388.1 144L409.1 220Z" fill="#19435d" stroke="#19435d"></path><path d="M409.1 220L323.3 234L420.1 280Z" fill="#0c2435" stroke="#0c2435"></path><path d="M388.1 144L323.3 234L409.1 220Z" fill="#246688" stroke="#246688"></path><path d="M552.7 298L592.7 237L505.9 219Z" fill="#297ea6" stroke="#297ea6"></path><path d="M323.3 234L340.3 317L420.1 280Z" fill="#00101c" stroke="#00101c"></path><path d="M420.1 280L396.1 382L506.9 313Z" fill="#112e42" stroke="#112e42"></path><path d="M592.7 237L563.7 141L505.9 219Z" fill="#15384f" stroke="#15384f"></path><path d="M340.3 317L396.1 382L420.1 280Z" fill="#1d4e6b" stroke="#1d4e6b"></path><path d="M506.9 313L570.7 393L552.7 298Z" fill="#246688" stroke="#246688"></path><path d="M396.1 382L505.9 389L506.9 313Z" fill="#19435d" stroke="#19435d"></path><path d="M645.5 295L650.5 245L592.7 237Z" fill="#19435d" stroke="#19435d"></path><path d="M503.9 68L414.1 84L478.9 131Z" fill="#00101c" stroke="#00101c"></path><path d="M478.9 131L414.1 84L388.1 144Z" fill="#081a28" stroke="#081a28"></path><path d="M388.1 144L315.3 144L323.3 234Z" fill="#081a28" stroke="#081a28"></path><path d="M340.3 69L315.3 144L388.1 144Z" fill="#277297" stroke="#277297"></path><path d="M563.7 141L503.9 68L478.9 131Z" fill="#112e42" stroke="#112e42"></path><path d="M340.3 317L330.3 379L396.1 382Z" fill="#297ea6" stroke="#297ea6"></path><path d="M422.1 461L499.9 445L505.9 389Z" fill="#15384f" stroke="#15384f"></path><path d="M263.5 286L330.3 379L340.3 317Z" fill="#297ea6" stroke="#297ea6"></path><path d="M263.5 286L340.3 317L323.3 234Z" fill="#112e42" stroke="#112e42"></path><path d="M499.9 445L570.7 393L505.9 389Z" fill="#00101c" stroke="#00101c"></path><path d="M505.9 389L570.7 393L506.9 313Z" fill="#00101c" stroke="#00101c"></path><path d="M645.5 295L592.7 237L552.7 298Z" fill="#277297" stroke="#277297"></path><path d="M592.7 237L652.5 156L563.7 141Z" fill="#112e42" stroke="#112e42"></path><path d="M563.7 141L574.7 88L503.9 68Z" fill="#246688" stroke="#246688"></path><path d="M652.5 156L574.7 88L563.7 141Z" fill="#246688" stroke="#246688"></path><path d="M570.7 393L645.5 295L552.7 298Z" fill="#15384f" stroke="#15384f"></path><path d="M226.5 223L263.5 286L323.3 234Z" fill="#277297" stroke="#277297"></path><path d="M422.1 461L505.9 389L396.1 382Z" fill="#246688" stroke="#246688"></path><path d="M414.1 84L340.3 69L388.1 144Z" fill="#081a28" stroke="#081a28"></path><path d="M226.5 169L226.5 223L323.3 234Z" fill="#1d4e6b" stroke="#1d4e6b"></path><path d="M392.1 0L340.3 69L414.1 84Z" fill="#297ea6" stroke="#297ea6"></path><path d="M650.5 245L652.5 156L592.7 237Z" fill="#277297" stroke="#277297"></path><path d="M321.3 441L422.1 461L396.1 382Z" fill="#205a7a" stroke="#205a7a"></path><path d="M652.5 432L589.7 429L657.5 517Z" fill="#00101c" stroke="#00101c"></path><path d="M499.9 445L589.7 429L570.7 393Z" fill="#297ea6" stroke="#297ea6"></path><path d="M570.7 393L656.5 382L645.5 295Z" fill="#19435d" stroke="#19435d"></path><path d="M226.5 169L323.3 234L315.3 144Z" fill="#112e42" stroke="#112e42"></path><path d="M238.5 437L321.3 441L330.3 379Z" fill="#00101c" stroke="#00101c"></path><path d="M330.3 379L321.3 441L396.1 382Z" fill="#297ea6" stroke="#297ea6"></path><path d="M228.5 380L330.3 379L263.5 286Z" fill="#1d4e6b" stroke="#1d4e6b"></path><path d="M232.5 84L226.5 169L315.3 144Z" fill="#297ea6" stroke="#297ea6"></path><path d="M589.7 429L656.5 382L570.7 393Z" fill="#081a28" stroke="#081a28"></path><path d="M719.4 307L726.4 230L650.5 245Z" fill="#0c2435" stroke="#0c2435"></path><path d="M724.4 145L663.5 89L652.5 156Z" fill="#1d4e6b" stroke="#1d4e6b"></path><path d="M559.7 0L499.9 0L503.9 68Z" fill="#246688" stroke="#246688"></path><path d="M503.9 68L499.9 0L414.1 84Z" fill="#112e42" stroke="#112e42"></path><path d="M559.7 0L503.9 68L574.7 88Z" fill="#246688" stroke="#246688"></path><path d="M499.9 0L392.1 0L414.1 84Z" fill="#112e42" stroke="#112e42"></path><path d="M340.3 69L232.5 84L315.3 144Z" fill="#081a28" stroke="#081a28"></path><path d="M726.4 230L652.5 156L650.5 245Z" fill="#0c2435" stroke="#0c2435"></path><path d="M652.5 156L663.5 89L574.7 88Z" fill="#297ea6" stroke="#297ea6"></path><path d="M642.5 0L559.7 0L574.7 88Z" fill="#1d4e6b" stroke="#1d4e6b"></path><path d="M392.1 0L344.3 0L340.3 69Z" fill="#19435d" stroke="#19435d"></path><path d="M154.6 290L228.5 380L263.5 286Z" fill="#205a7a" stroke="#205a7a"></path><path d="M719.4 307L650.5 245L645.5 295Z" fill="#246688" stroke="#246688"></path><path d="M656.5 382L719.4 307L645.5 295Z" fill="#112e42" stroke="#112e42"></path><path d="M589.7 429L652.5 432L656.5 382Z" fill="#297ea6" stroke="#297ea6"></path><path d="M656.5 382L755.4 364L719.4 307Z" fill="#277297" stroke="#277297"></path><path d="M554.7 537L589.7 429L499.9 445Z" fill="#205a7a" stroke="#205a7a"></path><path d="M244.5 0L232.5 84L340.3 69Z" fill="#0c2435" stroke="#0c2435"></path><path d="M726.4 230L724.4 145L652.5 156Z" fill="#297ea6" stroke="#297ea6"></path><path d="M408.1 532L477.9 533L422.1 461Z" fill="#277297" stroke="#277297"></path><path d="M422.1 461L477.9 533L499.9 445Z" fill="#297ea6" stroke="#297ea6"></path><path d="M228.5 380L238.5 437L330.3 379Z" fill="#19435d" stroke="#19435d"></path><path d="M341.3 523L408.1 532L422.1 461Z" fill="#246688" stroke="#246688"></path><path d="M341.3 523L422.1 461L321.3 441Z" fill="#205a7a" stroke="#205a7a"></path><path d="M226.5 169L174.6 159L226.5 223Z" fill="#15384f" stroke="#15384f"></path><path d="M226.5 223L154.6 290L263.5 286Z" fill="#297ea6" stroke="#297ea6"></path><path d="M228.5 380L173.6 439L238.5 437Z" fill="#081a28" stroke="#081a28"></path><path d="M232.5 84L174.6 159L226.5 169Z" fill="#0c2435" stroke="#0c2435"></path><path d="M226.5 528L341.3 523L321.3 441Z" fill="#205a7a" stroke="#205a7a"></path><path d="M663.5 89L642.5 0L574.7 88Z" fill="#1d4e6b" stroke="#1d4e6b"></path><path d="M718.4 0L642.5 0L663.5 89Z" fill="#246688" stroke="#246688"></path><path d="M802.2 157L723.4 90L724.4 145Z" fill="#15384f" stroke="#15384f"></path><path d="M724.4 145L723.4 90L663.5 89Z" fill="#205a7a" stroke="#205a7a"></path><path d="M146.6 219L154.6 290L226.5 223Z" fill="#246688" stroke="#246688"></path><path d="M470.9 600L554.7 537L477.9 533Z" fill="#297ea6" stroke="#297ea6"></path><path d="M477.9 533L554.7 537L499.9 445Z" fill="#205a7a" stroke="#205a7a"></path><path d="M174.6 159L146.6 219L226.5 223Z" fill="#00101c" stroke="#00101c"></path><path d="M154.6 290L169.6 374L228.5 380Z" fill="#1d4e6b" stroke="#1d4e6b"></path><path d="M723.4 440L656.5 382L652.5 432Z" fill="#0c2435" stroke="#0c2435"></path><path d="M723.4 440L755.4 364L656.5 382Z" fill="#19435d" stroke="#19435d"></path><path d="M828.2 311L833.2 211L726.4 230Z" fill="#277297" stroke="#277297"></path><path d="M726.4 230L802.2 157L724.4 145Z" fill="#081a28" stroke="#081a28"></path><path d="M344.3 0L244.5 0L340.3 69Z" fill="#19435d" stroke="#19435d"></path><path d="M232.5 84L167.6 74L174.6 159Z" fill="#15384f" stroke="#15384f"></path><path d="M90.8 138L94.8 219L146.6 219Z" fill="#297ea6" stroke="#297ea6"></path><path d="M657.5 517L723.4 440L652.5 432Z" fill="#297ea6" stroke="#297ea6"></path><path d="M244.5 0L167.6 74L232.5 84Z" fill="#205a7a" stroke="#205a7a"></path><path d="M554.7 537L657.5 517L589.7 429Z" fill="#1d4e6b" stroke="#1d4e6b"></path><path d="M169.6 374L173.6 439L228.5 380Z" fill="#205a7a" stroke="#205a7a"></path><path d="M238.5 437L226.5 528L321.3 441Z" fill="#205a7a" stroke="#205a7a"></path><path d="M96.8 460L173.6 439L169.6 374Z" fill="#297ea6" stroke="#297ea6"></path><path d="M833.2 211L802.2 157L726.4 230Z" fill="#277297" stroke="#277297"></path><path d="M723.4 90L718.4 0L663.5 89Z" fill="#19435d" stroke="#19435d"></path><path d="M824.2 71L718.4 0L723.4 90Z" fill="#205a7a" stroke="#205a7a"></path><path d="M426.1 600L477.9 533L408.1 532Z" fill="#1d4e6b" stroke="#1d4e6b"></path><path d="M426.1 600L470.9 600L477.9 533Z" fill="#1d4e6b" stroke="#1d4e6b"></path><path d="M554.7 537L651.5 600L657.5 517Z" fill="#205a7a" stroke="#205a7a"></path><path d="M426.1 600L408.1 532L337.3 600Z" fill="#205a7a" stroke="#205a7a"></path><path d="M337.3 600L408.1 532L341.3 523Z" fill="#00101c" stroke="#00101c"></path><path d="M90.8 138L146.6 219L174.6 159Z" fill="#246688" stroke="#246688"></path><path d="M146.6 219L94.8 219L154.6 290Z" fill="#112e42" stroke="#112e42"></path><path d="M154.6 290L83.8 360L169.6 374Z" fill="#1d4e6b" stroke="#1d4e6b"></path><path d="M173.6 439L226.5 528L238.5 437Z" fill="#297ea6" stroke="#297ea6"></path><path d="M470.9 600L562.7 600L554.7 537Z" fill="#00101c" stroke="#00101c"></path><path d="M828.2 311L719.4 307L755.4 364Z" fill="#112e42" stroke="#112e42"></path><path d="M828.2 311L726.4 230L719.4 307Z" fill="#205a7a" stroke="#205a7a"></path><path d="M802.2 157L824.2 71L723.4 90Z" fill="#246688" stroke="#246688"></path><path d="M819.2 395L828.2 311L755.4 364Z" fill="#19435d" stroke="#19435d"></path><path d="M235.5 600L337.3 600L341.3 523Z" fill="#15384f" stroke="#15384f"></path><path d="M167.6 74L90.8 138L174.6 159Z" fill="#297ea6" stroke="#297ea6"></path><path d="M89.8 55L90.8 138L167.6 74Z" fill="#246688" stroke="#246688"></path><path d="M0 208L77.8 309L94.8 219Z" fill="#246688" stroke="#246688"></path><path d="M94.8 219L77.8 309L154.6 290Z" fill="#15384f" stroke="#15384f"></path><path d="M169.6 600L235.5 600L226.5 528Z" fill="#205a7a" stroke="#205a7a"></path><path d="M244.5 0L151.6 0L167.6 74Z" fill="#246688" stroke="#246688"></path><path d="M657.5 517L728.4 524L723.4 440Z" fill="#205a7a" stroke="#205a7a"></path><path d="M723.4 440L819.2 395L755.4 364Z" fill="#15384f" stroke="#15384f"></path><path d="M651.5 600L728.4 524L657.5 517Z" fill="#00101c" stroke="#00101c"></path><path d="M77.8 309L83.8 360L154.6 290Z" fill="#19435d" stroke="#19435d"></path><path d="M824.2 435L819.2 395L723.4 440Z" fill="#15384f" stroke="#15384f"></path><path d="M900 164L824.2 71L802.2 157Z" fill="#15384f" stroke="#15384f"></path><path d="M562.7 600L651.5 600L554.7 537Z" fill="#0c2435" stroke="#0c2435"></path><path d="M151.6 0L89.8 55L167.6 74Z" fill="#246688" stroke="#246688"></path><path d="M90.8 138L0 208L94.8 219Z" fill="#205a7a" stroke="#205a7a"></path><path d="M798.2 539L723.4 440L728.4 524Z" fill="#112e42" stroke="#112e42"></path><path d="M798.2 539L824.2 435L723.4 440Z" fill="#112e42" stroke="#112e42"></path><path d="M900 299L833.2 211L828.2 311Z" fill="#0c2435" stroke="#0c2435"></path><path d="M900 299L900 217L833.2 211Z" fill="#246688" stroke="#246688"></path><path d="M154.6 544L226.5 528L173.6 439Z" fill="#00101c" stroke="#00101c"></path><path d="M226.5 528L235.5 600L341.3 523Z" fill="#0c2435" stroke="#0c2435"></path><path d="M83.8 360L96.8 460L169.6 374Z" fill="#00101c" stroke="#00101c"></path><path d="M96.8 460L154.6 544L173.6 439Z" fill="#15384f" stroke="#15384f"></path><path d="M900 299L828.2 311L900 382Z" fill="#081a28" stroke="#081a28"></path><path d="M833.2 211L900 164L802.2 157Z" fill="#1d4e6b" stroke="#1d4e6b"></path><path d="M900 69L832.2 0L824.2 71Z" fill="#19435d" stroke="#19435d"></path><path d="M824.2 71L832.2 0L718.4 0Z" fill="#0c2435" stroke="#0c2435"></path><path d="M900 382L828.2 311L819.2 395Z" fill="#19435d" stroke="#19435d"></path><path d="M900 217L900 164L833.2 211Z" fill="#277297" stroke="#277297"></path><path d="M744.4 600L798.2 539L728.4 524Z" fill="#15384f" stroke="#15384f"></path><path d="M824.2 435L900 382L819.2 395Z" fill="#205a7a" stroke="#205a7a"></path><path d="M151.6 0L71.8 0L89.8 55Z" fill="#15384f" stroke="#15384f"></path><path d="M0 136L0 208L90.8 138Z" fill="#081a28" stroke="#081a28"></path><path d="M651.5 600L744.4 600L728.4 524Z" fill="#277297" stroke="#277297"></path><path d="M0 136L90.8 138L0 67Z" fill="#297ea6" stroke="#297ea6"></path><path d="M77.8 309L0 320L83.8 360Z" fill="#277297" stroke="#277297"></path><path d="M83.8 360L0 384L96.8 460Z" fill="#297ea6" stroke="#297ea6"></path><path d="M80.8 600L169.6 600L154.6 544Z" fill="#277297" stroke="#277297"></path><path d="M154.6 544L169.6 600L226.5 528Z" fill="#112e42" stroke="#112e42"></path><path d="M900 463L900 382L824.2 435Z" fill="#297ea6" stroke="#297ea6"></path><path d="M0 208L0 320L77.8 309Z" fill="#19435d" stroke="#19435d"></path><path d="M96.8 460L79.8 525L154.6 544Z" fill="#15384f" stroke="#15384f"></path><path d="M0 67L90.8 138L89.8 55Z" fill="#297ea6" stroke="#297ea6"></path><path d="M0 447L79.8 525L96.8 460Z" fill="#277297" stroke="#277297"></path><path d="M900 164L900 69L824.2 71Z" fill="#081a28" stroke="#081a28"></path><path d="M0 320L0 384L83.8 360Z" fill="#112e42" stroke="#112e42"></path><path d="M71.8 0L0 67L89.8 55Z" fill="#19435d" stroke="#19435d"></path><path d="M900 542L900 463L798.2 539Z" fill="#081a28" stroke="#081a28"></path><path d="M798.2 539L900 463L824.2 435Z" fill="#15384f" stroke="#15384f"></path><path d="M744.4 600L808.2 600L798.2 539Z" fill="#0c2435" stroke="#0c2435"></path><path d="M0 384L0 447L96.8 460Z" fill="#19435d" stroke="#19435d"></path><path d="M900 69L900 0L832.2 0Z" fill="#19435d" stroke="#19435d"></path><path d="M71.8 0L0 0L0 67Z" fill="#081a28" stroke="#081a28"></path><path d="M0 600L80.8 600L79.8 525Z" fill="#0c2435" stroke="#0c2435"></path><path d="M79.8 525L80.8 600L154.6 544Z" fill="#246688" stroke="#246688"></path><path d="M808.2 600L900 542L798.2 539Z" fill="#00101c" stroke="#00101c"></path><path d="M0 447L0 520L79.8 525Z" fill="#205a7a" stroke="#205a7a"></path><path d="M808.2 600L900 600L900 542Z" fill="#19435d" stroke="#19435d"></path><path d="M0 520L0 600L79.8 525Z" fill="#19435d" stroke="#19435d"></path></g></svg>