<svg id="visual" viewBox="0 0 900 2000" width="900" height="2000" xmlns="http://www.w3.org/2000/svg" xmlns:xlink="http://www.w3.org/1999/xlink" version="1.1"><g stroke-width="1" stroke-linejoin="bevel"><path d="M493.9 977L510.9 1030L562.7 975Z" fill="#0d968b" stroke="#0d968b"></path><path d="M510.9 1030L565.7 1037L562.7 975Z" fill="#00101c" stroke="#00101c"></path><path d="M642.5 960L566.7 889L562.7 975Z" fill="#29a690" stroke="#29a690"></path><path d="M562.7 975L566.7 889L493.9 977Z" fill="#006670" stroke="#006670"></path><path d="M565.7 1037L642.5 960L562.7 975Z" fill="#071d2b" stroke="#071d2b"></path><path d="M510.9 1030L571.7 1118L565.7 1037Z" fill="#00101c" stroke="#00101c"></path><path d="M565.7 1037L672.5 1038L642.5 960Z" fill="#29a690" stroke="#29a690"></path><path d="M423.1 899L402.1 949L493.9 977Z" fill="#063848" stroke="#063848"></path><path d="M493.9 977L394.1 1021L510.9 1030Z" fill="#0d968b" stroke="#0d968b"></path><path d="M510.9 1030L480.9 1124L571.7 1118Z" fill="#008684" stroke="#008684"></path><path d="M402.1 949L394.1 1021L493.9 977Z" fill="#005664" stroke="#005664"></path><path d="M394.1 1021L480.9 1124L510.9 1030Z" fill="#00757b" stroke="#00757b"></path><path d="M473.9 860L423.1 899L493.9 977Z" fill="#005664" stroke="#005664"></path><path d="M566.7 889L473.9 860L493.9 977Z" fill="#005664" stroke="#005664"></path><path d="M671.5 1103L672.5 1038L565.7 1037Z" fill="#006670" stroke="#006670"></path><path d="M571.7 1118L671.5 1103L565.7 1037Z" fill="#034757" stroke="#034757"></path><path d="M394.1 1021L401.1 1122L480.9 1124Z" fill="#034757" stroke="#034757"></path><path d="M738.4 958L666.5 878L642.5 960Z" fill="#034757" stroke="#034757"></path><path d="M642.5 960L666.5 878L566.7 889Z" fill="#00757b" stroke="#00757b"></path><path d="M566.7 889L560.7 791L473.9 860Z" fill="#00101c" stroke="#00101c"></path><path d="M480.9 1124L578.7 1189L571.7 1118Z" fill="#008684" stroke="#008684"></path><path d="M571.7 1118L578.7 1189L671.5 1103Z" fill="#005664" stroke="#005664"></path><path d="M476.9 1196L578.7 1189L480.9 1124Z" fill="#072b3a" stroke="#072b3a"></path><path d="M335.3 873L328.3 960L402.1 949Z" fill="#005664" stroke="#005664"></path><path d="M402.1 949L328.3 960L394.1 1021Z" fill="#00101c" stroke="#00101c"></path><path d="M394.1 1021L329.3 1046L401.1 1122Z" fill="#005664" stroke="#005664"></path><path d="M335.3 873L402.1 949L423.1 899Z" fill="#008684" stroke="#008684"></path><path d="M328.3 960L329.3 1046L394.1 1021Z" fill="#072b3a" stroke="#072b3a"></path><path d="M640.5 812L560.7 791L566.7 889Z" fill="#072b3a" stroke="#072b3a"></path><path d="M390.1 781L335.3 873L423.1 899Z" fill="#29a690" stroke="#29a690"></path><path d="M423.1 1186L476.9 1196L480.9 1124Z" fill="#00101c" stroke="#00101c"></path><path d="M560.7 791L502.9 785L473.9 860Z" fill="#005664" stroke="#005664"></path><path d="M741.4 1052L738.4 958L672.5 1038Z" fill="#005664" stroke="#005664"></path><path d="M672.5 1038L738.4 958L642.5 960Z" fill="#006670" stroke="#006670"></path><path d="M745.4 810L640.5 812L666.5 878Z" fill="#008684" stroke="#008684"></path><path d="M666.5 878L640.5 812L566.7 889Z" fill="#00757b" stroke="#00757b"></path><path d="M345.3 1193L423.1 1186L401.1 1122Z" fill="#034757" stroke="#034757"></path><path d="M401.1 1122L423.1 1186L480.9 1124Z" fill="#008684" stroke="#008684"></path><path d="M745.4 1124L741.4 1052L671.5 1103Z" fill="#008684" stroke="#008684"></path><path d="M671.5 1103L741.4 1052L672.5 1038Z" fill="#29a690" stroke="#29a690"></path><path d="M329.3 1046L343.3 1122L401.1 1122Z" fill="#29a690" stroke="#29a690"></path><path d="M390.1 781L423.1 899L473.9 860Z" fill="#008684" stroke="#008684"></path><path d="M671.5 1212L745.4 1124L671.5 1103Z" fill="#005664" stroke="#005664"></path><path d="M834.2 884L747.4 866L738.4 958Z" fill="#071d2b" stroke="#071d2b"></path><path d="M812.2 1043L738.4 958L741.4 1052Z" fill="#006670" stroke="#006670"></path><path d="M738.4 958L747.4 866L666.5 878Z" fill="#063848" stroke="#063848"></path><path d="M502.9 785L390.1 781L473.9 860Z" fill="#008684" stroke="#008684"></path><path d="M577.7 1287L671.5 1212L578.7 1189Z" fill="#008684" stroke="#008684"></path><path d="M578.7 1189L671.5 1212L671.5 1103Z" fill="#00101c" stroke="#00101c"></path><path d="M343.3 1122L345.3 1193L401.1 1122Z" fill="#008684" stroke="#008684"></path><path d="M401.1 1261L498.9 1278L476.9 1196Z" fill="#00101c" stroke="#00101c"></path><path d="M476.9 1196L498.9 1278L578.7 1189Z" fill="#006670" stroke="#006670"></path><path d="M235.5 1193L345.3 1193L343.3 1122Z" fill="#00101c" stroke="#00101c"></path><path d="M560.7 791L490.9 727L502.9 785Z" fill="#00101c" stroke="#00101c"></path><path d="M502.9 785L424.1 717L390.1 781Z" fill="#005664" stroke="#005664"></path><path d="M572.7 702L490.9 727L560.7 791Z" fill="#29a690" stroke="#29a690"></path><path d="M657.5 731L560.7 791L640.5 812Z" fill="#00757b" stroke="#00757b"></path><path d="M335.3 729L334.3 793L390.1 781Z" fill="#006670" stroke="#006670"></path><path d="M390.1 781L334.3 793L335.3 873Z" fill="#071d2b" stroke="#071d2b"></path><path d="M335.3 873L239.5 952L328.3 960Z" fill="#034757" stroke="#034757"></path><path d="M401.1 1261L476.9 1196L423.1 1186Z" fill="#005664" stroke="#005664"></path><path d="M747.4 866L745.4 810L666.5 878Z" fill="#006670" stroke="#006670"></path><path d="M745.4 1124L812.2 1043L741.4 1052Z" fill="#005664" stroke="#005664"></path><path d="M747.4 866L819.2 784L745.4 810Z" fill="#034757" stroke="#034757"></path><path d="M233.5 862L239.5 952L335.3 873Z" fill="#008684" stroke="#008684"></path><path d="M328.3 960L239.5 952L329.3 1046Z" fill="#006670" stroke="#006670"></path><path d="M329.3 1046L235.5 1118L343.3 1122Z" fill="#063848" stroke="#063848"></path><path d="M717.4 733L657.5 731L640.5 812Z" fill="#005664" stroke="#005664"></path><path d="M345.3 1193L401.1 1261L423.1 1186Z" fill="#00757b" stroke="#00757b"></path><path d="M498.9 1278L577.7 1287L578.7 1189Z" fill="#0d968b" stroke="#0d968b"></path><path d="M657.5 731L572.7 702L560.7 791Z" fill="#0d968b" stroke="#0d968b"></path><path d="M509.9 641L424.1 717L490.9 727Z" fill="#072b3a" stroke="#072b3a"></path><path d="M490.9 727L424.1 717L502.9 785Z" fill="#063848" stroke="#063848"></path><path d="M718.4 1271L741.4 1205L671.5 1212Z" fill="#00757b" stroke="#00757b"></path><path d="M671.5 1212L741.4 1205L745.4 1124Z" fill="#071d2b" stroke="#071d2b"></path><path d="M745.4 1124L834.2 1130L812.2 1043Z" fill="#0d968b" stroke="#0d968b"></path><path d="M239.5 952L234.5 1051L329.3 1046Z" fill="#008684" stroke="#008684"></path><path d="M577.7 1287L674.5 1264L671.5 1212Z" fill="#071d2b" stroke="#071d2b"></path><path d="M812.2 1043L833.2 962L738.4 958Z" fill="#006670" stroke="#006670"></path><path d="M234.5 1051L235.5 1118L329.3 1046Z" fill="#063848" stroke="#063848"></path><path d="M345.3 1193L310.3 1265L401.1 1261Z" fill="#00757b" stroke="#00757b"></path><path d="M819.2 784L717.4 733L745.4 810Z" fill="#071d2b" stroke="#071d2b"></path><path d="M745.4 810L717.4 733L640.5 812Z" fill="#006670" stroke="#006670"></path><path d="M570.7 639L509.9 641L572.7 702Z" fill="#063848" stroke="#063848"></path><path d="M224.5 804L233.5 862L334.3 793Z" fill="#008684" stroke="#008684"></path><path d="M334.3 793L233.5 862L335.3 873Z" fill="#29a690" stroke="#29a690"></path><path d="M239.5 952L180.6 1027L234.5 1051Z" fill="#0d968b" stroke="#0d968b"></path><path d="M833.2 962L834.2 884L738.4 958Z" fill="#005664" stroke="#005664"></path><path d="M424.1 717L335.3 729L390.1 781Z" fill="#00101c" stroke="#00101c"></path><path d="M804.2 1187L745.4 1124L741.4 1205Z" fill="#063848" stroke="#063848"></path><path d="M804.2 1187L834.2 1130L745.4 1124Z" fill="#063848" stroke="#063848"></path><path d="M900 1041L900 950L833.2 962Z" fill="#00757b" stroke="#00757b"></path><path d="M833.2 962L900 950L834.2 884Z" fill="#071d2b" stroke="#071d2b"></path><path d="M740.4 1340L718.4 1271L674.5 1264Z" fill="#00757b" stroke="#00757b"></path><path d="M674.5 1264L718.4 1271L671.5 1212Z" fill="#005664" stroke="#005664"></path><path d="M823.2 1285L804.2 1187L741.4 1205Z" fill="#005664" stroke="#005664"></path><path d="M235.5 1193L310.3 1265L345.3 1193Z" fill="#072b3a" stroke="#072b3a"></path><path d="M492.9 1369L577.7 1287L498.9 1278Z" fill="#072b3a" stroke="#072b3a"></path><path d="M492.9 1369L592.7 1358L577.7 1287Z" fill="#034757" stroke="#034757"></path><path d="M151.6 969L180.6 1027L239.5 952Z" fill="#063848" stroke="#063848"></path><path d="M234.5 1051L166.6 1120L235.5 1118Z" fill="#071d2b" stroke="#071d2b"></path><path d="M235.5 1118L235.5 1193L343.3 1122Z" fill="#071d2b" stroke="#071d2b"></path><path d="M166.6 1120L235.5 1193L235.5 1118Z" fill="#006670" stroke="#006670"></path><path d="M570.7 639L572.7 702L639.5 625Z" fill="#0d968b" stroke="#0d968b"></path><path d="M572.7 702L509.9 641L490.9 727Z" fill="#071d2b" stroke="#071d2b"></path><path d="M424.1 717L344.3 658L335.3 729Z" fill="#29a690" stroke="#29a690"></path><path d="M639.5 625L572.7 702L657.5 731Z" fill="#034757" stroke="#034757"></path><path d="M834.2 884L819.2 784L747.4 866Z" fill="#063848" stroke="#063848"></path><path d="M725.4 644L639.5 625L657.5 731Z" fill="#071d2b" stroke="#071d2b"></path><path d="M229.5 711L224.5 804L334.3 793Z" fill="#29a690" stroke="#29a690"></path><path d="M158.6 889L151.6 969L239.5 952Z" fill="#072b3a" stroke="#072b3a"></path><path d="M492.9 1369L498.9 1278L401.1 1368Z" fill="#0d968b" stroke="#0d968b"></path><path d="M577.7 1287L634.5 1364L674.5 1264Z" fill="#005664" stroke="#005664"></path><path d="M900 1041L833.2 962L812.2 1043Z" fill="#006670" stroke="#006670"></path><path d="M834.2 884L900 806L819.2 784Z" fill="#00101c" stroke="#00101c"></path><path d="M900 1102L812.2 1043L834.2 1130Z" fill="#00101c" stroke="#00101c"></path><path d="M900 1102L900 1041L812.2 1043Z" fill="#0d968b" stroke="#0d968b"></path><path d="M401.1 1368L498.9 1278L401.1 1261Z" fill="#00101c" stroke="#00101c"></path><path d="M158.6 889L239.5 952L233.5 862Z" fill="#005664" stroke="#005664"></path><path d="M180.6 1027L166.6 1120L234.5 1051Z" fill="#034757" stroke="#034757"></path><path d="M96.8 1051L166.6 1120L180.6 1027Z" fill="#008684" stroke="#008684"></path><path d="M412.1 578L391.1 637L509.9 641Z" fill="#006670" stroke="#006670"></path><path d="M509.9 641L391.1 637L424.1 717Z" fill="#005664" stroke="#005664"></path><path d="M335.3 729L229.5 711L334.3 793Z" fill="#008684" stroke="#008684"></path><path d="M582.7 1448L634.5 1364L592.7 1358Z" fill="#006670" stroke="#006670"></path><path d="M592.7 1358L634.5 1364L577.7 1287Z" fill="#00101c" stroke="#00101c"></path><path d="M718.4 1271L823.2 1285L741.4 1205Z" fill="#0d968b" stroke="#0d968b"></path><path d="M391.1 637L344.3 658L424.1 717Z" fill="#008684" stroke="#008684"></path><path d="M148.6 817L158.6 889L233.5 862Z" fill="#063848" stroke="#063848"></path><path d="M725.4 644L657.5 731L717.4 733Z" fill="#063848" stroke="#063848"></path><path d="M555.7 566L498.9 572L509.9 641Z" fill="#29a690" stroke="#29a690"></path><path d="M900 1207L834.2 1130L804.2 1187Z" fill="#00101c" stroke="#00101c"></path><path d="M900 1207L900 1102L834.2 1130Z" fill="#29a690" stroke="#29a690"></path><path d="M900 950L900 887L834.2 884Z" fill="#063848" stroke="#063848"></path><path d="M308.3 1374L401.1 1368L310.3 1265Z" fill="#006670" stroke="#006670"></path><path d="M310.3 1265L401.1 1368L401.1 1261Z" fill="#00101c" stroke="#00101c"></path><path d="M150.6 1189L243.5 1270L235.5 1193Z" fill="#005664" stroke="#005664"></path><path d="M235.5 1193L243.5 1270L310.3 1265Z" fill="#00757b" stroke="#00757b"></path><path d="M834.2 708L717.4 733L819.2 784Z" fill="#072b3a" stroke="#072b3a"></path><path d="M834.2 708L725.4 644L717.4 733Z" fill="#072b3a" stroke="#072b3a"></path><path d="M634.5 1364L740.4 1340L674.5 1264Z" fill="#071d2b" stroke="#071d2b"></path><path d="M344.3 658L229.5 711L335.3 729Z" fill="#008684" stroke="#008684"></path><path d="M224.5 804L148.6 817L233.5 862Z" fill="#00757b" stroke="#00757b"></path><path d="M740.4 1340L823.2 1285L718.4 1271Z" fill="#00757b" stroke="#00757b"></path><path d="M900 887L900 806L834.2 884Z" fill="#29a690" stroke="#29a690"></path><path d="M900 726L834.2 708L819.2 784Z" fill="#00101c" stroke="#00101c"></path><path d="M151.6 733L148.6 817L224.5 804Z" fill="#071d2b" stroke="#071d2b"></path><path d="M81.8 948L96.8 1051L151.6 969Z" fill="#034757" stroke="#034757"></path><path d="M555.7 566L570.7 639L639.5 625Z" fill="#063848" stroke="#063848"></path><path d="M555.7 566L509.9 641L570.7 639Z" fill="#0d968b" stroke="#0d968b"></path><path d="M391.1 637L326.3 543L344.3 658Z" fill="#00757b" stroke="#00757b"></path><path d="M344.3 658L242.5 636L229.5 711Z" fill="#072b3a" stroke="#072b3a"></path><path d="M84.8 1182L150.6 1189L166.6 1120Z" fill="#29a690" stroke="#29a690"></path><path d="M166.6 1120L150.6 1189L235.5 1193Z" fill="#063848" stroke="#063848"></path><path d="M96.8 1051L180.6 1027L151.6 969Z" fill="#005664" stroke="#005664"></path><path d="M823.2 1285L900 1207L804.2 1187Z" fill="#0d968b" stroke="#0d968b"></path><path d="M657.5 547L555.7 566L639.5 625Z" fill="#00757b" stroke="#00757b"></path><path d="M326.3 543L412.1 578L428.1 495Z" fill="#005664" stroke="#005664"></path><path d="M498.9 572L412.1 578L509.9 641Z" fill="#071d2b" stroke="#071d2b"></path><path d="M81.8 948L151.6 969L158.6 889Z" fill="#0d968b" stroke="#0d968b"></path><path d="M233.5 1376L308.3 1374L243.5 1270Z" fill="#006670" stroke="#006670"></path><path d="M243.5 1270L308.3 1374L310.3 1265Z" fill="#00101c" stroke="#00101c"></path><path d="M401.1 1368L399.1 1419L492.9 1369Z" fill="#00757b" stroke="#00757b"></path><path d="M308.3 1374L399.1 1419L401.1 1368Z" fill="#0d968b" stroke="#0d968b"></path><path d="M492.9 1369L582.7 1448L592.7 1358Z" fill="#008684" stroke="#008684"></path><path d="M722.4 1431L809.2 1349L740.4 1340Z" fill="#006670" stroke="#006670"></path><path d="M85.8 787L100.8 865L148.6 817Z" fill="#071d2b" stroke="#071d2b"></path><path d="M148.6 817L100.8 865L158.6 889Z" fill="#005664" stroke="#005664"></path><path d="M100.8 865L81.8 948L158.6 889Z" fill="#0d968b" stroke="#0d968b"></path><path d="M740.4 1340L809.2 1349L823.2 1285Z" fill="#008684" stroke="#008684"></path><path d="M823.2 1285L900 1261L900 1207Z" fill="#034757" stroke="#034757"></path><path d="M722.4 1431L740.4 1340L634.5 1364Z" fill="#034757" stroke="#034757"></path><path d="M507.9 1456L582.7 1448L492.9 1369Z" fill="#063848" stroke="#063848"></path><path d="M900 1363L900 1261L823.2 1285Z" fill="#0d968b" stroke="#0d968b"></path><path d="M900 806L900 726L819.2 784Z" fill="#006670" stroke="#006670"></path><path d="M752.4 567L657.5 547L725.4 644Z" fill="#071d2b" stroke="#071d2b"></path><path d="M326.3 543L242.5 636L344.3 658Z" fill="#008684" stroke="#008684"></path><path d="M229.5 711L151.6 733L224.5 804Z" fill="#006670" stroke="#006670"></path><path d="M168.6 620L151.6 733L229.5 711Z" fill="#006670" stroke="#006670"></path><path d="M399.1 1419L507.9 1456L492.9 1369Z" fill="#034757" stroke="#034757"></path><path d="M833.2 638L725.4 644L834.2 708Z" fill="#008684" stroke="#008684"></path><path d="M725.4 644L657.5 547L639.5 625Z" fill="#072b3a" stroke="#072b3a"></path><path d="M428.1 495L412.1 578L498.9 572Z" fill="#0d968b" stroke="#0d968b"></path><path d="M900 640L833.2 638L834.2 708Z" fill="#072b3a" stroke="#072b3a"></path><path d="M150.6 1189L170.6 1300L243.5 1270Z" fill="#034757" stroke="#034757"></path><path d="M87.8 1263L170.6 1300L150.6 1189Z" fill="#29a690" stroke="#29a690"></path><path d="M649.5 1502L659.5 1453L582.7 1448Z" fill="#008684" stroke="#008684"></path><path d="M582.7 1448L659.5 1453L634.5 1364Z" fill="#005664" stroke="#005664"></path><path d="M659.5 1453L722.4 1431L634.5 1364Z" fill="#034757" stroke="#034757"></path><path d="M0 1059L68.8 1137L96.8 1051Z" fill="#034757" stroke="#034757"></path><path d="M96.8 1051L68.8 1137L166.6 1120Z" fill="#006670" stroke="#006670"></path><path d="M68.8 1137L84.8 1182L166.6 1120Z" fill="#008684" stroke="#008684"></path><path d="M175.6 1348L233.5 1376L243.5 1270Z" fill="#0d968b" stroke="#0d968b"></path><path d="M308.3 1374L307.3 1438L399.1 1419Z" fill="#005664" stroke="#005664"></path><path d="M399.1 1419L414.1 1513L507.9 1456Z" fill="#00757b" stroke="#00757b"></path><path d="M804.2 571L752.4 567L725.4 644Z" fill="#0d968b" stroke="#0d968b"></path><path d="M82.8 708L85.8 787L151.6 733Z" fill="#071d2b" stroke="#071d2b"></path><path d="M151.6 733L85.8 787L148.6 817Z" fill="#29a690" stroke="#29a690"></path><path d="M0 878L0 959L81.8 948Z" fill="#072b3a" stroke="#072b3a"></path><path d="M81.8 948L0 959L96.8 1051Z" fill="#005664" stroke="#005664"></path><path d="M233.5 1376L307.3 1438L308.3 1374Z" fill="#071d2b" stroke="#071d2b"></path><path d="M501.9 497L498.9 572L555.7 566Z" fill="#00757b" stroke="#00757b"></path><path d="M412.1 578L326.3 543L391.1 637Z" fill="#00757b" stroke="#00757b"></path><path d="M242.5 636L168.6 620L229.5 711Z" fill="#071d2b" stroke="#071d2b"></path><path d="M567.7 493L555.7 566L657.5 547Z" fill="#006670" stroke="#006670"></path><path d="M567.7 493L501.9 497L555.7 566Z" fill="#00757b" stroke="#00757b"></path><path d="M170.6 1300L175.6 1348L243.5 1270Z" fill="#008684" stroke="#008684"></path><path d="M233.5 1376L230.5 1454L307.3 1438Z" fill="#071d2b" stroke="#071d2b"></path><path d="M92.8 1352L175.6 1348L170.6 1300Z" fill="#008684" stroke="#008684"></path><path d="M659.5 469L567.7 493L657.5 547Z" fill="#00757b" stroke="#00757b"></path><path d="M833.2 638L804.2 571L725.4 644Z" fill="#034757" stroke="#034757"></path><path d="M752.4 483L659.5 469L657.5 547Z" fill="#0d968b" stroke="#0d968b"></path><path d="M900 579L804.2 571L833.2 638Z" fill="#005664" stroke="#005664"></path><path d="M501.9 497L428.1 495L498.9 572Z" fill="#00101c" stroke="#00101c"></path><path d="M508.9 406L428.1 495L501.9 497Z" fill="#072b3a" stroke="#072b3a"></path><path d="M900 726L900 640L834.2 708Z" fill="#071d2b" stroke="#071d2b"></path><path d="M0 1186L87.8 1263L84.8 1182Z" fill="#00757b" stroke="#00757b"></path><path d="M84.8 1182L87.8 1263L150.6 1189Z" fill="#071d2b" stroke="#071d2b"></path><path d="M248.5 544L168.6 620L242.5 636Z" fill="#071d2b" stroke="#071d2b"></path><path d="M582.7 1535L649.5 1502L582.7 1448Z" fill="#071d2b" stroke="#071d2b"></path><path d="M659.5 1453L731.4 1536L722.4 1431Z" fill="#005664" stroke="#005664"></path><path d="M900 1438L900 1363L809.2 1349Z" fill="#072b3a" stroke="#072b3a"></path><path d="M582.7 1535L582.7 1448L507.9 1456Z" fill="#0d968b" stroke="#0d968b"></path><path d="M806.2 1454L809.2 1349L722.4 1431Z" fill="#006670" stroke="#006670"></path><path d="M809.2 1349L900 1363L823.2 1285Z" fill="#071d2b" stroke="#071d2b"></path><path d="M0 878L100.8 865L0 794Z" fill="#29a690" stroke="#29a690"></path><path d="M0 878L81.8 948L100.8 865Z" fill="#008684" stroke="#008684"></path><path d="M68.8 1137L0 1186L84.8 1182Z" fill="#034757" stroke="#034757"></path><path d="M99.8 624L82.8 708L151.6 733Z" fill="#29a690" stroke="#29a690"></path><path d="M310.3 1503L399.1 1419L307.3 1438Z" fill="#006670" stroke="#006670"></path><path d="M310.3 1503L414.1 1513L399.1 1419Z" fill="#0d968b" stroke="#0d968b"></path><path d="M326.3 543L248.5 544L242.5 636Z" fill="#29a690" stroke="#29a690"></path><path d="M254.5 491L248.5 544L326.3 543Z" fill="#29a690" stroke="#29a690"></path><path d="M0 959L0 1059L96.8 1051Z" fill="#0d968b" stroke="#0d968b"></path><path d="M731.4 1536L806.2 1454L722.4 1431Z" fill="#0d968b" stroke="#0d968b"></path><path d="M414.1 1513L476.9 1532L507.9 1456Z" fill="#034757" stroke="#034757"></path><path d="M0 794L100.8 865L85.8 787Z" fill="#072b3a" stroke="#072b3a"></path><path d="M752.4 483L657.5 547L752.4 567Z" fill="#006670" stroke="#006670"></path><path d="M567.7 493L508.9 406L501.9 497Z" fill="#005664" stroke="#005664"></path><path d="M476.9 1532L582.7 1535L507.9 1456Z" fill="#00101c" stroke="#00101c"></path><path d="M649.5 1502L731.4 1536L659.5 1453Z" fill="#072b3a" stroke="#072b3a"></path><path d="M0 1059L0 1119L68.8 1137Z" fill="#072b3a" stroke="#072b3a"></path><path d="M180.6 1438L233.5 1376L175.6 1348Z" fill="#006670" stroke="#006670"></path><path d="M180.6 1438L230.5 1454L233.5 1376Z" fill="#063848" stroke="#063848"></path><path d="M230.5 1454L310.3 1503L307.3 1438Z" fill="#00101c" stroke="#00101c"></path><path d="M471.9 1591L554.7 1586L476.9 1532Z" fill="#034757" stroke="#034757"></path><path d="M409.1 400L324.3 477L428.1 495Z" fill="#005664" stroke="#005664"></path><path d="M428.1 495L324.3 477L326.3 543Z" fill="#006670" stroke="#006670"></path><path d="M900 640L900 579L833.2 638Z" fill="#071d2b" stroke="#071d2b"></path><path d="M804.2 571L752.4 483L752.4 567Z" fill="#071d2b" stroke="#071d2b"></path><path d="M805.2 474L752.4 483L804.2 571Z" fill="#071d2b" stroke="#071d2b"></path><path d="M0 1119L0 1186L68.8 1137Z" fill="#00757b" stroke="#00757b"></path><path d="M92.8 1352L180.6 1438L175.6 1348Z" fill="#29a690" stroke="#29a690"></path><path d="M92.8 1352L170.6 1300L87.8 1263Z" fill="#034757" stroke="#034757"></path><path d="M230.5 1454L226.5 1504L310.3 1503Z" fill="#005664" stroke="#005664"></path><path d="M0 1291L92.8 1352L87.8 1263Z" fill="#0d968b" stroke="#0d968b"></path><path d="M0 736L0 794L85.8 787Z" fill="#00757b" stroke="#00757b"></path><path d="M144.6 477L150.6 573L248.5 544Z" fill="#00757b" stroke="#00757b"></path><path d="M248.5 544L150.6 573L168.6 620Z" fill="#005664" stroke="#005664"></path><path d="M168.6 620L99.8 624L151.6 733Z" fill="#29a690" stroke="#29a690"></path><path d="M82.8 708L0 736L85.8 787Z" fill="#29a690" stroke="#29a690"></path><path d="M150.6 573L99.8 624L168.6 620Z" fill="#00101c" stroke="#00101c"></path><path d="M324.3 477L254.5 491L326.3 543Z" fill="#005664" stroke="#005664"></path><path d="M668.5 1590L731.4 1536L649.5 1502Z" fill="#008684" stroke="#008684"></path><path d="M806.2 1454L900 1438L809.2 1349Z" fill="#006670" stroke="#006670"></path><path d="M900 1501L900 1438L806.2 1454Z" fill="#063848" stroke="#063848"></path><path d="M665.5 416L574.7 416L659.5 469Z" fill="#29a690" stroke="#29a690"></path><path d="M659.5 469L574.7 416L567.7 493Z" fill="#005664" stroke="#005664"></path><path d="M324.3 477L240.5 411L254.5 491Z" fill="#29a690" stroke="#29a690"></path><path d="M0 655L0 736L82.8 708Z" fill="#00101c" stroke="#00101c"></path><path d="M574.7 416L508.9 406L567.7 493Z" fill="#0d968b" stroke="#0d968b"></path><path d="M900 483L805.2 474L804.2 571Z" fill="#00757b" stroke="#00757b"></path><path d="M752.4 483L665.5 416L659.5 469Z" fill="#063848" stroke="#063848"></path><path d="M476.9 1532L554.7 1586L582.7 1535Z" fill="#00757b" stroke="#00757b"></path><path d="M582.7 1535L668.5 1590L649.5 1502Z" fill="#006670" stroke="#006670"></path><path d="M471.9 1591L476.9 1532L401.1 1592Z" fill="#0d968b" stroke="#0d968b"></path><path d="M169.6 1531L226.5 1504L180.6 1438Z" fill="#072b3a" stroke="#072b3a"></path><path d="M180.6 1438L226.5 1504L230.5 1454Z" fill="#071d2b" stroke="#071d2b"></path><path d="M401.1 1592L476.9 1532L414.1 1513Z" fill="#071d2b" stroke="#071d2b"></path><path d="M739.4 390L665.5 416L752.4 483Z" fill="#00101c" stroke="#00101c"></path><path d="M554.7 315L494.9 340L508.9 406Z" fill="#008684" stroke="#008684"></path><path d="M401.1 1592L414.1 1513L335.3 1585Z" fill="#034757" stroke="#034757"></path><path d="M0 1186L0 1291L87.8 1263Z" fill="#008684" stroke="#008684"></path><path d="M92.8 1352L64.8 1442L180.6 1438Z" fill="#071d2b" stroke="#071d2b"></path><path d="M508.9 406L409.1 400L428.1 495Z" fill="#006670" stroke="#006670"></path><path d="M335.3 1585L414.1 1513L310.3 1503Z" fill="#034757" stroke="#034757"></path><path d="M731.4 1536L808.2 1538L806.2 1454Z" fill="#29a690" stroke="#29a690"></path><path d="M731.4 1600L808.2 1538L731.4 1536Z" fill="#071d2b" stroke="#071d2b"></path><path d="M731.4 1600L668.5 1590L638.5 1671Z" fill="#0d968b" stroke="#0d968b"></path><path d="M554.7 1586L668.5 1590L582.7 1535Z" fill="#00757b" stroke="#00757b"></path><path d="M668.5 1590L554.7 1586L638.5 1671Z" fill="#034757" stroke="#034757"></path><path d="M150.6 573L82.8 564L99.8 624Z" fill="#0d968b" stroke="#0d968b"></path><path d="M99.8 624L0 655L82.8 708Z" fill="#063848" stroke="#063848"></path><path d="M144.6 477L82.8 564L150.6 573Z" fill="#072b3a" stroke="#072b3a"></path><path d="M144.6 477L248.5 544L254.5 491Z" fill="#034757" stroke="#034757"></path><path d="M234.5 1611L335.3 1585L310.3 1503Z" fill="#063848" stroke="#063848"></path><path d="M808.2 1538L900 1501L806.2 1454Z" fill="#00101c" stroke="#00101c"></path><path d="M82.8 564L0 655L99.8 624Z" fill="#00101c" stroke="#00101c"></path><path d="M409.1 400L328.3 399L324.3 477Z" fill="#00101c" stroke="#00101c"></path><path d="M900 579L900 483L804.2 571Z" fill="#034757" stroke="#034757"></path><path d="M805.2 474L739.4 390L752.4 483Z" fill="#034757" stroke="#034757"></path><path d="M638.5 1671L554.7 1586L553.7 1696Z" fill="#0d968b" stroke="#0d968b"></path><path d="M668.5 1590L731.4 1600L731.4 1536Z" fill="#072b3a" stroke="#072b3a"></path><path d="M808.2 1538L835.2 1591L900 1501Z" fill="#072b3a" stroke="#072b3a"></path><path d="M825.2 412L739.4 390L805.2 474Z" fill="#008684" stroke="#008684"></path><path d="M554.7 315L508.9 406L574.7 416Z" fill="#063848" stroke="#063848"></path><path d="M508.9 406L494.9 340L409.1 400Z" fill="#0d968b" stroke="#0d968b"></path><path d="M409.1 400L426.1 308L328.3 399Z" fill="#008684" stroke="#008684"></path><path d="M0 1380L64.8 1442L92.8 1352Z" fill="#034757" stroke="#034757"></path><path d="M226.5 1504L234.5 1611L310.3 1503Z" fill="#00757b" stroke="#00757b"></path><path d="M240.5 411L144.6 477L254.5 491Z" fill="#006670" stroke="#006670"></path><path d="M82.8 564L0 546L0 655Z" fill="#034757" stroke="#034757"></path><path d="M64.8 1442L169.6 1531L180.6 1438Z" fill="#0d968b" stroke="#0d968b"></path><path d="M328.3 399L240.5 411L324.3 477Z" fill="#00757b" stroke="#00757b"></path><path d="M900 483L825.2 412L805.2 474Z" fill="#071d2b" stroke="#071d2b"></path><path d="M0 1291L0 1380L92.8 1352Z" fill="#0d968b" stroke="#0d968b"></path><path d="M637.5 337L574.7 416L665.5 416Z" fill="#006670" stroke="#006670"></path><path d="M228.5 333L161.6 406L240.5 411Z" fill="#063848" stroke="#063848"></path><path d="M721.4 329L665.5 416L739.4 390Z" fill="#0d968b" stroke="#0d968b"></path><path d="M721.4 329L637.5 337L665.5 416Z" fill="#063848" stroke="#063848"></path><path d="M731.4 1600L835.2 1591L808.2 1538Z" fill="#0d968b" stroke="#0d968b"></path><path d="M637.5 337L554.7 315L574.7 416Z" fill="#29a690" stroke="#29a690"></path><path d="M228.5 333L240.5 411L328.3 399Z" fill="#071d2b" stroke="#071d2b"></path><path d="M161.6 406L95.8 468L144.6 477Z" fill="#00101c" stroke="#00101c"></path><path d="M144.6 477L95.8 468L82.8 564Z" fill="#034757" stroke="#034757"></path><path d="M335.3 1585L394.1 1670L401.1 1592Z" fill="#29a690" stroke="#29a690"></path><path d="M553.7 1696L554.7 1586L471.9 1591Z" fill="#00101c" stroke="#00101c"></path><path d="M169.6 1531L234.5 1611L226.5 1504Z" fill="#005664" stroke="#005664"></path><path d="M149.6 1596L234.5 1611L169.6 1531Z" fill="#00757b" stroke="#00757b"></path><path d="M62.8 1516L169.6 1531L64.8 1442Z" fill="#072b3a" stroke="#072b3a"></path><path d="M394.1 1670L471.9 1591L401.1 1592Z" fill="#071d2b" stroke="#071d2b"></path><path d="M731.4 1600L743.4 1682L835.2 1591Z" fill="#00101c" stroke="#00101c"></path><path d="M324.3 1686L394.1 1670L335.3 1585Z" fill="#008684" stroke="#008684"></path><path d="M814.2 339L721.4 329L739.4 390Z" fill="#29a690" stroke="#29a690"></path><path d="M572.7 220L489.9 239L554.7 315Z" fill="#00101c" stroke="#00101c"></path><path d="M95.8 468L0 546L82.8 564Z" fill="#00757b" stroke="#00757b"></path><path d="M240.5 411L161.6 406L144.6 477Z" fill="#063848" stroke="#063848"></path><path d="M95.8 468L0 462L0 546Z" fill="#0d968b" stroke="#0d968b"></path><path d="M426.1 308L409.1 400L494.9 340Z" fill="#005664" stroke="#005664"></path><path d="M418.1 253L426.1 308L489.9 239Z" fill="#005664" stroke="#005664"></path><path d="M0 1380L0 1452L64.8 1442Z" fill="#071d2b" stroke="#071d2b"></path><path d="M0 1452L62.8 1516L64.8 1442Z" fill="#072b3a" stroke="#072b3a"></path><path d="M474.9 1695L553.7 1696L471.9 1591Z" fill="#006670" stroke="#006670"></path><path d="M394.1 1670L474.9 1695L471.9 1591Z" fill="#005664" stroke="#005664"></path><path d="M900 1669L900 1591L835.2 1591Z" fill="#034757" stroke="#034757"></path><path d="M835.2 1591L900 1591L900 1501Z" fill="#034757" stroke="#034757"></path><path d="M91.8 1599L149.6 1596L169.6 1531Z" fill="#071d2b" stroke="#071d2b"></path><path d="M247.5 1661L324.3 1686L335.3 1585Z" fill="#0d968b" stroke="#0d968b"></path><path d="M394.1 1670L406.1 1752L474.9 1695Z" fill="#071d2b" stroke="#071d2b"></path><path d="M900 483L900 387L825.2 412Z" fill="#29a690" stroke="#29a690"></path><path d="M825.2 412L814.2 339L739.4 390Z" fill="#005664" stroke="#005664"></path><path d="M900 387L814.2 339L825.2 412Z" fill="#00757b" stroke="#00757b"></path><path d="M723.4 1740L743.4 1682L638.5 1671Z" fill="#00101c" stroke="#00101c"></path><path d="M638.5 1671L743.4 1682L731.4 1600Z" fill="#063848" stroke="#063848"></path><path d="M247.5 1661L335.3 1585L234.5 1611Z" fill="#006670" stroke="#006670"></path><path d="M169.6 1674L247.5 1661L234.5 1611Z" fill="#00101c" stroke="#00101c"></path><path d="M306.3 302L228.5 333L328.3 399Z" fill="#072b3a" stroke="#072b3a"></path><path d="M0 409L0 462L95.8 468Z" fill="#008684" stroke="#008684"></path><path d="M426.1 308L306.3 302L328.3 399Z" fill="#063848" stroke="#063848"></path><path d="M62.8 1516L91.8 1599L169.6 1531Z" fill="#00101c" stroke="#00101c"></path><path d="M149.6 1596L169.6 1674L234.5 1611Z" fill="#005664" stroke="#005664"></path><path d="M0 1452L0 1507L62.8 1516Z" fill="#063848" stroke="#063848"></path><path d="M0 1604L91.8 1599L62.8 1516Z" fill="#005664" stroke="#005664"></path><path d="M489.9 239L426.1 308L494.9 340Z" fill="#00101c" stroke="#00101c"></path><path d="M426.1 308L418.1 253L306.3 302Z" fill="#072b3a" stroke="#072b3a"></path><path d="M180.6 305L161.6 406L228.5 333Z" fill="#006670" stroke="#006670"></path><path d="M489.9 239L494.9 340L554.7 315Z" fill="#29a690" stroke="#29a690"></path><path d="M554.7 315L637.5 337L662.5 240Z" fill="#034757" stroke="#034757"></path><path d="M84.8 382L95.8 468L161.6 406Z" fill="#00757b" stroke="#00757b"></path><path d="M818.2 1769L838.2 1684L743.4 1682Z" fill="#29a690" stroke="#29a690"></path><path d="M743.4 1682L838.2 1684L835.2 1591Z" fill="#072b3a" stroke="#072b3a"></path><path d="M180.6 305L84.8 382L161.6 406Z" fill="#034757" stroke="#034757"></path><path d="M180.6 305L228.5 333L226.5 244Z" fill="#072b3a" stroke="#072b3a"></path><path d="M662.5 240L637.5 337L721.4 329Z" fill="#072b3a" stroke="#072b3a"></path><path d="M900 387L900 335L814.2 339Z" fill="#0d968b" stroke="#0d968b"></path><path d="M733.4 223L662.5 240L721.4 329Z" fill="#005664" stroke="#005664"></path><path d="M484.9 1771L559.7 1753L553.7 1696Z" fill="#006670" stroke="#006670"></path><path d="M553.7 1696L559.7 1753L638.5 1671Z" fill="#006670" stroke="#006670"></path><path d="M484.9 1771L553.7 1696L474.9 1695Z" fill="#0d968b" stroke="#0d968b"></path><path d="M733.4 223L721.4 329L836.2 257Z" fill="#071d2b" stroke="#071d2b"></path><path d="M329.3 1768L406.1 1752L324.3 1686Z" fill="#063848" stroke="#063848"></path><path d="M324.3 1686L406.1 1752L394.1 1670Z" fill="#071d2b" stroke="#071d2b"></path><path d="M329.3 1768L324.3 1686L227.5 1771Z" fill="#071d2b" stroke="#071d2b"></path><path d="M101.8 1671L169.6 1674L149.6 1596Z" fill="#00101c" stroke="#00101c"></path><path d="M838.2 1684L900 1669L835.2 1591Z" fill="#072b3a" stroke="#072b3a"></path><path d="M900 1748L900 1669L838.2 1684Z" fill="#063848" stroke="#063848"></path><path d="M671.5 1761L723.4 1740L638.5 1671Z" fill="#006670" stroke="#006670"></path><path d="M226.5 244L228.5 333L306.3 302Z" fill="#29a690" stroke="#29a690"></path><path d="M662.5 240L572.7 220L554.7 315Z" fill="#063848" stroke="#063848"></path><path d="M402.1 159L334.3 226L418.1 253Z" fill="#063848" stroke="#063848"></path><path d="M406.1 1752L484.9 1771L474.9 1695Z" fill="#072b3a" stroke="#072b3a"></path><path d="M559.7 1753L671.5 1761L638.5 1671Z" fill="#005664" stroke="#005664"></path><path d="M657.5 1827L671.5 1761L559.7 1753Z" fill="#006670" stroke="#006670"></path><path d="M723.4 1740L818.2 1769L743.4 1682Z" fill="#034757" stroke="#034757"></path><path d="M0 322L0 409L84.8 382Z" fill="#034757" stroke="#034757"></path><path d="M84.8 382L0 409L95.8 468Z" fill="#29a690" stroke="#29a690"></path><path d="M471.9 163L418.1 253L489.9 239Z" fill="#072b3a" stroke="#072b3a"></path><path d="M418.1 253L334.3 226L306.3 302Z" fill="#005664" stroke="#005664"></path><path d="M227.5 1771L324.3 1686L247.5 1661Z" fill="#0d968b" stroke="#0d968b"></path><path d="M416.1 1860L490.9 1841L484.9 1771Z" fill="#29a690" stroke="#29a690"></path><path d="M836.2 257L721.4 329L814.2 339Z" fill="#008684" stroke="#008684"></path><path d="M663.5 160L582.7 154L572.7 220Z" fill="#008684" stroke="#008684"></path><path d="M900 335L836.2 257L814.2 339Z" fill="#034757" stroke="#034757"></path><path d="M91.8 1599L101.8 1671L149.6 1596Z" fill="#00101c" stroke="#00101c"></path><path d="M169.6 1674L227.5 1771L247.5 1661Z" fill="#00101c" stroke="#00101c"></path><path d="M0 1604L101.8 1671L91.8 1599Z" fill="#008684" stroke="#008684"></path><path d="M0 1507L0 1604L62.8 1516Z" fill="#005664" stroke="#005664"></path><path d="M334.3 226L226.5 244L306.3 302Z" fill="#00101c" stroke="#00101c"></path><path d="M180.6 305L69.8 305L84.8 382Z" fill="#008684" stroke="#008684"></path><path d="M744.4 1822L723.4 1740L671.5 1761Z" fill="#072b3a" stroke="#072b3a"></path><path d="M744.4 1822L818.2 1769L723.4 1740Z" fill="#005664" stroke="#005664"></path><path d="M91.8 234L69.8 305L180.6 305Z" fill="#0d968b" stroke="#0d968b"></path><path d="M144.6 1762L227.5 1771L169.6 1674Z" fill="#00757b" stroke="#00757b"></path><path d="M490.9 1841L557.7 1829L484.9 1771Z" fill="#034757" stroke="#034757"></path><path d="M144.6 1762L169.6 1674L101.8 1671Z" fill="#005664" stroke="#005664"></path><path d="M582.7 154L471.9 163L572.7 220Z" fill="#006670" stroke="#006670"></path><path d="M572.7 220L471.9 163L489.9 239Z" fill="#072b3a" stroke="#072b3a"></path><path d="M231.5 140L181.6 226L226.5 244Z" fill="#29a690" stroke="#29a690"></path><path d="M484.9 1771L406.1 1752L416.1 1860Z" fill="#0d968b" stroke="#0d968b"></path><path d="M484.9 1771L557.7 1829L559.7 1753Z" fill="#008684" stroke="#008684"></path><path d="M818.2 1769L900 1748L838.2 1684Z" fill="#071d2b" stroke="#071d2b"></path><path d="M557.7 1829L657.5 1827L559.7 1753Z" fill="#00101c" stroke="#00101c"></path><path d="M818.2 1769L900 1822L900 1748Z" fill="#00757b" stroke="#00757b"></path><path d="M663.5 160L572.7 220L662.5 240Z" fill="#0d968b" stroke="#0d968b"></path><path d="M663.5 160L662.5 240L733.4 223Z" fill="#005664" stroke="#005664"></path><path d="M231.5 140L226.5 244L334.3 226Z" fill="#006670" stroke="#006670"></path><path d="M226.5 244L181.6 226L180.6 305Z" fill="#072b3a" stroke="#072b3a"></path><path d="M900 335L900 237L836.2 257Z" fill="#063848" stroke="#063848"></path><path d="M836.2 257L812.2 166L733.4 223Z" fill="#071d2b" stroke="#071d2b"></path><path d="M471.9 163L402.1 159L418.1 253Z" fill="#008684" stroke="#008684"></path><path d="M428.1 82L402.1 159L471.9 163Z" fill="#063848" stroke="#063848"></path><path d="M732.4 142L663.5 160L733.4 223Z" fill="#063848" stroke="#063848"></path><path d="M416.1 1860L406.1 1752L329.3 1768Z" fill="#0d968b" stroke="#0d968b"></path><path d="M557.7 1829L653.5 1931L657.5 1827Z" fill="#0d968b" stroke="#0d968b"></path><path d="M802.2 1843L744.4 1822L738.4 1930Z" fill="#00101c" stroke="#00101c"></path><path d="M657.5 1827L744.4 1822L671.5 1761Z" fill="#072b3a" stroke="#072b3a"></path><path d="M0 226L0 322L69.8 305Z" fill="#00101c" stroke="#00101c"></path><path d="M69.8 305L0 322L84.8 382Z" fill="#00101c" stroke="#00101c"></path><path d="M65.8 1780L144.6 1762L101.8 1671Z" fill="#071d2b" stroke="#071d2b"></path><path d="M258.5 1837L315.3 1831L329.3 1768Z" fill="#008684" stroke="#008684"></path><path d="M402.1 159L334.3 155L334.3 226Z" fill="#072b3a" stroke="#072b3a"></path><path d="M347.3 75L334.3 155L402.1 159Z" fill="#00101c" stroke="#00101c"></path><path d="M258.5 1837L329.3 1768L227.5 1771Z" fill="#005664" stroke="#005664"></path><path d="M315.3 1831L416.1 1860L329.3 1768Z" fill="#008684" stroke="#008684"></path><path d="M490.9 1841L554.7 1933L557.7 1829Z" fill="#005664" stroke="#005664"></path><path d="M900 179L812.2 166L836.2 257Z" fill="#063848" stroke="#063848"></path><path d="M576.7 62L488.9 99L582.7 154Z" fill="#034757" stroke="#034757"></path><path d="M812.2 166L732.4 142L733.4 223Z" fill="#072b3a" stroke="#072b3a"></path><path d="M582.7 154L488.9 99L471.9 163Z" fill="#00101c" stroke="#00101c"></path><path d="M181.6 226L91.8 234L180.6 305Z" fill="#005664" stroke="#005664"></path><path d="M153.6 171L91.8 234L181.6 226Z" fill="#034757" stroke="#034757"></path><path d="M0 1604L0 1696L101.8 1671Z" fill="#072b3a" stroke="#072b3a"></path><path d="M153.6 1832L258.5 1837L227.5 1771Z" fill="#00757b" stroke="#00757b"></path><path d="M317.3 1910L404.1 1906L416.1 1860Z" fill="#072b3a" stroke="#072b3a"></path><path d="M153.6 1832L227.5 1771L144.6 1762Z" fill="#0d968b" stroke="#0d968b"></path><path d="M738.4 1930L744.4 1822L657.5 1827Z" fill="#00101c" stroke="#00101c"></path><path d="M744.4 1822L802.2 1843L818.2 1769Z" fill="#034757" stroke="#034757"></path><path d="M900 237L900 179L836.2 257Z" fill="#005664" stroke="#005664"></path><path d="M721.4 61L663.5 160L732.4 142Z" fill="#071d2b" stroke="#071d2b"></path><path d="M640.5 70L582.7 154L663.5 160Z" fill="#008684" stroke="#008684"></path><path d="M334.3 155L231.5 140L334.3 226Z" fill="#034757" stroke="#034757"></path><path d="M258.5 95L231.5 140L334.3 155Z" fill="#00757b" stroke="#00757b"></path><path d="M231.5 140L153.6 171L181.6 226Z" fill="#00757b" stroke="#00757b"></path><path d="M91.8 234L0 226L69.8 305Z" fill="#063848" stroke="#063848"></path><path d="M802.2 1843L900 1822L818.2 1769Z" fill="#00757b" stroke="#00757b"></path><path d="M0 1696L65.8 1780L101.8 1671Z" fill="#0d968b" stroke="#0d968b"></path><path d="M317.3 1910L416.1 1860L315.3 1831Z" fill="#072b3a" stroke="#072b3a"></path><path d="M83.8 1824L153.6 1832L144.6 1762Z" fill="#072b3a" stroke="#072b3a"></path><path d="M506.9 0L428.1 82L488.9 99Z" fill="#005664" stroke="#005664"></path><path d="M488.9 99L428.1 82L471.9 163Z" fill="#00757b" stroke="#00757b"></path><path d="M317.3 1910L315.3 1831L258.5 1837Z" fill="#072b3a" stroke="#072b3a"></path><path d="M416.1 1860L476.9 1923L490.9 1841Z" fill="#00757b" stroke="#00757b"></path><path d="M404.1 1906L476.9 1923L416.1 1860Z" fill="#071d2b" stroke="#071d2b"></path><path d="M802.2 1843L821.2 1911L900 1822Z" fill="#072b3a" stroke="#072b3a"></path><path d="M721.4 61L640.5 70L663.5 160Z" fill="#063848" stroke="#063848"></path><path d="M813.2 96L732.4 142L812.2 166Z" fill="#034757" stroke="#034757"></path><path d="M90.8 157L91.8 234L153.6 171Z" fill="#034757" stroke="#034757"></path><path d="M90.8 157L0 226L91.8 234Z" fill="#072b3a" stroke="#072b3a"></path><path d="M640.5 70L576.7 62L582.7 154Z" fill="#034757" stroke="#034757"></path><path d="M428.1 82L347.3 75L402.1 159Z" fill="#072b3a" stroke="#072b3a"></path><path d="M231.5 140L143.6 65L153.6 171Z" fill="#008684" stroke="#008684"></path><path d="M427.1 0L347.3 75L428.1 82Z" fill="#008684" stroke="#008684"></path><path d="M476.9 1923L554.7 1933L490.9 1841Z" fill="#0d968b" stroke="#0d968b"></path><path d="M229.5 1923L317.3 1910L258.5 1837Z" fill="#0d968b" stroke="#0d968b"></path><path d="M487.9 2000L554.7 1933L476.9 1923Z" fill="#0d968b" stroke="#0d968b"></path><path d="M487.9 2000L562.7 2000L554.7 1933Z" fill="#072b3a" stroke="#072b3a"></path><path d="M347.3 75L258.5 95L334.3 155Z" fill="#034757" stroke="#034757"></path><path d="M0 1829L83.8 1824L65.8 1780Z" fill="#006670" stroke="#006670"></path><path d="M65.8 1780L83.8 1824L144.6 1762Z" fill="#00101c" stroke="#00101c"></path><path d="M169.6 1912L229.5 1923L258.5 1837Z" fill="#005664" stroke="#005664"></path><path d="M900 179L813.2 96L812.2 166Z" fill="#00101c" stroke="#00101c"></path><path d="M0 1696L0 1776L65.8 1780Z" fill="#008684" stroke="#008684"></path><path d="M554.7 1933L653.5 1931L557.7 1829Z" fill="#29a690" stroke="#29a690"></path><path d="M143.6 65L90.8 157L153.6 171Z" fill="#034757" stroke="#034757"></path><path d="M813.2 96L721.4 61L732.4 142Z" fill="#071d2b" stroke="#071d2b"></path><path d="M580.7 0L506.9 0L576.7 62Z" fill="#072b3a" stroke="#072b3a"></path><path d="M716.4 2000L738.4 1930L653.5 1931Z" fill="#063848" stroke="#063848"></path><path d="M653.5 1931L738.4 1930L657.5 1827Z" fill="#063848" stroke="#063848"></path><path d="M738.4 1930L821.2 1911L802.2 1843Z" fill="#00101c" stroke="#00101c"></path><path d="M169.6 1912L153.6 1832L83.8 1824Z" fill="#071d2b" stroke="#071d2b"></path><path d="M169.6 1912L258.5 1837L153.6 1832Z" fill="#034757" stroke="#034757"></path><path d="M487.9 2000L476.9 1923L416.1 2000Z" fill="#005664" stroke="#005664"></path><path d="M827.2 2000L900 1907L821.2 1911Z" fill="#034757" stroke="#034757"></path><path d="M821.2 1911L900 1907L900 1822Z" fill="#29a690" stroke="#29a690"></path><path d="M61.8 1929L169.6 1912L83.8 1824Z" fill="#063848" stroke="#063848"></path><path d="M0 1776L0 1829L65.8 1780Z" fill="#29a690" stroke="#29a690"></path><path d="M63.8 99L0 157L90.8 157Z" fill="#008684" stroke="#008684"></path><path d="M90.8 157L0 157L0 226Z" fill="#071d2b" stroke="#071d2b"></path><path d="M580.7 0L576.7 62L640.5 70Z" fill="#072b3a" stroke="#072b3a"></path><path d="M576.7 62L506.9 0L488.9 99Z" fill="#0d968b" stroke="#0d968b"></path><path d="M347.3 75L249.5 0L258.5 95Z" fill="#005664" stroke="#005664"></path><path d="M258.5 95L143.6 65L231.5 140Z" fill="#034757" stroke="#034757"></path><path d="M653.5 0L580.7 0L640.5 70Z" fill="#00101c" stroke="#00101c"></path><path d="M653.5 0L640.5 70L721.4 61Z" fill="#006670" stroke="#006670"></path><path d="M506.9 0L427.1 0L428.1 82Z" fill="#005664" stroke="#005664"></path><path d="M745.4 0L653.5 0L721.4 61Z" fill="#008684" stroke="#008684"></path><path d="M900 179L900 63L813.2 96Z" fill="#0d968b" stroke="#0d968b"></path><path d="M813.2 96L745.4 0L721.4 61Z" fill="#034757" stroke="#034757"></path><path d="M476.9 1923L404.1 1906L416.1 2000Z" fill="#0d968b" stroke="#0d968b"></path><path d="M554.7 1933L638.5 2000L653.5 1931Z" fill="#00757b" stroke="#00757b"></path><path d="M738.4 1930L827.2 2000L821.2 1911Z" fill="#063848" stroke="#063848"></path><path d="M404.1 1906L345.3 2000L416.1 2000Z" fill="#063848" stroke="#063848"></path><path d="M404.1 1906L317.3 1910L345.3 2000Z" fill="#006670" stroke="#006670"></path><path d="M171.6 0L143.6 65L258.5 95Z" fill="#071d2b" stroke="#071d2b"></path><path d="M143.6 65L63.8 99L90.8 157Z" fill="#063848" stroke="#063848"></path><path d="M562.7 2000L638.5 2000L554.7 1933Z" fill="#034757" stroke="#034757"></path><path d="M345.3 2000L317.3 1910L224.5 2000Z" fill="#00757b" stroke="#00757b"></path><path d="M427.1 0L338.3 0L347.3 75Z" fill="#0d968b" stroke="#0d968b"></path><path d="M826.2 0L745.4 0L813.2 96Z" fill="#034757" stroke="#034757"></path><path d="M224.5 2000L229.5 1923L159.6 2000Z" fill="#071d2b" stroke="#071d2b"></path><path d="M224.5 2000L317.3 1910L229.5 1923Z" fill="#0d968b" stroke="#0d968b"></path><path d="M638.5 2000L716.4 2000L653.5 1931Z" fill="#063848" stroke="#063848"></path><path d="M338.3 0L249.5 0L347.3 75Z" fill="#071d2b" stroke="#071d2b"></path><path d="M89.8 0L0 62L63.8 99Z" fill="#005664" stroke="#005664"></path><path d="M900 63L826.2 0L813.2 96Z" fill="#00101c" stroke="#00101c"></path><path d="M0 1909L61.8 1929L83.8 1824Z" fill="#00757b" stroke="#00757b"></path><path d="M716.4 2000L827.2 2000L738.4 1930Z" fill="#071d2b" stroke="#071d2b"></path><path d="M159.6 2000L229.5 1923L169.6 1912Z" fill="#0d968b" stroke="#0d968b"></path><path d="M0 1829L0 1909L83.8 1824Z" fill="#072b3a" stroke="#072b3a"></path><path d="M98.8 2000L159.6 2000L169.6 1912Z" fill="#00101c" stroke="#00101c"></path><path d="M249.5 0L171.6 0L258.5 95Z" fill="#006670" stroke="#006670"></path><path d="M63.8 99L0 62L0 157Z" fill="#006670" stroke="#006670"></path><path d="M900 63L900 0L826.2 0Z" fill="#063848" stroke="#063848"></path><path d="M98.8 2000L169.6 1912L61.8 1929Z" fill="#0d968b" stroke="#0d968b"></path><path d="M827.2 2000L900 2000L900 1907Z" fill="#008684" stroke="#008684"></path><path d="M89.8 0L63.8 99L143.6 65Z" fill="#006670" stroke="#006670"></path><path d="M171.6 0L89.8 0L143.6 65Z" fill="#034757" stroke="#034757"></path><path d="M0 2000L98.8 2000L61.8 1929Z" fill="#008684" stroke="#008684"></path><path d="M89.8 0L0 0L0 62Z" fill="#29a690" stroke="#29a690"></path><path d="M0 1909L0 2000L61.8 1929Z" fill="#034757" stroke="#034757"></path></g></svg>