<svg id="visual" viewBox="0 0 900 600" width="900" height="600" xmlns="http://www.w3.org/2000/svg" xmlns:xlink="http://www.w3.org/1999/xlink" version="1.1"><g stroke-width="1" stroke-linejoin="bevel"><path d="M480.9 296L420.1 280L424.1 357Z" fill="#1d4e6b" stroke="#1d4e6b"></path><path d="M424.1 357L497.9 372L480.9 296Z" fill="#205a7a" stroke="#205a7a"></path><path d="M552.7 303L505.9 234L480.9 296Z" fill="#246688" stroke="#246688"></path><path d="M480.9 296L505.9 234L420.1 280Z" fill="#1d4e6b" stroke="#1d4e6b"></path><path d="M497.9 372L552.7 303L480.9 296Z" fill="#15384f" stroke="#15384f"></path><path d="M318.3 292L347.3 381L424.1 357Z" fill="#297ea6" stroke="#297ea6"></path><path d="M424.1 357L476.9 442L497.9 372Z" fill="#205a7a" stroke="#205a7a"></path><path d="M505.9 234L395.1 204L420.1 280Z" fill="#0c2435" stroke="#0c2435"></path><path d="M420.1 280L318.3 292L424.1 357Z" fill="#19435d" stroke="#19435d"></path><path d="M395.1 204L318.3 292L420.1 280Z" fill="#15384f" stroke="#15384f"></path><path d="M418.1 464L476.9 442L424.1 357Z" fill="#1d4e6b" stroke="#1d4e6b"></path><path d="M497.9 372L577.7 378L552.7 303Z" fill="#00101c" stroke="#00101c"></path><path d="M554.7 431L577.7 378L497.9 372Z" fill="#0c2435" stroke="#0c2435"></path><path d="M347.3 381L418.1 464L424.1 357Z" fill="#205a7a" stroke="#205a7a"></path><path d="M395.1 204L306.3 241L318.3 292Z" fill="#277297" stroke="#277297"></path><path d="M476.9 442L554.7 431L497.9 372Z" fill="#277297" stroke="#277297"></path><path d="M493.9 515L554.7 431L476.9 442Z" fill="#0c2435" stroke="#0c2435"></path><path d="M660.5 291L575.7 225L552.7 303Z" fill="#0c2435" stroke="#0c2435"></path><path d="M552.7 303L575.7 225L505.9 234Z" fill="#00101c" stroke="#00101c"></path><path d="M505.9 234L473.9 151L395.1 204Z" fill="#246688" stroke="#246688"></path><path d="M567.7 161L473.9 151L505.9 234Z" fill="#112e42" stroke="#112e42"></path><path d="M395.1 204L329.3 132L306.3 241Z" fill="#081a28" stroke="#081a28"></path><path d="M473.9 151L416.1 140L395.1 204Z" fill="#081a28" stroke="#081a28"></path><path d="M242.5 450L314.3 454L347.3 381Z" fill="#1d4e6b" stroke="#1d4e6b"></path><path d="M347.3 381L314.3 454L418.1 464Z" fill="#00101c" stroke="#00101c"></path><path d="M253.5 318L347.3 381L318.3 292Z" fill="#205a7a" stroke="#205a7a"></path><path d="M306.3 241L253.5 318L318.3 292Z" fill="#0c2435" stroke="#0c2435"></path><path d="M644.5 468L636.5 356L577.7 378Z" fill="#297ea6" stroke="#297ea6"></path><path d="M577.7 378L636.5 356L552.7 303Z" fill="#081a28" stroke="#081a28"></path><path d="M575.7 225L567.7 161L505.9 234Z" fill="#112e42" stroke="#112e42"></path><path d="M476.9 63L402.1 66L416.1 140Z" fill="#0c2435" stroke="#0c2435"></path><path d="M640.5 169L567.7 161L575.7 225Z" fill="#00101c" stroke="#00101c"></path><path d="M415.1 544L493.9 515L418.1 464Z" fill="#205a7a" stroke="#205a7a"></path><path d="M418.1 464L493.9 515L476.9 442Z" fill="#1d4e6b" stroke="#1d4e6b"></path><path d="M554.7 431L644.5 468L577.7 378Z" fill="#19435d" stroke="#19435d"></path><path d="M416.1 140L329.3 132L395.1 204Z" fill="#112e42" stroke="#112e42"></path><path d="M306.3 241L229.5 231L253.5 318Z" fill="#277297" stroke="#277297"></path><path d="M177.6 312L227.5 355L253.5 318Z" fill="#15384f" stroke="#15384f"></path><path d="M253.5 318L227.5 355L347.3 381Z" fill="#00101c" stroke="#00101c"></path><path d="M636.5 356L660.5 291L552.7 303Z" fill="#15384f" stroke="#15384f"></path><path d="M660.5 291L643.5 213L575.7 225Z" fill="#15384f" stroke="#15384f"></path><path d="M321.3 542L415.1 544L418.1 464Z" fill="#081a28" stroke="#081a28"></path><path d="M239.5 142L229.5 231L306.3 241Z" fill="#081a28" stroke="#081a28"></path><path d="M227.5 355L242.5 450L347.3 381Z" fill="#277297" stroke="#277297"></path><path d="M314.3 454L321.3 542L418.1 464Z" fill="#205a7a" stroke="#205a7a"></path><path d="M723.4 166L640.5 169L643.5 213Z" fill="#081a28" stroke="#081a28"></path><path d="M643.5 213L640.5 169L575.7 225Z" fill="#112e42" stroke="#112e42"></path><path d="M476.9 63L416.1 140L473.9 151Z" fill="#0c2435" stroke="#0c2435"></path><path d="M592.7 538L554.7 431L493.9 515Z" fill="#00101c" stroke="#00101c"></path><path d="M592.7 538L644.5 468L554.7 431Z" fill="#246688" stroke="#246688"></path><path d="M636.5 356L737.4 311L660.5 291Z" fill="#19435d" stroke="#19435d"></path><path d="M476.9 63L473.9 151L559.7 70Z" fill="#15384f" stroke="#15384f"></path><path d="M416.1 140L402.1 66L329.3 132Z" fill="#277297" stroke="#277297"></path><path d="M254.5 538L321.3 542L314.3 454Z" fill="#081a28" stroke="#081a28"></path><path d="M559.7 70L473.9 151L567.7 161Z" fill="#205a7a" stroke="#205a7a"></path><path d="M229.5 231L177.6 312L253.5 318Z" fill="#19435d" stroke="#19435d"></path><path d="M227.5 355L178.6 379L242.5 450Z" fill="#19435d" stroke="#19435d"></path><path d="M570.7 600L592.7 538L493.9 515Z" fill="#1d4e6b" stroke="#1d4e6b"></path><path d="M259.5 77L239.5 142L329.3 132Z" fill="#246688" stroke="#246688"></path><path d="M329.3 132L239.5 142L306.3 241Z" fill="#15384f" stroke="#15384f"></path><path d="M229.5 231L150.6 212L177.6 312Z" fill="#297ea6" stroke="#297ea6"></path><path d="M177.6 312L178.6 379L227.5 355Z" fill="#297ea6" stroke="#297ea6"></path><path d="M242.5 450L254.5 538L314.3 454Z" fill="#19435d" stroke="#19435d"></path><path d="M655.5 95L559.7 70L567.7 161Z" fill="#1d4e6b" stroke="#1d4e6b"></path><path d="M402.1 66L329.3 60L329.3 132Z" fill="#277297" stroke="#277297"></path><path d="M404.1 0L329.3 60L402.1 66Z" fill="#297ea6" stroke="#297ea6"></path><path d="M339.3 600L415.1 600L415.1 544Z" fill="#112e42" stroke="#112e42"></path><path d="M415.1 544L477.9 600L493.9 515Z" fill="#112e42" stroke="#112e42"></path><path d="M415.1 600L477.9 600L415.1 544Z" fill="#246688" stroke="#246688"></path><path d="M152.6 530L254.5 538L242.5 450Z" fill="#277297" stroke="#277297"></path><path d="M321.3 542L339.3 600L415.1 544Z" fill="#15384f" stroke="#15384f"></path><path d="M754.4 370L737.4 311L636.5 356Z" fill="#205a7a" stroke="#205a7a"></path><path d="M660.5 291L747.4 242L643.5 213Z" fill="#297ea6" stroke="#297ea6"></path><path d="M265.5 600L339.3 600L321.3 542Z" fill="#246688" stroke="#246688"></path><path d="M329.3 60L259.5 77L329.3 132Z" fill="#081a28" stroke="#081a28"></path><path d="M174.6 149L150.6 212L229.5 231Z" fill="#205a7a" stroke="#205a7a"></path><path d="M723.4 166L655.5 95L640.5 169Z" fill="#112e42" stroke="#112e42"></path><path d="M640.5 169L655.5 95L567.7 161Z" fill="#15384f" stroke="#15384f"></path><path d="M592.7 538L658.5 538L644.5 468Z" fill="#205a7a" stroke="#205a7a"></path><path d="M644.5 468L730.4 437L636.5 356Z" fill="#081a28" stroke="#081a28"></path><path d="M646.5 600L658.5 538L592.7 538Z" fill="#15384f" stroke="#15384f"></path><path d="M477.9 600L570.7 600L493.9 515Z" fill="#112e42" stroke="#112e42"></path><path d="M174.6 149L229.5 231L239.5 142Z" fill="#081a28" stroke="#081a28"></path><path d="M93.8 435L149.6 439L178.6 379Z" fill="#246688" stroke="#246688"></path><path d="M721.4 538L730.4 437L644.5 468Z" fill="#1d4e6b" stroke="#1d4e6b"></path><path d="M737.4 311L747.4 242L660.5 291Z" fill="#00101c" stroke="#00101c"></path><path d="M817.2 223L747.4 242L831.2 293Z" fill="#297ea6" stroke="#297ea6"></path><path d="M730.4 437L754.4 370L636.5 356Z" fill="#246688" stroke="#246688"></path><path d="M163.6 81L174.6 149L239.5 142Z" fill="#15384f" stroke="#15384f"></path><path d="M79.8 354L178.6 379L177.6 312Z" fill="#081a28" stroke="#081a28"></path><path d="M178.6 379L149.6 439L242.5 450Z" fill="#0c2435" stroke="#0c2435"></path><path d="M747.4 242L723.4 166L643.5 213Z" fill="#246688" stroke="#246688"></path><path d="M493.9 0L404.1 0L476.9 63Z" fill="#0c2435" stroke="#0c2435"></path><path d="M476.9 63L404.1 0L402.1 66Z" fill="#081a28" stroke="#081a28"></path><path d="M329.3 60L265.5 0L259.5 77Z" fill="#081a28" stroke="#081a28"></path><path d="M493.9 0L476.9 63L559.7 70Z" fill="#1d4e6b" stroke="#1d4e6b"></path><path d="M563.7 0L493.9 0L559.7 70Z" fill="#15384f" stroke="#15384f"></path><path d="M154.6 600L265.5 600L254.5 538Z" fill="#277297" stroke="#277297"></path><path d="M254.5 538L265.5 600L321.3 542Z" fill="#1d4e6b" stroke="#1d4e6b"></path><path d="M404.1 0L328.3 0L329.3 60Z" fill="#297ea6" stroke="#297ea6"></path><path d="M259.5 77L163.6 81L239.5 142Z" fill="#297ea6" stroke="#297ea6"></path><path d="M666.5 0L563.7 0L559.7 70Z" fill="#1d4e6b" stroke="#1d4e6b"></path><path d="M570.7 600L646.5 600L592.7 538Z" fill="#277297" stroke="#277297"></path><path d="M658.5 538L721.4 538L644.5 468Z" fill="#277297" stroke="#277297"></path><path d="M646.5 600L721.4 538L658.5 538Z" fill="#00101c" stroke="#00101c"></path><path d="M826.2 467L806.2 361L754.4 370Z" fill="#112e42" stroke="#112e42"></path><path d="M149.6 439L152.6 530L242.5 450Z" fill="#081a28" stroke="#081a28"></path><path d="M328.3 0L265.5 0L329.3 60Z" fill="#00101c" stroke="#00101c"></path><path d="M86.8 242L177.6 312L150.6 212Z" fill="#0c2435" stroke="#0c2435"></path><path d="M86.8 242L79.8 294L177.6 312Z" fill="#297ea6" stroke="#297ea6"></path><path d="M149.6 439L84.8 509L152.6 530Z" fill="#246688" stroke="#246688"></path><path d="M86.8 242L150.6 212L61.8 157Z" fill="#205a7a" stroke="#205a7a"></path><path d="M61.8 157L150.6 212L174.6 149Z" fill="#205a7a" stroke="#205a7a"></path><path d="M79.8 294L79.8 354L177.6 312Z" fill="#277297" stroke="#277297"></path><path d="M265.5 0L163.6 81L259.5 77Z" fill="#246688" stroke="#246688"></path><path d="M826.2 467L754.4 370L730.4 437Z" fill="#0c2435" stroke="#0c2435"></path><path d="M754.4 370L806.2 361L737.4 311Z" fill="#277297" stroke="#277297"></path><path d="M828.2 142L728.4 61L723.4 166Z" fill="#277297" stroke="#277297"></path><path d="M79.8 354L93.8 435L178.6 379Z" fill="#19435d" stroke="#19435d"></path><path d="M723.4 166L728.4 61L655.5 95Z" fill="#0c2435" stroke="#0c2435"></path><path d="M655.5 95L666.5 0L559.7 70Z" fill="#15384f" stroke="#15384f"></path><path d="M817.2 223L723.4 166L747.4 242Z" fill="#112e42" stroke="#112e42"></path><path d="M831.2 293L747.4 242L737.4 311Z" fill="#297ea6" stroke="#297ea6"></path><path d="M728.4 61L666.5 0L655.5 95Z" fill="#0c2435" stroke="#0c2435"></path><path d="M806.2 361L831.2 293L737.4 311Z" fill="#19435d" stroke="#19435d"></path><path d="M74.8 600L154.6 600L152.6 530Z" fill="#081a28" stroke="#081a28"></path><path d="M152.6 530L154.6 600L254.5 538Z" fill="#081a28" stroke="#081a28"></path><path d="M0 446L84.8 509L93.8 435Z" fill="#112e42" stroke="#112e42"></path><path d="M93.8 435L84.8 509L149.6 439Z" fill="#15384f" stroke="#15384f"></path><path d="M646.5 600L739.4 600L721.4 538Z" fill="#205a7a" stroke="#205a7a"></path><path d="M812.2 524L826.2 467L730.4 437Z" fill="#1d4e6b" stroke="#1d4e6b"></path><path d="M900 362L900 314L831.2 293Z" fill="#297ea6" stroke="#297ea6"></path><path d="M812.2 524L730.4 437L721.4 538Z" fill="#112e42" stroke="#112e42"></path><path d="M86.8 242L0 295L79.8 294Z" fill="#112e42" stroke="#112e42"></path><path d="M79.8 294L0 295L79.8 354Z" fill="#205a7a" stroke="#205a7a"></path><path d="M79.8 354L0 366L93.8 435Z" fill="#00101c" stroke="#00101c"></path><path d="M163.6 81L61.8 157L174.6 149Z" fill="#277297" stroke="#277297"></path><path d="M62.8 62L61.8 157L163.6 81Z" fill="#205a7a" stroke="#205a7a"></path><path d="M739.4 600L812.2 524L721.4 538Z" fill="#15384f" stroke="#15384f"></path><path d="M817.2 223L828.2 142L723.4 166Z" fill="#00101c" stroke="#00101c"></path><path d="M728.4 61L724.4 0L666.5 0Z" fill="#1d4e6b" stroke="#1d4e6b"></path><path d="M900 215L828.2 142L817.2 223Z" fill="#1d4e6b" stroke="#1d4e6b"></path><path d="M829.2 0L724.4 0L728.4 61Z" fill="#246688" stroke="#246688"></path><path d="M265.5 0L149.6 0L163.6 81Z" fill="#205a7a" stroke="#205a7a"></path><path d="M0 221L0 295L86.8 242Z" fill="#15384f" stroke="#15384f"></path><path d="M0 295L0 366L79.8 354Z" fill="#246688" stroke="#246688"></path><path d="M61.8 157L0 221L86.8 242Z" fill="#112e42" stroke="#112e42"></path><path d="M0 140L0 221L61.8 157Z" fill="#15384f" stroke="#15384f"></path><path d="M900 362L831.2 293L806.2 361Z" fill="#277297" stroke="#277297"></path><path d="M831.2 293L900 215L817.2 223Z" fill="#19435d" stroke="#19435d"></path><path d="M900 362L806.2 361L826.2 467Z" fill="#297ea6" stroke="#297ea6"></path><path d="M149.6 0L62.8 62L163.6 81Z" fill="#1d4e6b" stroke="#1d4e6b"></path><path d="M900 459L900 362L826.2 467Z" fill="#297ea6" stroke="#297ea6"></path><path d="M0 366L0 446L93.8 435Z" fill="#081a28" stroke="#081a28"></path><path d="M84.8 509L74.8 600L152.6 530Z" fill="#112e42" stroke="#112e42"></path><path d="M739.4 600L809.2 600L812.2 524Z" fill="#205a7a" stroke="#205a7a"></path><path d="M900 529L900 459L826.2 467Z" fill="#205a7a" stroke="#205a7a"></path><path d="M0 539L74.8 600L84.8 509Z" fill="#297ea6" stroke="#297ea6"></path><path d="M900 314L900 215L831.2 293Z" fill="#297ea6" stroke="#297ea6"></path><path d="M828.2 142L836.2 60L728.4 61Z" fill="#246688" stroke="#246688"></path><path d="M900 90L836.2 60L828.2 142Z" fill="#1d4e6b" stroke="#1d4e6b"></path><path d="M62.8 62L0 140L61.8 157Z" fill="#297ea6" stroke="#297ea6"></path><path d="M900 529L826.2 467L812.2 524Z" fill="#277297" stroke="#277297"></path><path d="M149.6 0L66.8 0L62.8 62Z" fill="#112e42" stroke="#112e42"></path><path d="M62.8 62L0 72L0 140Z" fill="#112e42" stroke="#112e42"></path><path d="M900 215L900 135L828.2 142Z" fill="#297ea6" stroke="#297ea6"></path><path d="M0 446L0 539L84.8 509Z" fill="#205a7a" stroke="#205a7a"></path><path d="M900 0L829.2 0L836.2 60Z" fill="#112e42" stroke="#112e42"></path><path d="M836.2 60L829.2 0L728.4 61Z" fill="#1d4e6b" stroke="#1d4e6b"></path><path d="M809.2 600L900 529L812.2 524Z" fill="#15384f" stroke="#15384f"></path><path d="M0 0L0 72L62.8 62Z" fill="#0c2435" stroke="#0c2435"></path><path d="M900 135L900 90L828.2 142Z" fill="#0c2435" stroke="#0c2435"></path><path d="M0 539L0 600L74.8 600Z" fill="#246688" stroke="#246688"></path><path d="M809.2 600L900 600L900 529Z" fill="#246688" stroke="#246688"></path><path d="M66.8 0L0 0L62.8 62Z" fill="#297ea6" stroke="#297ea6"></path><path d="M900 90L900 0L836.2 60Z" fill="#081a28" stroke="#081a28"></path></g></svg>