<svg id="visual" viewBox="0 0 900 600" width="900" height="600" xmlns="http://www.w3.org/2000/svg" xmlns:xlink="http://www.w3.org/1999/xlink" version="1.1"><g stroke-width="1" stroke-linejoin="bevel"><path d="M427.1 279L489.9 220L405.1 230Z" fill="#19435d" stroke="#19435d"></path><path d="M427.1 279L492.9 291L489.9 220Z" fill="#205a7a" stroke="#205a7a"></path><path d="M552.7 233L488.9 166L489.9 220Z" fill="#00101c" stroke="#00101c"></path><path d="M489.9 220L488.9 166L405.1 230Z" fill="#15384f" stroke="#15384f"></path><path d="M488.9 166L391.1 165L405.1 230Z" fill="#277297" stroke="#277297"></path><path d="M492.9 291L552.7 233L489.9 220Z" fill="#19435d" stroke="#19435d"></path><path d="M325.3 307L415.1 364L427.1 279Z" fill="#1d4e6b" stroke="#1d4e6b"></path><path d="M427.1 279L479.9 369L492.9 291Z" fill="#081a28" stroke="#081a28"></path><path d="M325.3 307L427.1 279L405.1 230Z" fill="#246688" stroke="#246688"></path><path d="M415.1 364L479.9 369L427.1 279Z" fill="#246688" stroke="#246688"></path><path d="M492.9 291L574.7 318L552.7 233Z" fill="#277297" stroke="#277297"></path><path d="M391.1 165L310.3 240L405.1 230Z" fill="#112e42" stroke="#112e42"></path><path d="M310.3 240L325.3 307L405.1 230Z" fill="#19435d" stroke="#19435d"></path><path d="M552.7 233L561.7 150L488.9 166Z" fill="#277297" stroke="#277297"></path><path d="M391.1 56L336.3 136L391.1 165Z" fill="#205a7a" stroke="#205a7a"></path><path d="M479.9 369L574.7 318L492.9 291Z" fill="#112e42" stroke="#112e42"></path><path d="M552.7 233L649.5 225L561.7 150Z" fill="#1d4e6b" stroke="#1d4e6b"></path><path d="M485.9 59L391.1 165L488.9 166Z" fill="#112e42" stroke="#112e42"></path><path d="M391.1 165L336.3 136L310.3 240Z" fill="#0c2435" stroke="#0c2435"></path><path d="M325.3 307L346.3 378L415.1 364Z" fill="#15384f" stroke="#15384f"></path><path d="M415.1 364L396.1 438L479.9 369Z" fill="#15384f" stroke="#15384f"></path><path d="M561.7 150L485.9 59L488.9 166Z" fill="#205a7a" stroke="#205a7a"></path><path d="M485.9 59L391.1 56L391.1 165Z" fill="#112e42" stroke="#112e42"></path><path d="M391.1 56L330.3 84L336.3 136Z" fill="#0c2435" stroke="#0c2435"></path><path d="M245.5 219L260.5 297L310.3 240Z" fill="#297ea6" stroke="#297ea6"></path><path d="M310.3 240L260.5 297L325.3 307Z" fill="#277297" stroke="#277297"></path><path d="M325.3 307L260.5 386L346.3 378Z" fill="#15384f" stroke="#15384f"></path><path d="M245.5 219L310.3 240L259.5 143Z" fill="#277297" stroke="#277297"></path><path d="M652.5 296L649.5 225L552.7 233Z" fill="#0c2435" stroke="#0c2435"></path><path d="M561.7 150L567.7 70L485.9 59Z" fill="#081a28" stroke="#081a28"></path><path d="M479.9 369L586.7 390L574.7 318Z" fill="#15384f" stroke="#15384f"></path><path d="M574.7 318L652.5 296L552.7 233Z" fill="#19435d" stroke="#19435d"></path><path d="M574.7 459L586.7 390L479.9 369Z" fill="#00101c" stroke="#00101c"></path><path d="M259.5 143L310.3 240L336.3 136Z" fill="#19435d" stroke="#19435d"></path><path d="M341.3 450L396.1 438L346.3 378Z" fill="#19435d" stroke="#19435d"></path><path d="M346.3 378L396.1 438L415.1 364Z" fill="#00101c" stroke="#00101c"></path><path d="M669.5 145L567.7 70L561.7 150Z" fill="#0c2435" stroke="#0c2435"></path><path d="M586.7 390L652.5 296L574.7 318Z" fill="#081a28" stroke="#081a28"></path><path d="M330.3 84L259.5 143L336.3 136Z" fill="#1d4e6b" stroke="#1d4e6b"></path><path d="M396.1 438L476.9 458L479.9 369Z" fill="#1d4e6b" stroke="#1d4e6b"></path><path d="M260.5 386L341.3 450L346.3 378Z" fill="#205a7a" stroke="#205a7a"></path><path d="M396.1 438L429.1 521L476.9 458Z" fill="#00101c" stroke="#00101c"></path><path d="M260.5 297L260.5 386L325.3 307Z" fill="#081a28" stroke="#081a28"></path><path d="M169.6 308L260.5 386L260.5 297Z" fill="#1d4e6b" stroke="#1d4e6b"></path><path d="M737.4 162L669.5 145L649.5 225Z" fill="#297ea6" stroke="#297ea6"></path><path d="M649.5 225L669.5 145L561.7 150Z" fill="#246688" stroke="#246688"></path><path d="M583.7 0L485.9 59L567.7 70Z" fill="#297ea6" stroke="#297ea6"></path><path d="M583.7 0L479.9 0L485.9 59Z" fill="#0c2435" stroke="#0c2435"></path><path d="M485.9 59L479.9 0L391.1 56Z" fill="#246688" stroke="#246688"></path><path d="M391.1 56L307.3 0L330.3 84Z" fill="#19435d" stroke="#19435d"></path><path d="M479.9 0L396.1 0L391.1 56Z" fill="#1d4e6b" stroke="#1d4e6b"></path><path d="M330.3 84L238.5 82L259.5 143Z" fill="#205a7a" stroke="#205a7a"></path><path d="M476.9 458L574.7 459L479.9 369Z" fill="#1d4e6b" stroke="#1d4e6b"></path><path d="M586.7 390L667.5 394L652.5 296Z" fill="#081a28" stroke="#081a28"></path><path d="M307.3 0L238.5 82L330.3 84Z" fill="#0c2435" stroke="#0c2435"></path><path d="M177.6 151L173.6 222L245.5 219Z" fill="#0c2435" stroke="#0c2435"></path><path d="M649.5 432L667.5 394L586.7 390Z" fill="#246688" stroke="#246688"></path><path d="M652.5 296L722.4 302L649.5 225Z" fill="#246688" stroke="#246688"></path><path d="M640.5 0L583.7 0L567.7 70Z" fill="#15384f" stroke="#15384f"></path><path d="M669.5 145L662.5 65L567.7 70Z" fill="#112e42" stroke="#112e42"></path><path d="M177.6 151L245.5 219L259.5 143Z" fill="#277297" stroke="#277297"></path><path d="M245.5 219L173.6 222L260.5 297Z" fill="#1d4e6b" stroke="#1d4e6b"></path><path d="M574.7 459L649.5 432L586.7 390Z" fill="#246688" stroke="#246688"></path><path d="M396.1 0L307.3 0L391.1 56Z" fill="#297ea6" stroke="#297ea6"></path><path d="M724.4 385L722.4 302L667.5 394Z" fill="#00101c" stroke="#00101c"></path><path d="M667.5 394L722.4 302L652.5 296Z" fill="#00101c" stroke="#00101c"></path><path d="M669.5 145L723.4 55L662.5 65Z" fill="#1d4e6b" stroke="#1d4e6b"></path><path d="M168.6 384L251.5 439L260.5 386Z" fill="#19435d" stroke="#19435d"></path><path d="M260.5 386L251.5 439L341.3 450Z" fill="#00101c" stroke="#00101c"></path><path d="M343.3 531L396.1 438L341.3 450Z" fill="#297ea6" stroke="#297ea6"></path><path d="M343.3 531L429.1 521L396.1 438Z" fill="#112e42" stroke="#112e42"></path><path d="M476.9 458L504.9 540L574.7 459Z" fill="#00101c" stroke="#00101c"></path><path d="M574.7 459L647.5 520L649.5 432Z" fill="#00101c" stroke="#00101c"></path><path d="M238.5 82L177.6 151L259.5 143Z" fill="#112e42" stroke="#112e42"></path><path d="M171.6 86L177.6 151L238.5 82Z" fill="#277297" stroke="#277297"></path><path d="M173.6 222L169.6 308L260.5 297Z" fill="#277297" stroke="#277297"></path><path d="M722.4 302L741.4 230L649.5 225Z" fill="#19435d" stroke="#19435d"></path><path d="M741.4 230L737.4 162L649.5 225Z" fill="#112e42" stroke="#112e42"></path><path d="M429.1 521L504.9 540L476.9 458Z" fill="#1d4e6b" stroke="#1d4e6b"></path><path d="M662.5 65L640.5 0L567.7 70Z" fill="#1d4e6b" stroke="#1d4e6b"></path><path d="M731.4 0L640.5 0L662.5 65Z" fill="#1d4e6b" stroke="#1d4e6b"></path><path d="M251.5 509L343.3 531L341.3 450Z" fill="#00101c" stroke="#00101c"></path><path d="M429.1 521L485.9 600L504.9 540Z" fill="#205a7a" stroke="#205a7a"></path><path d="M743.4 454L724.4 385L667.5 394Z" fill="#15384f" stroke="#15384f"></path><path d="M824.2 284L822.2 242L741.4 230Z" fill="#081a28" stroke="#081a28"></path><path d="M743.4 454L667.5 394L649.5 432Z" fill="#00101c" stroke="#00101c"></path><path d="M169.6 308L168.6 384L260.5 386Z" fill="#277297" stroke="#277297"></path><path d="M251.5 439L251.5 509L341.3 450Z" fill="#205a7a" stroke="#205a7a"></path><path d="M177.6 151L92.8 162L173.6 222Z" fill="#00101c" stroke="#00101c"></path><path d="M173.6 222L77.8 231L169.6 308Z" fill="#246688" stroke="#246688"></path><path d="M169.6 308L80.8 320L168.6 384Z" fill="#297ea6" stroke="#297ea6"></path><path d="M178.6 0L171.6 86L238.5 82Z" fill="#277297" stroke="#277297"></path><path d="M307.3 0L227.5 0L238.5 82Z" fill="#19435d" stroke="#19435d"></path><path d="M737.4 162L723.4 55L669.5 145Z" fill="#15384f" stroke="#15384f"></path><path d="M504.9 540L588.7 542L574.7 459Z" fill="#00101c" stroke="#00101c"></path><path d="M147.6 460L251.5 509L251.5 439Z" fill="#297ea6" stroke="#297ea6"></path><path d="M588.7 542L647.5 520L574.7 459Z" fill="#277297" stroke="#277297"></path><path d="M227.5 0L178.6 0L238.5 82Z" fill="#00101c" stroke="#00101c"></path><path d="M504.9 540L582.7 600L588.7 542Z" fill="#205a7a" stroke="#205a7a"></path><path d="M588.7 542L646.5 600L647.5 520Z" fill="#19435d" stroke="#19435d"></path><path d="M410.1 600L485.9 600L429.1 521Z" fill="#205a7a" stroke="#205a7a"></path><path d="M410.1 600L429.1 521L343.3 531Z" fill="#246688" stroke="#246688"></path><path d="M321.3 600L410.1 600L343.3 531Z" fill="#112e42" stroke="#112e42"></path><path d="M719.4 518L743.4 454L649.5 432Z" fill="#297ea6" stroke="#297ea6"></path><path d="M824.2 284L741.4 230L722.4 302Z" fill="#00101c" stroke="#00101c"></path><path d="M83.8 62L92.8 162L171.6 86Z" fill="#205a7a" stroke="#205a7a"></path><path d="M171.6 86L92.8 162L177.6 151Z" fill="#081a28" stroke="#081a28"></path><path d="M821.2 136L723.4 55L737.4 162Z" fill="#15384f" stroke="#15384f"></path><path d="M814.2 0L731.4 0L723.4 55Z" fill="#205a7a" stroke="#205a7a"></path><path d="M723.4 55L731.4 0L662.5 65Z" fill="#00101c" stroke="#00101c"></path><path d="M92.8 162L77.8 231L173.6 222Z" fill="#1d4e6b" stroke="#1d4e6b"></path><path d="M824.2 284L722.4 302L825.2 365Z" fill="#15384f" stroke="#15384f"></path><path d="M741.4 230L822.2 242L737.4 162Z" fill="#277297" stroke="#277297"></path><path d="M168.6 384L147.6 460L251.5 439Z" fill="#00101c" stroke="#00101c"></path><path d="M258.5 600L321.3 600L343.3 531Z" fill="#277297" stroke="#277297"></path><path d="M83.8 448L147.6 460L168.6 384Z" fill="#277297" stroke="#277297"></path><path d="M77.8 231L80.8 320L169.6 308Z" fill="#081a28" stroke="#081a28"></path><path d="M825.2 365L722.4 302L724.4 385Z" fill="#00101c" stroke="#00101c"></path><path d="M258.5 600L343.3 531L251.5 509Z" fill="#1d4e6b" stroke="#1d4e6b"></path><path d="M485.9 600L582.7 600L504.9 540Z" fill="#15384f" stroke="#15384f"></path><path d="M647.5 520L719.4 518L649.5 432Z" fill="#00101c" stroke="#00101c"></path><path d="M822.2 242L821.2 136L737.4 162Z" fill="#112e42" stroke="#112e42"></path><path d="M829.2 78L821.2 136L900 164Z" fill="#1d4e6b" stroke="#1d4e6b"></path><path d="M715.4 600L719.4 518L647.5 520Z" fill="#112e42" stroke="#112e42"></path><path d="M743.4 454L825.2 365L724.4 385Z" fill="#00101c" stroke="#00101c"></path><path d="M832.2 452L825.2 365L743.4 454Z" fill="#246688" stroke="#246688"></path><path d="M72.8 507L151.6 506L147.6 460Z" fill="#112e42" stroke="#112e42"></path><path d="M147.6 460L151.6 506L251.5 509Z" fill="#19435d" stroke="#19435d"></path><path d="M92.8 162L0 209L77.8 231Z" fill="#081a28" stroke="#081a28"></path><path d="M96.8 0L83.8 62L171.6 86Z" fill="#112e42" stroke="#112e42"></path><path d="M0 374L70.8 391L80.8 320Z" fill="#277297" stroke="#277297"></path><path d="M80.8 320L70.8 391L168.6 384Z" fill="#297ea6" stroke="#297ea6"></path><path d="M0 319L80.8 320L77.8 231Z" fill="#112e42" stroke="#112e42"></path><path d="M165.6 600L258.5 600L251.5 509Z" fill="#112e42" stroke="#112e42"></path><path d="M582.7 600L646.5 600L588.7 542Z" fill="#205a7a" stroke="#205a7a"></path><path d="M900 213L821.2 136L822.2 242Z" fill="#205a7a" stroke="#205a7a"></path><path d="M821.2 136L829.2 78L723.4 55Z" fill="#277297" stroke="#277297"></path><path d="M900 213L822.2 242L900 307Z" fill="#1d4e6b" stroke="#1d4e6b"></path><path d="M70.8 391L83.8 448L168.6 384Z" fill="#15384f" stroke="#15384f"></path><path d="M151.6 506L165.6 600L251.5 509Z" fill="#297ea6" stroke="#297ea6"></path><path d="M178.6 0L96.8 0L171.6 86Z" fill="#277297" stroke="#277297"></path><path d="M829.2 78L814.2 0L723.4 55Z" fill="#297ea6" stroke="#297ea6"></path><path d="M809.2 512L832.2 452L743.4 454Z" fill="#112e42" stroke="#112e42"></path><path d="M900 307L822.2 242L824.2 284Z" fill="#246688" stroke="#246688"></path><path d="M809.2 512L743.4 454L719.4 518Z" fill="#297ea6" stroke="#297ea6"></path><path d="M646.5 600L715.4 600L647.5 520Z" fill="#205a7a" stroke="#205a7a"></path><path d="M0 148L92.8 162L83.8 62Z" fill="#00101c" stroke="#00101c"></path><path d="M0 148L0 209L92.8 162Z" fill="#00101c" stroke="#00101c"></path><path d="M0 442L72.8 507L83.8 448Z" fill="#297ea6" stroke="#297ea6"></path><path d="M808.2 600L809.2 512L719.4 518Z" fill="#112e42" stroke="#112e42"></path><path d="M900 307L824.2 284L825.2 365Z" fill="#1d4e6b" stroke="#1d4e6b"></path><path d="M829.2 78L900 62L814.2 0Z" fill="#297ea6" stroke="#297ea6"></path><path d="M900 382L900 307L825.2 365Z" fill="#205a7a" stroke="#205a7a"></path><path d="M900 382L825.2 365L832.2 452Z" fill="#15384f" stroke="#15384f"></path><path d="M0 209L0 319L77.8 231Z" fill="#277297" stroke="#277297"></path><path d="M900 213L900 164L821.2 136Z" fill="#1d4e6b" stroke="#1d4e6b"></path><path d="M0 82L0 148L83.8 62Z" fill="#277297" stroke="#277297"></path><path d="M72.8 507L147.6 460L83.8 448Z" fill="#0c2435" stroke="#0c2435"></path><path d="M79.8 600L165.6 600L151.6 506Z" fill="#19435d" stroke="#19435d"></path><path d="M0 442L83.8 448L70.8 391Z" fill="#112e42" stroke="#112e42"></path><path d="M0 319L0 374L80.8 320Z" fill="#246688" stroke="#246688"></path><path d="M900 452L900 382L832.2 452Z" fill="#1d4e6b" stroke="#1d4e6b"></path><path d="M0 0L0 82L83.8 62Z" fill="#0c2435" stroke="#0c2435"></path><path d="M900 164L900 62L829.2 78Z" fill="#297ea6" stroke="#297ea6"></path><path d="M0 374L0 442L70.8 391Z" fill="#246688" stroke="#246688"></path><path d="M72.8 507L79.8 600L151.6 506Z" fill="#246688" stroke="#246688"></path><path d="M900 510L832.2 452L809.2 512Z" fill="#19435d" stroke="#19435d"></path><path d="M900 510L900 452L832.2 452Z" fill="#297ea6" stroke="#297ea6"></path><path d="M715.4 600L808.2 600L719.4 518Z" fill="#0c2435" stroke="#0c2435"></path><path d="M96.8 0L0 0L83.8 62Z" fill="#00101c" stroke="#00101c"></path><path d="M900 62L900 0L814.2 0Z" fill="#112e42" stroke="#112e42"></path><path d="M0 534L79.8 600L72.8 507Z" fill="#0c2435" stroke="#0c2435"></path><path d="M900 600L900 510L809.2 512Z" fill="#00101c" stroke="#00101c"></path><path d="M0 442L0 534L72.8 507Z" fill="#00101c" stroke="#00101c"></path><path d="M0 534L0 600L79.8 600Z" fill="#246688" stroke="#246688"></path><path d="M808.2 600L900 600L809.2 512Z" fill="#112e42" stroke="#112e42"></path></g></svg>