<svg id="visual" viewBox="0 0 900 600" width="900" height="600" xmlns="http://www.w3.org/2000/svg" xmlns:xlink="http://www.w3.org/1999/xlink" version="1.1"><g stroke-width="1" stroke-linejoin="bevel"><path d="M478.9 317L414.1 383L493.9 380Z" fill="#006670" stroke="#006670"></path><path d="M414.1 383L428.1 434L493.9 380Z" fill="#0d968b" stroke="#0d968b"></path><path d="M478.9 317L388.1 293L414.1 383Z" fill="#00757b" stroke="#00757b"></path><path d="M414.1 383L337.3 438L428.1 434Z" fill="#063848" stroke="#063848"></path><path d="M428.1 434L490.9 448L493.9 380Z" fill="#00757b" stroke="#00757b"></path><path d="M388.1 293L342.3 373L414.1 383Z" fill="#034757" stroke="#034757"></path><path d="M490.9 448L571.7 365L493.9 380Z" fill="#005664" stroke="#005664"></path><path d="M493.9 380L571.7 365L478.9 317Z" fill="#034757" stroke="#034757"></path><path d="M582.7 317L482.9 236L478.9 317Z" fill="#008684" stroke="#008684"></path><path d="M478.9 317L482.9 236L388.1 293Z" fill="#00757b" stroke="#00757b"></path><path d="M341.3 204L339.3 290L388.1 293Z" fill="#005664" stroke="#005664"></path><path d="M388.1 293L339.3 290L342.3 373Z" fill="#00757b" stroke="#00757b"></path><path d="M571.7 365L582.7 317L478.9 317Z" fill="#0d968b" stroke="#0d968b"></path><path d="M256.5 458L337.3 438L232.5 388Z" fill="#29a690" stroke="#29a690"></path><path d="M342.3 373L337.3 438L414.1 383Z" fill="#034757" stroke="#034757"></path><path d="M428.1 434L493.9 512L490.9 448Z" fill="#063848" stroke="#063848"></path><path d="M482.9 236L400.1 207L388.1 293Z" fill="#063848" stroke="#063848"></path><path d="M392.1 538L493.9 512L428.1 434Z" fill="#071d2b" stroke="#071d2b"></path><path d="M490.9 448L587.7 462L571.7 365Z" fill="#0d968b" stroke="#0d968b"></path><path d="M570.7 516L587.7 462L490.9 448Z" fill="#072b3a" stroke="#072b3a"></path><path d="M571.7 365L662.5 389L582.7 317Z" fill="#071d2b" stroke="#071d2b"></path><path d="M582.7 317L561.7 205L482.9 236Z" fill="#29a690" stroke="#29a690"></path><path d="M486.9 129L410.1 139L400.1 207Z" fill="#005664" stroke="#005664"></path><path d="M400.1 207L341.3 204L388.1 293Z" fill="#034757" stroke="#034757"></path><path d="M326.3 158L341.3 204L400.1 207Z" fill="#0d968b" stroke="#0d968b"></path><path d="M256.5 458L335.3 506L337.3 438Z" fill="#071d2b" stroke="#071d2b"></path><path d="M337.3 438L335.3 506L428.1 434Z" fill="#29a690" stroke="#29a690"></path><path d="M335.3 506L392.1 538L428.1 434Z" fill="#0d968b" stroke="#0d968b"></path><path d="M510.9 600L570.7 516L493.9 512Z" fill="#006670" stroke="#006670"></path><path d="M493.9 512L570.7 516L490.9 448Z" fill="#072b3a" stroke="#072b3a"></path><path d="M258.5 230L250.5 309L339.3 290Z" fill="#00757b" stroke="#00757b"></path><path d="M339.3 290L250.5 309L342.3 373Z" fill="#072b3a" stroke="#072b3a"></path><path d="M658.5 468L662.5 389L587.7 462Z" fill="#072b3a" stroke="#072b3a"></path><path d="M587.7 462L662.5 389L571.7 365Z" fill="#008684" stroke="#008684"></path><path d="M582.7 317L658.5 280L561.7 205Z" fill="#00101c" stroke="#00101c"></path><path d="M662.5 389L658.5 280L582.7 317Z" fill="#063848" stroke="#063848"></path><path d="M232.5 388L337.3 438L342.3 373Z" fill="#29a690" stroke="#29a690"></path><path d="M486.9 129L400.1 207L482.9 236Z" fill="#008684" stroke="#008684"></path><path d="M250.5 309L232.5 388L342.3 373Z" fill="#072b3a" stroke="#072b3a"></path><path d="M563.7 149L486.9 129L561.7 205Z" fill="#29a690" stroke="#29a690"></path><path d="M561.7 205L486.9 129L482.9 236Z" fill="#00757b" stroke="#00757b"></path><path d="M326.3 158L258.5 230L341.3 204Z" fill="#072b3a" stroke="#072b3a"></path><path d="M341.3 204L258.5 230L339.3 290Z" fill="#0d968b" stroke="#0d968b"></path><path d="M166.6 361L177.6 433L232.5 388Z" fill="#071d2b" stroke="#071d2b"></path><path d="M635.5 510L658.5 468L587.7 462Z" fill="#0d968b" stroke="#0d968b"></path><path d="M657.5 146L563.7 149L561.7 205Z" fill="#29a690" stroke="#29a690"></path><path d="M410.1 139L326.3 158L400.1 207Z" fill="#006670" stroke="#006670"></path><path d="M570.7 516L635.5 510L587.7 462Z" fill="#00101c" stroke="#00101c"></path><path d="M589.7 600L635.5 510L570.7 516Z" fill="#071d2b" stroke="#071d2b"></path><path d="M314.3 600L429.1 600L392.1 538Z" fill="#072b3a" stroke="#072b3a"></path><path d="M392.1 538L429.1 600L493.9 512Z" fill="#071d2b" stroke="#071d2b"></path><path d="M314.3 600L392.1 538L335.3 506Z" fill="#008684" stroke="#008684"></path><path d="M429.1 600L510.9 600L493.9 512Z" fill="#006670" stroke="#006670"></path><path d="M715.4 316L672.5 224L658.5 280Z" fill="#00757b" stroke="#00757b"></path><path d="M658.5 280L672.5 224L561.7 205Z" fill="#29a690" stroke="#29a690"></path><path d="M715.4 316L658.5 280L662.5 389Z" fill="#063848" stroke="#063848"></path><path d="M739.4 376L715.4 316L662.5 389Z" fill="#071d2b" stroke="#071d2b"></path><path d="M554.7 85L486.9 129L563.7 149Z" fill="#072b3a" stroke="#072b3a"></path><path d="M554.7 85L481.9 85L486.9 129Z" fill="#072b3a" stroke="#072b3a"></path><path d="M486.9 129L481.9 85L410.1 139Z" fill="#034757" stroke="#034757"></path><path d="M410.1 139L342.3 80L326.3 158Z" fill="#072b3a" stroke="#072b3a"></path><path d="M177.6 433L240.5 531L256.5 458Z" fill="#0d968b" stroke="#0d968b"></path><path d="M256.5 458L240.5 531L335.3 506Z" fill="#008684" stroke="#008684"></path><path d="M510.9 600L589.7 600L570.7 516Z" fill="#00101c" stroke="#00101c"></path><path d="M748.4 444L662.5 389L658.5 468Z" fill="#034757" stroke="#034757"></path><path d="M240.5 531L314.3 600L335.3 506Z" fill="#29a690" stroke="#29a690"></path><path d="M258.5 69L256.5 152L326.3 158Z" fill="#071d2b" stroke="#071d2b"></path><path d="M326.3 158L256.5 152L258.5 230Z" fill="#034757" stroke="#034757"></path><path d="M166.6 361L232.5 388L250.5 309Z" fill="#0d968b" stroke="#0d968b"></path><path d="M166.6 361L250.5 309L157.6 284Z" fill="#071d2b" stroke="#071d2b"></path><path d="M232.5 388L177.6 433L256.5 458Z" fill="#29a690" stroke="#29a690"></path><path d="M157.6 284L250.5 309L258.5 230Z" fill="#008684" stroke="#008684"></path><path d="M748.4 444L739.4 376L662.5 389Z" fill="#29a690" stroke="#29a690"></path><path d="M748.4 444L658.5 468L732.4 515Z" fill="#034757" stroke="#034757"></path><path d="M642.5 84L554.7 85L563.7 149Z" fill="#00101c" stroke="#00101c"></path><path d="M423.1 0L396.1 72L481.9 85Z" fill="#072b3a" stroke="#072b3a"></path><path d="M481.9 85L396.1 72L410.1 139Z" fill="#00101c" stroke="#00101c"></path><path d="M736.4 204L657.5 146L672.5 224Z" fill="#006670" stroke="#006670"></path><path d="M672.5 224L657.5 146L561.7 205Z" fill="#0d968b" stroke="#0d968b"></path><path d="M736.4 204L672.5 224L715.4 316Z" fill="#00101c" stroke="#00101c"></path><path d="M396.1 72L342.3 80L410.1 139Z" fill="#034757" stroke="#034757"></path><path d="M153.6 245L157.6 284L258.5 230Z" fill="#00757b" stroke="#00757b"></path><path d="M732.4 515L658.5 468L635.5 510Z" fill="#034757" stroke="#034757"></path><path d="M589.7 600L650.5 600L635.5 510Z" fill="#008684" stroke="#008684"></path><path d="M157.6 600L247.5 600L240.5 531Z" fill="#005664" stroke="#005664"></path><path d="M240.5 531L247.5 600L314.3 600Z" fill="#008684" stroke="#008684"></path><path d="M166.6 142L153.6 245L258.5 230Z" fill="#005664" stroke="#005664"></path><path d="M650.5 600L732.4 515L635.5 510Z" fill="#0d968b" stroke="#0d968b"></path><path d="M813.2 288L736.4 204L715.4 316Z" fill="#005664" stroke="#005664"></path><path d="M753.4 163L736.4 204L811.2 222Z" fill="#00757b" stroke="#00757b"></path><path d="M657.5 146L642.5 84L563.7 149Z" fill="#071d2b" stroke="#071d2b"></path><path d="M502.9 0L423.1 0L481.9 85Z" fill="#005664" stroke="#005664"></path><path d="M720.4 86L642.5 84L657.5 146Z" fill="#00757b" stroke="#00757b"></path><path d="M177.6 433L157.6 538L240.5 531Z" fill="#008684" stroke="#008684"></path><path d="M77.8 470L157.6 538L177.6 433Z" fill="#072b3a" stroke="#072b3a"></path><path d="M98.8 382L177.6 433L166.6 361Z" fill="#005664" stroke="#005664"></path><path d="M98.8 382L166.6 361L99.8 302Z" fill="#008684" stroke="#008684"></path><path d="M342.3 80L258.5 69L326.3 158Z" fill="#006670" stroke="#006670"></path><path d="M256.5 152L166.6 142L258.5 230Z" fill="#005664" stroke="#005664"></path><path d="M331.3 0L258.5 69L342.3 80Z" fill="#00101c" stroke="#00101c"></path><path d="M99.8 302L166.6 361L157.6 284Z" fill="#00101c" stroke="#00101c"></path><path d="M813.2 288L715.4 316L739.4 376Z" fill="#034757" stroke="#034757"></path><path d="M736.4 204L753.4 163L657.5 146Z" fill="#29a690" stroke="#29a690"></path><path d="M77.8 237L99.8 302L153.6 245Z" fill="#00101c" stroke="#00101c"></path><path d="M153.6 245L99.8 302L157.6 284Z" fill="#034757" stroke="#034757"></path><path d="M502.9 0L481.9 85L554.7 85Z" fill="#072b3a" stroke="#072b3a"></path><path d="M396.1 72L331.3 0L342.3 80Z" fill="#00101c" stroke="#00101c"></path><path d="M258.5 69L166.6 142L256.5 152Z" fill="#29a690" stroke="#29a690"></path><path d="M732.4 515L801.2 444L748.4 444Z" fill="#00757b" stroke="#00757b"></path><path d="M748.4 444L801.2 444L739.4 376Z" fill="#063848" stroke="#063848"></path><path d="M816.2 530L801.2 444L732.4 515Z" fill="#29a690" stroke="#29a690"></path><path d="M555.7 0L502.9 0L554.7 85Z" fill="#034757" stroke="#034757"></path><path d="M822.2 374L813.2 288L739.4 376Z" fill="#0d968b" stroke="#0d968b"></path><path d="M801.2 444L822.2 374L739.4 376Z" fill="#034757" stroke="#034757"></path><path d="M669.5 0L555.7 0L642.5 84Z" fill="#006670" stroke="#006670"></path><path d="M642.5 84L555.7 0L554.7 85Z" fill="#006670" stroke="#006670"></path><path d="M423.1 0L331.3 0L396.1 72Z" fill="#00101c" stroke="#00101c"></path><path d="M258.5 69L157.6 77L166.6 142Z" fill="#00101c" stroke="#00101c"></path><path d="M806.2 63L720.4 86L753.4 163Z" fill="#072b3a" stroke="#072b3a"></path><path d="M753.4 163L720.4 86L657.5 146Z" fill="#072b3a" stroke="#072b3a"></path><path d="M813.2 288L811.2 222L736.4 204Z" fill="#071d2b" stroke="#071d2b"></path><path d="M900 285L811.2 222L813.2 288Z" fill="#063848" stroke="#063848"></path><path d="M94.8 600L157.6 600L157.6 538Z" fill="#008684" stroke="#008684"></path><path d="M157.6 538L157.6 600L240.5 531Z" fill="#29a690" stroke="#29a690"></path><path d="M650.5 600L752.4 600L732.4 515Z" fill="#008684" stroke="#008684"></path><path d="M0 433L77.8 470L98.8 382Z" fill="#006670" stroke="#006670"></path><path d="M98.8 382L77.8 470L177.6 433Z" fill="#006670" stroke="#006670"></path><path d="M73.8 167L77.8 237L153.6 245Z" fill="#006670" stroke="#006670"></path><path d="M99.8 302L0 387L98.8 382Z" fill="#005664" stroke="#005664"></path><path d="M752.4 600L816.2 530L732.4 515Z" fill="#00101c" stroke="#00101c"></path><path d="M900 450L900 371L822.2 374Z" fill="#006670" stroke="#006670"></path><path d="M900 207L810.2 168L811.2 222Z" fill="#072b3a" stroke="#072b3a"></path><path d="M811.2 222L810.2 168L753.4 163Z" fill="#006670" stroke="#006670"></path><path d="M240.5 0L157.6 77L258.5 69Z" fill="#005664" stroke="#005664"></path><path d="M166.6 142L73.8 167L153.6 245Z" fill="#00101c" stroke="#00101c"></path><path d="M331.3 0L240.5 0L258.5 69Z" fill="#071d2b" stroke="#071d2b"></path><path d="M0 433L64.8 505L77.8 470Z" fill="#071d2b" stroke="#071d2b"></path><path d="M77.8 470L64.8 505L157.6 538Z" fill="#00101c" stroke="#00101c"></path><path d="M720.4 86L669.5 0L642.5 84Z" fill="#005664" stroke="#005664"></path><path d="M722.4 0L669.5 0L720.4 86Z" fill="#00757b" stroke="#00757b"></path><path d="M82.8 77L73.8 167L166.6 142Z" fill="#005664" stroke="#005664"></path><path d="M0 294L0 387L99.8 302Z" fill="#006670" stroke="#006670"></path><path d="M752.4 600L803.2 600L816.2 530Z" fill="#008684" stroke="#008684"></path><path d="M64.8 505L94.8 600L157.6 538Z" fill="#071d2b" stroke="#071d2b"></path><path d="M806.2 63L722.4 0L720.4 86Z" fill="#005664" stroke="#005664"></path><path d="M900 450L822.2 374L801.2 444Z" fill="#005664" stroke="#005664"></path><path d="M822.2 374L900 285L813.2 288Z" fill="#006670" stroke="#006670"></path><path d="M900 450L801.2 444L816.2 530Z" fill="#00101c" stroke="#00101c"></path><path d="M900 371L900 285L822.2 374Z" fill="#008684" stroke="#008684"></path><path d="M810.2 168L806.2 63L753.4 163Z" fill="#29a690" stroke="#29a690"></path><path d="M0 294L99.8 302L77.8 237Z" fill="#29a690" stroke="#29a690"></path><path d="M64.8 505L0 531L94.8 600Z" fill="#29a690" stroke="#29a690"></path><path d="M240.5 0L169.6 0L157.6 77Z" fill="#29a690" stroke="#29a690"></path><path d="M157.6 77L82.8 77L166.6 142Z" fill="#005664" stroke="#005664"></path><path d="M900 534L900 450L816.2 530Z" fill="#29a690" stroke="#29a690"></path><path d="M0 243L77.8 237L73.8 167Z" fill="#005664" stroke="#005664"></path><path d="M0 243L0 294L77.8 237Z" fill="#29a690" stroke="#29a690"></path><path d="M900 139L806.2 63L810.2 168Z" fill="#034757" stroke="#034757"></path><path d="M0 387L0 433L98.8 382Z" fill="#29a690" stroke="#29a690"></path><path d="M89.8 0L82.8 77L157.6 77Z" fill="#29a690" stroke="#29a690"></path><path d="M0 155L0 243L73.8 167Z" fill="#072b3a" stroke="#072b3a"></path><path d="M900 285L900 207L811.2 222Z" fill="#063848" stroke="#063848"></path><path d="M900 600L900 534L816.2 530Z" fill="#072b3a" stroke="#072b3a"></path><path d="M0 433L0 531L64.8 505Z" fill="#00757b" stroke="#00757b"></path><path d="M82.8 77L0 155L73.8 167Z" fill="#063848" stroke="#063848"></path><path d="M900 0L799.2 0L806.2 63Z" fill="#005664" stroke="#005664"></path><path d="M806.2 63L799.2 0L722.4 0Z" fill="#006670" stroke="#006670"></path><path d="M900 207L900 139L810.2 168Z" fill="#008684" stroke="#008684"></path><path d="M169.6 0L89.8 0L157.6 77Z" fill="#071d2b" stroke="#071d2b"></path><path d="M82.8 77L0 55L0 155Z" fill="#00757b" stroke="#00757b"></path><path d="M803.2 600L900 600L816.2 530Z" fill="#00101c" stroke="#00101c"></path><path d="M0 531L0 600L94.8 600Z" fill="#0d968b" stroke="#0d968b"></path><path d="M900 139L900 69L806.2 63Z" fill="#072b3a" stroke="#072b3a"></path><path d="M89.8 0L0 55L82.8 77Z" fill="#072b3a" stroke="#072b3a"></path><path d="M900 69L900 0L806.2 63Z" fill="#005664" stroke="#005664"></path><path d="M89.8 0L0 0L0 55Z" fill="#0d968b" stroke="#0d968b"></path></g></svg>