<svg id="visual" viewBox="0 0 900 600" width="900" height="600" xmlns="http://www.w3.org/2000/svg" xmlns:xlink="http://www.w3.org/1999/xlink" version="1.1"><g stroke-width="1" stroke-linejoin="bevel"><path d="M498.9 287L563.7 293L562.7 240Z" fill="#008684" stroke="#008684"></path><path d="M562.7 240L502.9 207L498.9 287Z" fill="#005664" stroke="#005664"></path><path d="M584.7 379L638.5 305L563.7 293Z" fill="#072b3a" stroke="#072b3a"></path><path d="M563.7 293L638.5 305L562.7 240Z" fill="#005664" stroke="#005664"></path><path d="M567.7 146L482.9 166L502.9 207Z" fill="#071d2b" stroke="#071d2b"></path><path d="M388.1 232L400.1 320L498.9 287Z" fill="#00757b" stroke="#00757b"></path><path d="M567.7 146L502.9 207L562.7 240Z" fill="#005664" stroke="#005664"></path><path d="M481.9 395L584.7 379L563.7 293Z" fill="#063848" stroke="#063848"></path><path d="M667.5 213L567.7 146L562.7 240Z" fill="#29a690" stroke="#29a690"></path><path d="M400.1 320L481.9 395L498.9 287Z" fill="#005664" stroke="#005664"></path><path d="M498.9 287L481.9 395L563.7 293Z" fill="#034757" stroke="#034757"></path><path d="M388.1 232L498.9 287L502.9 207Z" fill="#00101c" stroke="#00101c"></path><path d="M638.5 305L667.5 213L562.7 240Z" fill="#005664" stroke="#005664"></path><path d="M406.1 168L388.1 232L502.9 207Z" fill="#00757b" stroke="#00757b"></path><path d="M584.7 379L638.5 382L638.5 305Z" fill="#063848" stroke="#063848"></path><path d="M638.5 305L733.4 300L667.5 213Z" fill="#00757b" stroke="#00757b"></path><path d="M572.7 432L638.5 382L584.7 379Z" fill="#00101c" stroke="#00101c"></path><path d="M489.9 58L406.1 168L482.9 166Z" fill="#072b3a" stroke="#072b3a"></path><path d="M482.9 166L406.1 168L502.9 207Z" fill="#008684" stroke="#008684"></path><path d="M481.9 395L572.7 432L584.7 379Z" fill="#00757b" stroke="#00757b"></path><path d="M400.1 320L408.1 386L481.9 395Z" fill="#008684" stroke="#008684"></path><path d="M481.9 395L472.9 460L572.7 432Z" fill="#006670" stroke="#006670"></path><path d="M342.3 392L408.1 386L400.1 320Z" fill="#0d968b" stroke="#0d968b"></path><path d="M667.5 213L671.5 157L567.7 146Z" fill="#072b3a" stroke="#072b3a"></path><path d="M671.5 157L573.7 80L567.7 146Z" fill="#00101c" stroke="#00101c"></path><path d="M567.7 146L489.9 58L482.9 166Z" fill="#008684" stroke="#008684"></path><path d="M333.3 238L340.3 302L388.1 232Z" fill="#008684" stroke="#008684"></path><path d="M388.1 232L340.3 302L400.1 320Z" fill="#29a690" stroke="#29a690"></path><path d="M427.1 457L472.9 460L481.9 395Z" fill="#008684" stroke="#008684"></path><path d="M332.3 160L333.3 238L388.1 232Z" fill="#00757b" stroke="#00757b"></path><path d="M733.4 369L733.4 300L638.5 305Z" fill="#006670" stroke="#006670"></path><path d="M667.5 213L744.4 213L671.5 157Z" fill="#063848" stroke="#063848"></path><path d="M636.5 506L648.5 443L572.7 432Z" fill="#0d968b" stroke="#0d968b"></path><path d="M572.7 432L648.5 443L638.5 382Z" fill="#071d2b" stroke="#071d2b"></path><path d="M638.5 382L733.4 369L638.5 305Z" fill="#071d2b" stroke="#071d2b"></path><path d="M573.7 80L489.9 58L567.7 146Z" fill="#071d2b" stroke="#071d2b"></path><path d="M406.1 168L332.3 160L388.1 232Z" fill="#29a690" stroke="#29a690"></path><path d="M342.3 392L427.1 457L408.1 386Z" fill="#005664" stroke="#005664"></path><path d="M408.1 386L427.1 457L481.9 395Z" fill="#006670" stroke="#006670"></path><path d="M733.4 300L744.4 213L667.5 213Z" fill="#034757" stroke="#034757"></path><path d="M671.5 157L649.5 58L573.7 80Z" fill="#063848" stroke="#063848"></path><path d="M648.5 443L733.4 369L638.5 382Z" fill="#006670" stroke="#006670"></path><path d="M733.4 300L802.2 296L744.4 213Z" fill="#063848" stroke="#063848"></path><path d="M390.1 60L332.3 160L406.1 168Z" fill="#006670" stroke="#006670"></path><path d="M340.3 302L342.3 392L400.1 320Z" fill="#071d2b" stroke="#071d2b"></path><path d="M311.3 429L342.3 392L226.5 377Z" fill="#071d2b" stroke="#071d2b"></path><path d="M729.4 57L649.5 58L671.5 157Z" fill="#072b3a" stroke="#072b3a"></path><path d="M568.7 0L506.9 0L489.9 58Z" fill="#29a690" stroke="#29a690"></path><path d="M803.2 214L751.4 156L744.4 213Z" fill="#00101c" stroke="#00101c"></path><path d="M744.4 213L751.4 156L671.5 157Z" fill="#071d2b" stroke="#071d2b"></path><path d="M411.1 505L497.9 514L472.9 460Z" fill="#063848" stroke="#063848"></path><path d="M472.9 460L497.9 514L572.7 432Z" fill="#071d2b" stroke="#071d2b"></path><path d="M411.1 505L472.9 460L427.1 457Z" fill="#006670" stroke="#006670"></path><path d="M489.9 58L390.1 60L406.1 168Z" fill="#29a690" stroke="#29a690"></path><path d="M572.7 528L636.5 506L572.7 432Z" fill="#29a690" stroke="#29a690"></path><path d="M648.5 443L738.4 470L733.4 369Z" fill="#008684" stroke="#008684"></path><path d="M497.9 514L572.7 528L572.7 432Z" fill="#005664" stroke="#005664"></path><path d="M311.3 429L411.1 505L427.1 457Z" fill="#071d2b" stroke="#071d2b"></path><path d="M497.9 514L558.7 600L572.7 528Z" fill="#034757" stroke="#034757"></path><path d="M568.7 0L489.9 58L573.7 80Z" fill="#29a690" stroke="#29a690"></path><path d="M489.9 58L410.1 0L390.1 60Z" fill="#072b3a" stroke="#072b3a"></path><path d="M649.5 58L568.7 0L573.7 80Z" fill="#063848" stroke="#063848"></path><path d="M804.2 384L802.2 296L733.4 369Z" fill="#034757" stroke="#034757"></path><path d="M733.4 369L802.2 296L733.4 300Z" fill="#006670" stroke="#006670"></path><path d="M802.2 296L803.2 214L744.4 213Z" fill="#0d968b" stroke="#0d968b"></path><path d="M226.5 377L342.3 392L340.3 302Z" fill="#00101c" stroke="#00101c"></path><path d="M342.3 392L311.3 429L427.1 457Z" fill="#0d968b" stroke="#0d968b"></path><path d="M253.5 233L340.3 302L333.3 238Z" fill="#006670" stroke="#006670"></path><path d="M257.5 138L253.5 233L332.3 160Z" fill="#008684" stroke="#008684"></path><path d="M332.3 160L253.5 233L333.3 238Z" fill="#072b3a" stroke="#072b3a"></path><path d="M805.2 87L729.4 57L751.4 156Z" fill="#034757" stroke="#034757"></path><path d="M751.4 156L729.4 57L671.5 157Z" fill="#071d2b" stroke="#071d2b"></path><path d="M649.5 58L649.5 0L568.7 0Z" fill="#063848" stroke="#063848"></path><path d="M726.4 504L738.4 470L648.5 443Z" fill="#008684" stroke="#008684"></path><path d="M729.4 57L649.5 0L649.5 58Z" fill="#008684" stroke="#008684"></path><path d="M506.9 0L410.1 0L489.9 58Z" fill="#034757" stroke="#034757"></path><path d="M307.3 55L257.5 138L332.3 160Z" fill="#006670" stroke="#006670"></path><path d="M802.2 438L804.2 384L733.4 369Z" fill="#29a690" stroke="#29a690"></path><path d="M900 226L825.2 168L803.2 214Z" fill="#034757" stroke="#034757"></path><path d="M253.5 233L237.5 295L340.3 302Z" fill="#00101c" stroke="#00101c"></path><path d="M307.3 55L332.3 160L390.1 60Z" fill="#0d968b" stroke="#0d968b"></path><path d="M177.6 239L180.6 294L237.5 295Z" fill="#29a690" stroke="#29a690"></path><path d="M644.5 600L726.4 504L636.5 506Z" fill="#034757" stroke="#034757"></path><path d="M636.5 506L726.4 504L648.5 443Z" fill="#008684" stroke="#008684"></path><path d="M738.4 470L802.2 438L733.4 369Z" fill="#034757" stroke="#034757"></path><path d="M803.2 214L825.2 168L751.4 156Z" fill="#29a690" stroke="#29a690"></path><path d="M900 226L803.2 214L802.2 296Z" fill="#034757" stroke="#034757"></path><path d="M320.3 0L307.3 55L390.1 60Z" fill="#00101c" stroke="#00101c"></path><path d="M799.2 509L802.2 438L738.4 470Z" fill="#00101c" stroke="#00101c"></path><path d="M900 378L900 299L802.2 296Z" fill="#006670" stroke="#006670"></path><path d="M825.2 168L805.2 87L751.4 156Z" fill="#00101c" stroke="#00101c"></path><path d="M729.4 57L753.4 0L649.5 0Z" fill="#008684" stroke="#008684"></path><path d="M180.6 294L226.5 377L237.5 295Z" fill="#00757b" stroke="#00757b"></path><path d="M237.5 295L226.5 377L340.3 302Z" fill="#063848" stroke="#063848"></path><path d="M311.3 429L329.3 525L411.1 505Z" fill="#006670" stroke="#006670"></path><path d="M240.5 452L329.3 525L311.3 429Z" fill="#006670" stroke="#006670"></path><path d="M475.9 600L558.7 600L497.9 514Z" fill="#00757b" stroke="#00757b"></path><path d="M475.9 600L497.9 514L411.1 505Z" fill="#034757" stroke="#034757"></path><path d="M572.7 528L644.5 600L636.5 506Z" fill="#063848" stroke="#063848"></path><path d="M402.1 600L475.9 600L411.1 505Z" fill="#00101c" stroke="#00101c"></path><path d="M320.3 0L263.5 59L307.3 55Z" fill="#034757" stroke="#034757"></path><path d="M307.3 55L263.5 59L257.5 138Z" fill="#071d2b" stroke="#071d2b"></path><path d="M177.6 239L237.5 295L253.5 233Z" fill="#29a690" stroke="#29a690"></path><path d="M410.1 0L320.3 0L390.1 60Z" fill="#0d968b" stroke="#0d968b"></path><path d="M799.2 0L753.4 0L729.4 57Z" fill="#071d2b" stroke="#071d2b"></path><path d="M226.5 377L240.5 452L311.3 429Z" fill="#006670" stroke="#006670"></path><path d="M558.7 600L644.5 600L572.7 528Z" fill="#29a690" stroke="#29a690"></path><path d="M726.4 504L799.2 509L738.4 470Z" fill="#00757b" stroke="#00757b"></path><path d="M177.6 239L253.5 233L182.6 169Z" fill="#072b3a" stroke="#072b3a"></path><path d="M226.5 377L161.6 432L240.5 452Z" fill="#0d968b" stroke="#0d968b"></path><path d="M182.6 169L253.5 233L257.5 138Z" fill="#005664" stroke="#005664"></path><path d="M332.3 600L402.1 600L329.3 525Z" fill="#0d968b" stroke="#0d968b"></path><path d="M329.3 525L402.1 600L411.1 505Z" fill="#072b3a" stroke="#072b3a"></path><path d="M731.4 600L799.2 509L726.4 504Z" fill="#29a690" stroke="#29a690"></path><path d="M900 378L802.2 296L804.2 384Z" fill="#0d968b" stroke="#0d968b"></path><path d="M179.6 64L182.6 169L257.5 138Z" fill="#071d2b" stroke="#071d2b"></path><path d="M900 378L804.2 384L802.2 438Z" fill="#00101c" stroke="#00101c"></path><path d="M825.2 168L900 167L805.2 87Z" fill="#008684" stroke="#008684"></path><path d="M900 299L900 226L802.2 296Z" fill="#005664" stroke="#005664"></path><path d="M805.2 87L799.2 0L729.4 57Z" fill="#0d968b" stroke="#0d968b"></path><path d="M900 60L799.2 0L805.2 87Z" fill="#071d2b" stroke="#071d2b"></path><path d="M900 226L900 167L825.2 168Z" fill="#0d968b" stroke="#0d968b"></path><path d="M900 465L900 378L802.2 438Z" fill="#063848" stroke="#063848"></path><path d="M170.6 527L259.5 539L240.5 452Z" fill="#00757b" stroke="#00757b"></path><path d="M240.5 452L259.5 539L329.3 525Z" fill="#006670" stroke="#006670"></path><path d="M644.5 600L731.4 600L726.4 504Z" fill="#063848" stroke="#063848"></path><path d="M799.2 509L900 465L802.2 438Z" fill="#006670" stroke="#006670"></path><path d="M259.5 539L332.3 600L329.3 525Z" fill="#006670" stroke="#006670"></path><path d="M320.3 0L239.5 0L263.5 59Z" fill="#006670" stroke="#006670"></path><path d="M263.5 59L179.6 64L257.5 138Z" fill="#29a690" stroke="#29a690"></path><path d="M93.8 370L152.6 387L180.6 294Z" fill="#006670" stroke="#006670"></path><path d="M180.6 294L152.6 387L226.5 377Z" fill="#0d968b" stroke="#0d968b"></path><path d="M93.8 370L180.6 294L78.8 306Z" fill="#063848" stroke="#063848"></path><path d="M152.6 387L161.6 432L226.5 377Z" fill="#29a690" stroke="#29a690"></path><path d="M239.5 0L179.6 64L263.5 59Z" fill="#0d968b" stroke="#0d968b"></path><path d="M78.8 306L180.6 294L177.6 239Z" fill="#071d2b" stroke="#071d2b"></path><path d="M900 544L900 465L799.2 509Z" fill="#072b3a" stroke="#072b3a"></path><path d="M900 167L900 60L805.2 87Z" fill="#00101c" stroke="#00101c"></path><path d="M170.6 527L264.5 600L259.5 539Z" fill="#072b3a" stroke="#072b3a"></path><path d="M259.5 539L264.5 600L332.3 600Z" fill="#006670" stroke="#006670"></path><path d="M161.6 432L170.6 527L240.5 452Z" fill="#063848" stroke="#063848"></path><path d="M100.8 525L170.6 527L161.6 432Z" fill="#005664" stroke="#005664"></path><path d="M239.5 0L175.6 0L179.6 64Z" fill="#008684" stroke="#008684"></path><path d="M78.8 306L177.6 239L68.8 243Z" fill="#072b3a" stroke="#072b3a"></path><path d="M731.4 600L834.2 600L799.2 509Z" fill="#005664" stroke="#005664"></path><path d="M177.6 239L182.6 169L85.8 169Z" fill="#0d968b" stroke="#0d968b"></path><path d="M152.6 387L83.8 454L161.6 432Z" fill="#0d968b" stroke="#0d968b"></path><path d="M900 60L900 0L799.2 0Z" fill="#034757" stroke="#034757"></path><path d="M85.8 169L182.6 169L99.8 58Z" fill="#005664" stroke="#005664"></path><path d="M99.8 58L182.6 169L179.6 64Z" fill="#00101c" stroke="#00101c"></path><path d="M834.2 600L900 544L799.2 509Z" fill="#063848" stroke="#063848"></path><path d="M85.8 169L68.8 243L177.6 239Z" fill="#006670" stroke="#006670"></path><path d="M175.6 0L99.8 58L179.6 64Z" fill="#006670" stroke="#006670"></path><path d="M0 220L0 295L68.8 243Z" fill="#00101c" stroke="#00101c"></path><path d="M0 384L93.8 370L78.8 306Z" fill="#008684" stroke="#008684"></path><path d="M0 384L83.8 454L93.8 370Z" fill="#005664" stroke="#005664"></path><path d="M93.8 370L83.8 454L152.6 387Z" fill="#0d968b" stroke="#0d968b"></path><path d="M834.2 600L900 600L900 544Z" fill="#063848" stroke="#063848"></path><path d="M83.8 454L100.8 525L161.6 432Z" fill="#008684" stroke="#008684"></path><path d="M170.6 527L149.6 600L264.5 600Z" fill="#005664" stroke="#005664"></path><path d="M100.8 525L149.6 600L170.6 527Z" fill="#072b3a" stroke="#072b3a"></path><path d="M175.6 0L86.8 0L99.8 58Z" fill="#072b3a" stroke="#072b3a"></path><path d="M0 150L0 220L85.8 169Z" fill="#0d968b" stroke="#0d968b"></path><path d="M68.8 243L0 295L78.8 306Z" fill="#00757b" stroke="#00757b"></path><path d="M83.8 454L0 528L100.8 525Z" fill="#008684" stroke="#008684"></path><path d="M0 220L68.8 243L85.8 169Z" fill="#008684" stroke="#008684"></path><path d="M0 150L85.8 169L0 76Z" fill="#005664" stroke="#005664"></path><path d="M0 295L0 384L78.8 306Z" fill="#00757b" stroke="#00757b"></path><path d="M100.8 525L86.8 600L149.6 600Z" fill="#29a690" stroke="#29a690"></path><path d="M0 76L85.8 169L99.8 58Z" fill="#0d968b" stroke="#0d968b"></path><path d="M0 528L86.8 600L100.8 525Z" fill="#00101c" stroke="#00101c"></path><path d="M86.8 0L0 76L99.8 58Z" fill="#005664" stroke="#005664"></path><path d="M0 384L0 462L83.8 454Z" fill="#00101c" stroke="#00101c"></path><path d="M0 462L0 528L83.8 454Z" fill="#00101c" stroke="#00101c"></path><path d="M86.8 0L0 0L0 76Z" fill="#072b3a" stroke="#072b3a"></path><path d="M0 528L0 600L86.8 600Z" fill="#008684" stroke="#008684"></path></g></svg>