<svg id="visual" viewBox="0 0 900 2000" width="900" height="2000" xmlns="http://www.w3.org/2000/svg" xmlns:xlink="http://www.w3.org/1999/xlink" version="1.1"><g stroke-width="1" stroke-linejoin="bevel"><path d="M423.1 975L409.1 1032L508.9 1033Z" fill="#006670" stroke="#006670"></path><path d="M508.9 1033L500.9 946L423.1 975Z" fill="#071d2b" stroke="#071d2b"></path><path d="M409.1 1032L477.9 1133L508.9 1033Z" fill="#008684" stroke="#008684"></path><path d="M398.1 1113L477.9 1133L409.1 1032Z" fill="#00101c" stroke="#00101c"></path><path d="M423.1 975L332.3 1035L409.1 1032Z" fill="#00757b" stroke="#00757b"></path><path d="M409.1 1032L332.3 1035L398.1 1113Z" fill="#063848" stroke="#063848"></path><path d="M557.7 1127L585.7 1047L508.9 1033Z" fill="#0d968b" stroke="#0d968b"></path><path d="M508.9 1033L575.7 949L500.9 946Z" fill="#29a690" stroke="#29a690"></path><path d="M585.7 1047L575.7 949L508.9 1033Z" fill="#006670" stroke="#006670"></path><path d="M591.7 894L473.9 879L500.9 946Z" fill="#00757b" stroke="#00757b"></path><path d="M500.9 946L473.9 879L423.1 975Z" fill="#072b3a" stroke="#072b3a"></path><path d="M423.1 975L318.3 957L332.3 1035Z" fill="#0d968b" stroke="#0d968b"></path><path d="M473.9 879L403.1 884L423.1 975Z" fill="#0d968b" stroke="#0d968b"></path><path d="M477.9 1133L557.7 1127L508.9 1033Z" fill="#29a690" stroke="#29a690"></path><path d="M403.1 884L318.3 957L423.1 975Z" fill="#034757" stroke="#034757"></path><path d="M257.5 1100L314.3 1112L332.3 1035Z" fill="#071d2b" stroke="#071d2b"></path><path d="M332.3 1035L314.3 1112L398.1 1113Z" fill="#29a690" stroke="#29a690"></path><path d="M398.1 1113L399.1 1192L477.9 1133Z" fill="#0d968b" stroke="#0d968b"></path><path d="M674.5 965L591.7 894L575.7 949Z" fill="#00757b" stroke="#00757b"></path><path d="M575.7 949L591.7 894L500.9 946Z" fill="#00757b" stroke="#00757b"></path><path d="M337.3 801L333.3 884L403.1 884Z" fill="#034757" stroke="#034757"></path><path d="M403.1 884L333.3 884L318.3 957Z" fill="#29a690" stroke="#29a690"></path><path d="M643.5 1119L640.5 1054L585.7 1047Z" fill="#00757b" stroke="#00757b"></path><path d="M585.7 1047L674.5 965L575.7 949Z" fill="#006670" stroke="#006670"></path><path d="M341.3 1209L399.1 1192L398.1 1113Z" fill="#072b3a" stroke="#072b3a"></path><path d="M477.9 1133L505.9 1203L557.7 1127Z" fill="#29a690" stroke="#29a690"></path><path d="M399.1 1192L505.9 1203L477.9 1133Z" fill="#0d968b" stroke="#0d968b"></path><path d="M557.7 1127L643.5 1119L585.7 1047Z" fill="#006670" stroke="#006670"></path><path d="M333.3 884L260.5 951L318.3 957Z" fill="#005664" stroke="#005664"></path><path d="M318.3 957L238.5 1037L332.3 1035Z" fill="#008684" stroke="#008684"></path><path d="M559.7 793L472.9 806L473.9 879Z" fill="#00101c" stroke="#00101c"></path><path d="M473.9 879L472.9 806L403.1 884Z" fill="#034757" stroke="#034757"></path><path d="M591.7 1199L643.5 1119L557.7 1127Z" fill="#005664" stroke="#005664"></path><path d="M238.5 1037L257.5 1100L332.3 1035Z" fill="#034757" stroke="#034757"></path><path d="M314.3 1112L341.3 1209L398.1 1113Z" fill="#063848" stroke="#063848"></path><path d="M722.4 1034L674.5 965L640.5 1054Z" fill="#008684" stroke="#008684"></path><path d="M640.5 1054L674.5 965L585.7 1047Z" fill="#071d2b" stroke="#071d2b"></path><path d="M260.5 951L238.5 1037L318.3 957Z" fill="#005664" stroke="#005664"></path><path d="M505.9 1203L591.7 1199L557.7 1127Z" fill="#072b3a" stroke="#072b3a"></path><path d="M230.5 1200L341.3 1209L314.3 1112Z" fill="#005664" stroke="#005664"></path><path d="M399.1 1192L422.1 1286L505.9 1203Z" fill="#00757b" stroke="#00757b"></path><path d="M674.5 965L642.5 874L591.7 894Z" fill="#005664" stroke="#005664"></path><path d="M591.7 894L559.7 793L473.9 879Z" fill="#00757b" stroke="#00757b"></path><path d="M472.9 806L409.1 786L403.1 884Z" fill="#063848" stroke="#063848"></path><path d="M333.3 884L232.5 878L260.5 951Z" fill="#006670" stroke="#006670"></path><path d="M642.5 874L559.7 793L591.7 894Z" fill="#29a690" stroke="#29a690"></path><path d="M505.9 723L398.1 730L409.1 786Z" fill="#034757" stroke="#034757"></path><path d="M409.1 786L337.3 801L403.1 884Z" fill="#005664" stroke="#005664"></path><path d="M591.7 1199L634.5 1194L643.5 1119Z" fill="#071d2b" stroke="#071d2b"></path><path d="M643.5 1119L722.4 1034L640.5 1054Z" fill="#005664" stroke="#005664"></path><path d="M745.4 1112L722.4 1034L643.5 1119Z" fill="#00757b" stroke="#00757b"></path><path d="M674.5 965L732.4 939L642.5 874Z" fill="#034757" stroke="#034757"></path><path d="M261.5 794L232.5 878L333.3 884Z" fill="#00757b" stroke="#00757b"></path><path d="M168.6 958L172.6 1037L238.5 1037Z" fill="#063848" stroke="#063848"></path><path d="M341.3 1209L422.1 1286L399.1 1192Z" fill="#0d968b" stroke="#0d968b"></path><path d="M505.9 1203L564.7 1270L591.7 1199Z" fill="#008684" stroke="#008684"></path><path d="M591.7 1199L648.5 1289L634.5 1194Z" fill="#00101c" stroke="#00101c"></path><path d="M479.9 1299L564.7 1270L505.9 1203Z" fill="#29a690" stroke="#29a690"></path><path d="M722.4 1034L732.4 939L674.5 965Z" fill="#29a690" stroke="#29a690"></path><path d="M567.7 711L505.9 723L559.7 793Z" fill="#034757" stroke="#034757"></path><path d="M422.1 1286L479.9 1299L505.9 1203Z" fill="#0d968b" stroke="#0d968b"></path><path d="M168.6 958L238.5 1037L260.5 951Z" fill="#00101c" stroke="#00101c"></path><path d="M238.5 1037L172.6 1037L257.5 1100Z" fill="#00757b" stroke="#00757b"></path><path d="M257.5 1100L230.5 1200L314.3 1112Z" fill="#034757" stroke="#034757"></path><path d="M505.9 723L409.1 786L472.9 806Z" fill="#0d968b" stroke="#0d968b"></path><path d="M409.1 786L398.1 730L337.3 801Z" fill="#008684" stroke="#008684"></path><path d="M337.3 801L261.5 794L333.3 884Z" fill="#072b3a" stroke="#072b3a"></path><path d="M143.6 1107L230.5 1200L257.5 1100Z" fill="#034757" stroke="#034757"></path><path d="M341.3 1209L316.3 1291L422.1 1286Z" fill="#071d2b" stroke="#071d2b"></path><path d="M669.5 787L559.7 793L642.5 874Z" fill="#00757b" stroke="#00757b"></path><path d="M559.7 793L505.9 723L472.9 806Z" fill="#071d2b" stroke="#071d2b"></path><path d="M307.3 722L261.5 794L337.3 801Z" fill="#005664" stroke="#005664"></path><path d="M232.5 878L168.6 958L260.5 951Z" fill="#00101c" stroke="#00101c"></path><path d="M159.6 866L168.6 958L232.5 878Z" fill="#008684" stroke="#008684"></path><path d="M719.4 1210L643.5 1119L634.5 1194Z" fill="#063848" stroke="#063848"></path><path d="M719.4 1210L745.4 1112L643.5 1119Z" fill="#00101c" stroke="#00101c"></path><path d="M722.4 1034L820.2 1047L732.4 939Z" fill="#006670" stroke="#006670"></path><path d="M742.4 869L669.5 787L642.5 874Z" fill="#008684" stroke="#008684"></path><path d="M230.5 1200L316.3 1291L341.3 1209Z" fill="#071d2b" stroke="#071d2b"></path><path d="M422.1 1286L423.1 1355L479.9 1299Z" fill="#29a690" stroke="#29a690"></path><path d="M826.2 865L742.4 869L732.4 939Z" fill="#071d2b" stroke="#071d2b"></path><path d="M732.4 939L742.4 869L642.5 874Z" fill="#071d2b" stroke="#071d2b"></path><path d="M669.5 787L567.7 711L559.7 793Z" fill="#00101c" stroke="#00101c"></path><path d="M396.1 655L307.3 722L398.1 730Z" fill="#008684" stroke="#008684"></path><path d="M648.5 1289L719.4 1210L634.5 1194Z" fill="#005664" stroke="#005664"></path><path d="M85.8 1104L143.6 1107L71.8 1035Z" fill="#008684" stroke="#008684"></path><path d="M172.6 1037L143.6 1107L257.5 1100Z" fill="#0d968b" stroke="#0d968b"></path><path d="M398.1 730L307.3 722L337.3 801Z" fill="#00757b" stroke="#00757b"></path><path d="M396.1 655L398.1 730L505.9 723Z" fill="#006670" stroke="#006670"></path><path d="M586.7 1370L648.5 1289L564.7 1270Z" fill="#00101c" stroke="#00101c"></path><path d="M564.7 1270L648.5 1289L591.7 1199Z" fill="#072b3a" stroke="#072b3a"></path><path d="M174.6 785L232.5 878L261.5 794Z" fill="#00757b" stroke="#00757b"></path><path d="M174.6 785L159.6 866L232.5 878Z" fill="#034757" stroke="#034757"></path><path d="M168.6 958L71.8 1035L172.6 1037Z" fill="#005664" stroke="#005664"></path><path d="M316.3 1291L423.1 1355L422.1 1286Z" fill="#00101c" stroke="#00101c"></path><path d="M479.9 1299L586.7 1370L564.7 1270Z" fill="#29a690" stroke="#29a690"></path><path d="M143.6 1107L165.6 1201L230.5 1200Z" fill="#063848" stroke="#063848"></path><path d="M230.5 1200L241.5 1297L316.3 1291Z" fill="#005664" stroke="#005664"></path><path d="M316.3 1291L315.3 1363L423.1 1355Z" fill="#072b3a" stroke="#072b3a"></path><path d="M423.1 1355L478.9 1362L479.9 1299Z" fill="#0d968b" stroke="#0d968b"></path><path d="M719.4 1210L800.2 1116L745.4 1112Z" fill="#006670" stroke="#006670"></path><path d="M745.4 1112L820.2 1047L722.4 1034Z" fill="#063848" stroke="#063848"></path><path d="M159.6 1287L241.5 1297L230.5 1200Z" fill="#00101c" stroke="#00101c"></path><path d="M800.2 1116L820.2 1047L745.4 1112Z" fill="#005664" stroke="#005664"></path><path d="M494.9 640L396.1 655L505.9 723Z" fill="#006670" stroke="#006670"></path><path d="M755.4 714L654.5 706L669.5 787Z" fill="#005664" stroke="#005664"></path><path d="M669.5 787L654.5 706L567.7 711Z" fill="#006670" stroke="#006670"></path><path d="M567.7 711L494.9 640L505.9 723Z" fill="#063848" stroke="#063848"></path><path d="M238.5 709L261.5 794L307.3 722Z" fill="#00101c" stroke="#00101c"></path><path d="M238.5 709L174.6 785L261.5 794Z" fill="#034757" stroke="#034757"></path><path d="M818.2 815L752.4 784L742.4 869Z" fill="#29a690" stroke="#29a690"></path><path d="M742.4 869L752.4 784L669.5 787Z" fill="#008684" stroke="#008684"></path><path d="M580.7 631L494.9 640L567.7 711Z" fill="#034757" stroke="#034757"></path><path d="M310.3 638L238.5 709L307.3 722Z" fill="#071d2b" stroke="#071d2b"></path><path d="M241.5 1297L315.3 1363L316.3 1291Z" fill="#00757b" stroke="#00757b"></path><path d="M423.1 1355L416.1 1419L478.9 1362Z" fill="#063848" stroke="#063848"></path><path d="M559.7 1449L586.7 1370L478.9 1362Z" fill="#0d968b" stroke="#0d968b"></path><path d="M478.9 1362L586.7 1370L479.9 1299Z" fill="#008684" stroke="#008684"></path><path d="M648.5 1289L739.4 1275L719.4 1210Z" fill="#072b3a" stroke="#072b3a"></path><path d="M719.4 1210L832.2 1204L800.2 1116Z" fill="#00757b" stroke="#00757b"></path><path d="M71.8 890L85.8 940L159.6 866Z" fill="#005664" stroke="#005664"></path><path d="M159.6 866L85.8 940L168.6 958Z" fill="#008684" stroke="#008684"></path><path d="M143.6 1107L83.8 1217L165.6 1201Z" fill="#0d968b" stroke="#0d968b"></path><path d="M734.4 1342L739.4 1275L648.5 1289Z" fill="#005664" stroke="#005664"></path><path d="M820.2 1047L837.2 953L732.4 939Z" fill="#071d2b" stroke="#071d2b"></path><path d="M71.8 1035L143.6 1107L172.6 1037Z" fill="#071d2b" stroke="#071d2b"></path><path d="M165.6 1201L159.6 1287L230.5 1200Z" fill="#071d2b" stroke="#071d2b"></path><path d="M85.8 940L71.8 1035L168.6 958Z" fill="#29a690" stroke="#29a690"></path><path d="M837.2 953L826.2 865L732.4 939Z" fill="#00757b" stroke="#00757b"></path><path d="M673.5 658L580.7 631L654.5 706Z" fill="#063848" stroke="#063848"></path><path d="M654.5 706L580.7 631L567.7 711Z" fill="#034757" stroke="#034757"></path><path d="M420.1 558L310.3 638L396.1 655Z" fill="#071d2b" stroke="#071d2b"></path><path d="M396.1 655L310.3 638L307.3 722Z" fill="#008684" stroke="#008684"></path><path d="M420.1 558L396.1 655L494.9 640Z" fill="#00757b" stroke="#00757b"></path><path d="M83.8 1217L159.6 1287L165.6 1201Z" fill="#063848" stroke="#063848"></path><path d="M241.5 1297L248.5 1375L315.3 1363Z" fill="#00101c" stroke="#00101c"></path><path d="M83.8 804L159.6 866L174.6 785Z" fill="#072b3a" stroke="#072b3a"></path><path d="M83.8 804L71.8 890L159.6 866Z" fill="#072b3a" stroke="#072b3a"></path><path d="M0 970L0 1047L71.8 1035Z" fill="#063848" stroke="#063848"></path><path d="M314.3 1452L416.1 1419L315.3 1363Z" fill="#29a690" stroke="#29a690"></path><path d="M315.3 1363L416.1 1419L423.1 1355Z" fill="#071d2b" stroke="#071d2b"></path><path d="M826.2 865L818.2 815L742.4 869Z" fill="#071d2b" stroke="#071d2b"></path><path d="M755.4 714L673.5 658L654.5 706Z" fill="#006670" stroke="#006670"></path><path d="M755.4 714L669.5 787L752.4 784Z" fill="#005664" stroke="#005664"></path><path d="M586.7 1370L658.5 1379L648.5 1289Z" fill="#063848" stroke="#063848"></path><path d="M652.5 1427L658.5 1379L586.7 1370Z" fill="#00101c" stroke="#00101c"></path><path d="M168.6 1380L248.5 1375L241.5 1297Z" fill="#072b3a" stroke="#072b3a"></path><path d="M739.4 1275L832.2 1204L719.4 1210Z" fill="#071d2b" stroke="#071d2b"></path><path d="M900 1103L900 1043L820.2 1047Z" fill="#29a690" stroke="#29a690"></path><path d="M820.2 1047L900 1043L837.2 953Z" fill="#0d968b" stroke="#0d968b"></path><path d="M824.2 1279L832.2 1204L739.4 1275Z" fill="#072b3a" stroke="#072b3a"></path><path d="M178.6 649L171.6 708L238.5 709Z" fill="#008684" stroke="#008684"></path><path d="M238.5 709L171.6 708L174.6 785Z" fill="#00101c" stroke="#00101c"></path><path d="M799.2 740L755.4 714L752.4 784Z" fill="#005664" stroke="#005664"></path><path d="M0 1209L83.8 1217L85.8 1104Z" fill="#008684" stroke="#008684"></path><path d="M85.8 1104L83.8 1217L143.6 1107Z" fill="#0d968b" stroke="#0d968b"></path><path d="M225.5 1435L314.3 1452L248.5 1375Z" fill="#005664" stroke="#005664"></path><path d="M658.5 1379L734.4 1342L648.5 1289Z" fill="#005664" stroke="#005664"></path><path d="M78.8 705L83.8 804L174.6 785Z" fill="#006670" stroke="#006670"></path><path d="M310.3 638L238.5 643L238.5 709Z" fill="#071d2b" stroke="#071d2b"></path><path d="M818.2 815L799.2 740L752.4 784Z" fill="#006670" stroke="#006670"></path><path d="M755.4 714L740.4 647L673.5 658Z" fill="#00101c" stroke="#00101c"></path><path d="M900 1103L820.2 1047L800.2 1116Z" fill="#063848" stroke="#063848"></path><path d="M837.2 953L900 876L826.2 865Z" fill="#063848" stroke="#063848"></path><path d="M826.2 865L900 795L818.2 815Z" fill="#00101c" stroke="#00101c"></path><path d="M818.2 815L900 795L799.2 740Z" fill="#00757b" stroke="#00757b"></path><path d="M900 1043L900 962L837.2 953Z" fill="#00101c" stroke="#00101c"></path><path d="M663.5 545L554.7 579L580.7 631Z" fill="#008684" stroke="#008684"></path><path d="M580.7 631L554.7 579L494.9 640Z" fill="#006670" stroke="#006670"></path><path d="M310.3 638L307.3 547L238.5 643Z" fill="#071d2b" stroke="#071d2b"></path><path d="M663.5 545L580.7 631L673.5 658Z" fill="#006670" stroke="#006670"></path><path d="M507.9 1460L559.7 1449L478.9 1362Z" fill="#034757" stroke="#034757"></path><path d="M658.5 1379L743.4 1420L734.4 1342Z" fill="#00101c" stroke="#00101c"></path><path d="M470.9 1511L507.9 1460L416.1 1419Z" fill="#008684" stroke="#008684"></path><path d="M416.1 1419L507.9 1460L478.9 1362Z" fill="#29a690" stroke="#29a690"></path><path d="M900 1180L900 1103L800.2 1116Z" fill="#00101c" stroke="#00101c"></path><path d="M820.2 1340L824.2 1279L739.4 1275Z" fill="#008684" stroke="#008684"></path><path d="M832.2 1204L900 1180L800.2 1116Z" fill="#008684" stroke="#008684"></path><path d="M559.7 1449L652.5 1427L586.7 1370Z" fill="#072b3a" stroke="#072b3a"></path><path d="M734.4 1342L820.2 1340L739.4 1275Z" fill="#005664" stroke="#005664"></path><path d="M507.9 553L420.1 558L494.9 640Z" fill="#006670" stroke="#006670"></path><path d="M0 970L71.8 1035L85.8 940Z" fill="#071d2b" stroke="#071d2b"></path><path d="M71.8 1035L0 1100L85.8 1104Z" fill="#071d2b" stroke="#071d2b"></path><path d="M0 970L85.8 940L71.8 890Z" fill="#071d2b" stroke="#071d2b"></path><path d="M148.6 579L178.6 649L238.5 643Z" fill="#00757b" stroke="#00757b"></path><path d="M238.5 643L178.6 649L238.5 709Z" fill="#005664" stroke="#005664"></path><path d="M171.6 708L78.8 705L174.6 785Z" fill="#006670" stroke="#006670"></path><path d="M168.6 1380L241.5 1297L159.6 1287Z" fill="#008684" stroke="#008684"></path><path d="M248.5 1375L314.3 1452L315.3 1363Z" fill="#006670" stroke="#006670"></path><path d="M0 880L0 970L71.8 890Z" fill="#063848" stroke="#063848"></path><path d="M900 962L900 876L837.2 953Z" fill="#006670" stroke="#006670"></path><path d="M817.2 659L755.4 714L799.2 740Z" fill="#008684" stroke="#008684"></path><path d="M817.2 659L740.4 647L755.4 714Z" fill="#006670" stroke="#006670"></path><path d="M0 1292L90.8 1294L83.8 1217Z" fill="#006670" stroke="#006670"></path><path d="M83.8 1217L90.8 1294L159.6 1287Z" fill="#072b3a" stroke="#072b3a"></path><path d="M554.7 579L507.9 553L494.9 640Z" fill="#005664" stroke="#005664"></path><path d="M484.9 499L507.9 553L569.7 483Z" fill="#071d2b" stroke="#071d2b"></path><path d="M0 1047L0 1100L71.8 1035Z" fill="#063848" stroke="#063848"></path><path d="M90.8 1294L168.6 1380L159.6 1287Z" fill="#063848" stroke="#063848"></path><path d="M900 1278L900 1180L832.2 1204Z" fill="#005664" stroke="#005664"></path><path d="M0 798L0 880L83.8 804Z" fill="#072b3a" stroke="#072b3a"></path><path d="M83.8 804L0 880L71.8 890Z" fill="#006670" stroke="#006670"></path><path d="M168.6 1380L225.5 1435L248.5 1375Z" fill="#071d2b" stroke="#071d2b"></path><path d="M743.4 1420L820.2 1340L734.4 1342Z" fill="#005664" stroke="#005664"></path><path d="M824.2 1279L900 1278L832.2 1204Z" fill="#063848" stroke="#063848"></path><path d="M89.8 648L78.8 705L171.6 708Z" fill="#29a690" stroke="#29a690"></path><path d="M421.1 471L307.3 547L420.1 558Z" fill="#0d968b" stroke="#0d968b"></path><path d="M420.1 558L307.3 547L310.3 638Z" fill="#008684" stroke="#008684"></path><path d="M178.6 649L89.8 648L171.6 708Z" fill="#071d2b" stroke="#071d2b"></path><path d="M900 876L900 795L826.2 865Z" fill="#034757" stroke="#034757"></path><path d="M652.5 1427L743.4 1420L658.5 1379Z" fill="#034757" stroke="#034757"></path><path d="M642.5 1516L743.4 1420L652.5 1427Z" fill="#072b3a" stroke="#072b3a"></path><path d="M642.5 1516L652.5 1427L559.7 1449Z" fill="#0d968b" stroke="#0d968b"></path><path d="M389.1 1512L470.9 1511L416.1 1419Z" fill="#00757b" stroke="#00757b"></path><path d="M507.9 1460L558.7 1536L559.7 1449Z" fill="#034757" stroke="#034757"></path><path d="M389.1 1512L416.1 1419L314.3 1452Z" fill="#006670" stroke="#006670"></path><path d="M0 1100L0 1209L85.8 1104Z" fill="#29a690" stroke="#29a690"></path><path d="M100.8 1438L160.6 1429L168.6 1380Z" fill="#034757" stroke="#034757"></path><path d="M338.3 1523L389.1 1512L314.3 1452Z" fill="#008684" stroke="#008684"></path><path d="M900 716L817.2 659L799.2 740Z" fill="#072b3a" stroke="#072b3a"></path><path d="M734.4 566L663.5 545L673.5 658Z" fill="#005664" stroke="#005664"></path><path d="M0 740L0 798L83.8 804Z" fill="#29a690" stroke="#29a690"></path><path d="M168.6 1380L160.6 1429L225.5 1435Z" fill="#072b3a" stroke="#072b3a"></path><path d="M227.5 1511L338.3 1523L314.3 1452Z" fill="#006670" stroke="#006670"></path><path d="M62.8 1363L168.6 1380L90.8 1294Z" fill="#072b3a" stroke="#072b3a"></path><path d="M734.4 566L673.5 658L740.4 647Z" fill="#034757" stroke="#034757"></path><path d="M507.9 553L484.9 499L420.1 558Z" fill="#072b3a" stroke="#072b3a"></path><path d="M900 1343L824.2 1279L820.2 1340Z" fill="#072b3a" stroke="#072b3a"></path><path d="M900 1343L900 1278L824.2 1279Z" fill="#29a690" stroke="#29a690"></path><path d="M569.7 483L507.9 553L554.7 579Z" fill="#072b3a" stroke="#072b3a"></path><path d="M148.6 579L89.8 648L178.6 649Z" fill="#008684" stroke="#008684"></path><path d="M78.8 705L0 740L83.8 804Z" fill="#005664" stroke="#005664"></path><path d="M227.5 1511L314.3 1452L225.5 1435Z" fill="#063848" stroke="#063848"></path><path d="M555.7 1581L558.7 1536L509.9 1605Z" fill="#063848" stroke="#063848"></path><path d="M257.5 491L229.5 543L307.3 547Z" fill="#071d2b" stroke="#071d2b"></path><path d="M307.3 547L229.5 543L238.5 643Z" fill="#071d2b" stroke="#071d2b"></path><path d="M817.2 659L734.4 566L740.4 647Z" fill="#072b3a" stroke="#072b3a"></path><path d="M0 1292L62.8 1363L90.8 1294Z" fill="#008684" stroke="#008684"></path><path d="M558.7 1536L470.9 1511L509.9 1605Z" fill="#00757b" stroke="#00757b"></path><path d="M470.9 1511L558.7 1536L507.9 1460Z" fill="#006670" stroke="#006670"></path><path d="M900 795L900 716L799.2 740Z" fill="#00101c" stroke="#00101c"></path><path d="M817.2 659L838.2 557L734.4 566Z" fill="#006670" stroke="#006670"></path><path d="M558.7 1536L642.5 1516L559.7 1449Z" fill="#005664" stroke="#005664"></path><path d="M743.4 1420L806.2 1437L820.2 1340Z" fill="#063848" stroke="#063848"></path><path d="M229.5 543L148.6 579L238.5 643Z" fill="#00757b" stroke="#00757b"></path><path d="M0 644L0 740L78.8 705Z" fill="#072b3a" stroke="#072b3a"></path><path d="M0 644L78.8 705L89.8 648Z" fill="#00101c" stroke="#00101c"></path><path d="M0 1209L0 1292L83.8 1217Z" fill="#063848" stroke="#063848"></path><path d="M650.5 493L569.7 483L663.5 545Z" fill="#034757" stroke="#034757"></path><path d="M663.5 545L569.7 483L554.7 579Z" fill="#29a690" stroke="#29a690"></path><path d="M484.9 499L421.1 471L420.1 558Z" fill="#034757" stroke="#034757"></path><path d="M497.9 405L421.1 471L484.9 499Z" fill="#0d968b" stroke="#0d968b"></path><path d="M750.4 1536L806.2 1437L743.4 1420Z" fill="#006670" stroke="#006670"></path><path d="M170.6 1506L227.5 1511L225.5 1435Z" fill="#006670" stroke="#006670"></path><path d="M170.6 1506L225.5 1435L160.6 1429Z" fill="#072b3a" stroke="#072b3a"></path><path d="M900 1431L900 1343L820.2 1340Z" fill="#008684" stroke="#008684"></path><path d="M0 1430L100.8 1438L62.8 1363Z" fill="#29a690" stroke="#29a690"></path><path d="M62.8 1363L100.8 1438L168.6 1380Z" fill="#034757" stroke="#034757"></path><path d="M742.4 477L650.5 493L663.5 545Z" fill="#006670" stroke="#006670"></path><path d="M314.3 466L257.5 491L307.3 547Z" fill="#006670" stroke="#006670"></path><path d="M229.5 543L176.6 472L148.6 579Z" fill="#071d2b" stroke="#071d2b"></path><path d="M176.6 472L101.8 576L148.6 579Z" fill="#063848" stroke="#063848"></path><path d="M148.6 579L101.8 576L89.8 648Z" fill="#005664" stroke="#005664"></path><path d="M421.1 471L314.3 466L307.3 547Z" fill="#00101c" stroke="#00101c"></path><path d="M100.8 1438L170.6 1506L160.6 1429Z" fill="#034757" stroke="#034757"></path><path d="M470.9 1511L389.1 1512L411.1 1611Z" fill="#072b3a" stroke="#072b3a"></path><path d="M558.7 1536L555.7 1581L642.5 1516Z" fill="#00757b" stroke="#00757b"></path><path d="M642.5 1516L750.4 1536L743.4 1420Z" fill="#00101c" stroke="#00101c"></path><path d="M509.9 1605L470.9 1511L411.1 1611Z" fill="#063848" stroke="#063848"></path><path d="M389.1 1512L330.3 1599L411.1 1611Z" fill="#00757b" stroke="#00757b"></path><path d="M0 1292L0 1379L62.8 1363Z" fill="#0d968b" stroke="#0d968b"></path><path d="M100.8 1438L85.8 1532L170.6 1506Z" fill="#034757" stroke="#034757"></path><path d="M900 716L900 625L817.2 659Z" fill="#006670" stroke="#006670"></path><path d="M734.4 566L742.4 477L663.5 545Z" fill="#034757" stroke="#034757"></path><path d="M0 564L0 644L89.8 648Z" fill="#006670" stroke="#006670"></path><path d="M389.1 1512L338.3 1523L330.3 1599Z" fill="#071d2b" stroke="#071d2b"></path><path d="M900 625L838.2 557L817.2 659Z" fill="#0d968b" stroke="#0d968b"></path><path d="M719.4 1597L750.4 1536L642.5 1516Z" fill="#063848" stroke="#063848"></path><path d="M806.2 1437L900 1431L820.2 1340Z" fill="#006670" stroke="#006670"></path><path d="M639.5 1613L642.5 1516L555.7 1581Z" fill="#006670" stroke="#006670"></path><path d="M330.3 1599L338.3 1523L260.5 1617Z" fill="#063848" stroke="#063848"></path><path d="M260.5 1617L338.3 1523L227.5 1511Z" fill="#00101c" stroke="#00101c"></path><path d="M823.2 1516L900 1431L806.2 1437Z" fill="#034757" stroke="#034757"></path><path d="M838.2 557L742.4 477L734.4 566Z" fill="#0d968b" stroke="#0d968b"></path><path d="M554.7 402L497.9 405L569.7 483Z" fill="#034757" stroke="#034757"></path><path d="M569.7 483L497.9 405L484.9 499Z" fill="#29a690" stroke="#29a690"></path><path d="M421.1 471L347.3 406L314.3 466Z" fill="#005664" stroke="#005664"></path><path d="M554.7 402L569.7 483L669.5 393Z" fill="#071d2b" stroke="#071d2b"></path><path d="M257.5 491L176.6 472L229.5 543Z" fill="#008684" stroke="#008684"></path><path d="M101.8 576L0 564L89.8 648Z" fill="#005664" stroke="#005664"></path><path d="M239.5 411L176.6 472L257.5 491Z" fill="#072b3a" stroke="#072b3a"></path><path d="M239.5 411L257.5 491L314.3 466Z" fill="#005664" stroke="#005664"></path><path d="M418.1 381L347.3 406L421.1 471Z" fill="#072b3a" stroke="#072b3a"></path><path d="M838.2 557L829.2 476L742.4 477Z" fill="#072b3a" stroke="#072b3a"></path><path d="M900 625L900 580L838.2 557Z" fill="#071d2b" stroke="#071d2b"></path><path d="M669.5 393L569.7 483L650.5 493Z" fill="#00757b" stroke="#00757b"></path><path d="M497.9 405L418.1 381L421.1 471Z" fill="#29a690" stroke="#29a690"></path><path d="M0 1379L0 1430L62.8 1363Z" fill="#00757b" stroke="#00757b"></path><path d="M177.6 1620L260.5 1617L227.5 1511Z" fill="#071d2b" stroke="#071d2b"></path><path d="M801.2 1609L823.2 1516L750.4 1536Z" fill="#29a690" stroke="#29a690"></path><path d="M750.4 1536L823.2 1516L806.2 1437Z" fill="#071d2b" stroke="#071d2b"></path><path d="M585.7 1686L555.7 1581L509.9 1605Z" fill="#034757" stroke="#034757"></path><path d="M585.7 1686L639.5 1613L555.7 1581Z" fill="#00101c" stroke="#00101c"></path><path d="M471.9 302L418.1 381L497.9 405Z" fill="#071d2b" stroke="#071d2b"></path><path d="M177.6 1620L227.5 1511L170.6 1506Z" fill="#006670" stroke="#006670"></path><path d="M330.3 1599L315.3 1665L411.1 1611Z" fill="#071d2b" stroke="#071d2b"></path><path d="M411.1 1611L487.9 1662L509.9 1605Z" fill="#005664" stroke="#005664"></path><path d="M639.5 1613L719.4 1597L642.5 1516Z" fill="#071d2b" stroke="#071d2b"></path><path d="M0 1512L85.8 1532L100.8 1438Z" fill="#00101c" stroke="#00101c"></path><path d="M260.5 331L239.5 411L347.3 406Z" fill="#29a690" stroke="#29a690"></path><path d="M347.3 406L239.5 411L314.3 466Z" fill="#00101c" stroke="#00101c"></path><path d="M69.8 483L101.8 576L176.6 472Z" fill="#006670" stroke="#006670"></path><path d="M69.8 483L0 564L101.8 576Z" fill="#006670" stroke="#006670"></path><path d="M421.1 1682L487.9 1662L411.1 1611Z" fill="#063848" stroke="#063848"></path><path d="M639.5 1613L670.5 1659L719.4 1597Z" fill="#072b3a" stroke="#072b3a"></path><path d="M900 469L829.2 476L838.2 557Z" fill="#034757" stroke="#034757"></path><path d="M742.4 477L669.5 393L650.5 493Z" fill="#071d2b" stroke="#071d2b"></path><path d="M724.4 390L669.5 393L742.4 477Z" fill="#008684" stroke="#008684"></path><path d="M554.7 402L578.7 337L497.9 405Z" fill="#071d2b" stroke="#071d2b"></path><path d="M93.8 410L69.8 483L176.6 472Z" fill="#00101c" stroke="#00101c"></path><path d="M93.8 410L177.6 416L143.6 321Z" fill="#008684" stroke="#008684"></path><path d="M239.5 411L177.6 416L176.6 472Z" fill="#034757" stroke="#034757"></path><path d="M239.5 1700L315.3 1665L260.5 1617Z" fill="#00101c" stroke="#00101c"></path><path d="M260.5 1617L315.3 1665L330.3 1599Z" fill="#034757" stroke="#034757"></path><path d="M900 1586L900 1515L823.2 1516Z" fill="#034757" stroke="#034757"></path><path d="M823.2 1516L900 1515L900 1431Z" fill="#034757" stroke="#034757"></path><path d="M85.8 1589L177.6 1620L170.6 1506Z" fill="#034757" stroke="#034757"></path><path d="M315.3 1665L421.1 1682L411.1 1611Z" fill="#00757b" stroke="#00757b"></path><path d="M585.7 1686L670.5 1659L639.5 1613Z" fill="#008684" stroke="#008684"></path><path d="M0 1430L0 1512L100.8 1438Z" fill="#00757b" stroke="#00757b"></path><path d="M85.8 1532L85.8 1589L170.6 1506Z" fill="#034757" stroke="#034757"></path><path d="M811.2 410L724.4 390L742.4 477Z" fill="#00101c" stroke="#00101c"></path><path d="M669.5 393L578.7 337L554.7 402Z" fill="#0d968b" stroke="#0d968b"></path><path d="M585.7 1686L509.9 1605L487.9 1662Z" fill="#072b3a" stroke="#072b3a"></path><path d="M719.4 1597L801.2 1609L750.4 1536Z" fill="#00757b" stroke="#00757b"></path><path d="M496.9 1775L585.7 1686L487.9 1662Z" fill="#0d968b" stroke="#0d968b"></path><path d="M0 1592L85.8 1589L85.8 1532Z" fill="#00101c" stroke="#00101c"></path><path d="M730.4 1686L801.2 1609L719.4 1597Z" fill="#008684" stroke="#008684"></path><path d="M655.5 316L578.7 337L669.5 393Z" fill="#00101c" stroke="#00101c"></path><path d="M260.5 331L177.6 416L239.5 411Z" fill="#072b3a" stroke="#072b3a"></path><path d="M0 381L0 499L69.8 483Z" fill="#005664" stroke="#005664"></path><path d="M69.8 483L0 499L0 564Z" fill="#071d2b" stroke="#071d2b"></path><path d="M900 416L811.2 410L829.2 476Z" fill="#072b3a" stroke="#072b3a"></path><path d="M829.2 476L811.2 410L742.4 477Z" fill="#063848" stroke="#063848"></path><path d="M724.4 390L655.5 316L669.5 393Z" fill="#034757" stroke="#034757"></path><path d="M900 580L900 469L838.2 557Z" fill="#071d2b" stroke="#071d2b"></path><path d="M177.6 416L93.8 410L176.6 472Z" fill="#0d968b" stroke="#0d968b"></path><path d="M335.3 315L347.3 406L418.1 381Z" fill="#008684" stroke="#008684"></path><path d="M409.1 300L335.3 315L418.1 381Z" fill="#006670" stroke="#006670"></path><path d="M335.3 315L260.5 331L347.3 406Z" fill="#006670" stroke="#006670"></path><path d="M499.9 260L471.9 302L578.7 337Z" fill="#063848" stroke="#063848"></path><path d="M578.7 337L471.9 302L497.9 405Z" fill="#29a690" stroke="#29a690"></path><path d="M471.9 302L409.1 300L418.1 381Z" fill="#006670" stroke="#006670"></path><path d="M177.6 1620L239.5 1700L260.5 1617Z" fill="#034757" stroke="#034757"></path><path d="M318.3 1746L425.1 1754L421.1 1682Z" fill="#034757" stroke="#034757"></path><path d="M421.1 1682L425.1 1754L487.9 1662Z" fill="#00757b" stroke="#00757b"></path><path d="M153.6 1685L239.5 1700L177.6 1620Z" fill="#071d2b" stroke="#071d2b"></path><path d="M900 1659L900 1586L801.2 1609Z" fill="#005664" stroke="#005664"></path><path d="M801.2 1609L900 1586L823.2 1516Z" fill="#00757b" stroke="#00757b"></path><path d="M730.4 1686L719.4 1597L670.5 1659Z" fill="#006670" stroke="#006670"></path><path d="M648.5 1741L670.5 1659L585.7 1686Z" fill="#0d968b" stroke="#0d968b"></path><path d="M648.5 1741L730.4 1686L670.5 1659Z" fill="#071d2b" stroke="#071d2b"></path><path d="M747.4 304L655.5 316L724.4 390Z" fill="#29a690" stroke="#29a690"></path><path d="M96.8 1665L153.6 1685L177.6 1620Z" fill="#00101c" stroke="#00101c"></path><path d="M96.8 1665L177.6 1620L85.8 1589Z" fill="#072b3a" stroke="#072b3a"></path><path d="M0 1512L0 1592L85.8 1532Z" fill="#063848" stroke="#063848"></path><path d="M318.3 1746L315.3 1665L239.5 1700Z" fill="#034757" stroke="#034757"></path><path d="M318.3 1746L421.1 1682L315.3 1665Z" fill="#071d2b" stroke="#071d2b"></path><path d="M900 469L900 416L829.2 476Z" fill="#00101c" stroke="#00101c"></path><path d="M811.2 410L747.4 304L724.4 390Z" fill="#005664" stroke="#005664"></path><path d="M0 1592L96.8 1665L85.8 1589Z" fill="#034757" stroke="#034757"></path><path d="M245.5 1741L239.5 1700L181.6 1762Z" fill="#005664" stroke="#005664"></path><path d="M245.5 1741L318.3 1746L239.5 1700Z" fill="#005664" stroke="#005664"></path><path d="M575.7 1769L648.5 1741L585.7 1686Z" fill="#063848" stroke="#063848"></path><path d="M730.4 1686L813.2 1700L801.2 1609Z" fill="#005664" stroke="#005664"></path><path d="M587.7 255L499.9 260L578.7 337Z" fill="#0d968b" stroke="#0d968b"></path><path d="M471.9 302L499.9 260L409.1 300Z" fill="#071d2b" stroke="#071d2b"></path><path d="M409.1 300L326.3 251L335.3 315Z" fill="#29a690" stroke="#29a690"></path><path d="M245.5 258L143.6 321L260.5 331Z" fill="#072b3a" stroke="#072b3a"></path><path d="M181.6 1762L239.5 1700L153.6 1685Z" fill="#063848" stroke="#063848"></path><path d="M404.1 1820L496.9 1775L425.1 1754Z" fill="#063848" stroke="#063848"></path><path d="M326.3 251L260.5 331L335.3 315Z" fill="#006670" stroke="#006670"></path><path d="M260.5 331L143.6 321L177.6 416Z" fill="#00757b" stroke="#00757b"></path><path d="M93.8 410L0 381L69.8 483Z" fill="#034757" stroke="#034757"></path><path d="M404.1 1820L425.1 1754L318.3 1746Z" fill="#063848" stroke="#063848"></path><path d="M425.1 1754L496.9 1775L487.9 1662Z" fill="#006670" stroke="#006670"></path><path d="M496.9 1775L575.7 1769L585.7 1686Z" fill="#00101c" stroke="#00101c"></path><path d="M835.2 330L747.4 304L811.2 410Z" fill="#071d2b" stroke="#071d2b"></path><path d="M655.5 316L587.7 255L578.7 337Z" fill="#00101c" stroke="#00101c"></path><path d="M645.5 237L587.7 255L655.5 316Z" fill="#072b3a" stroke="#072b3a"></path><path d="M739.4 1741L813.2 1700L730.4 1686Z" fill="#071d2b" stroke="#071d2b"></path><path d="M739.4 1741L730.4 1686L648.5 1741Z" fill="#0d968b" stroke="#0d968b"></path><path d="M389.1 226L326.3 251L409.1 300Z" fill="#0d968b" stroke="#0d968b"></path><path d="M389.1 226L409.1 300L499.9 260Z" fill="#063848" stroke="#063848"></path><path d="M746.4 1838L739.4 1741L648.5 1741Z" fill="#00101c" stroke="#00101c"></path><path d="M900 416L835.2 330L811.2 410Z" fill="#072b3a" stroke="#072b3a"></path><path d="M754.4 257L645.5 237L655.5 316Z" fill="#0d968b" stroke="#0d968b"></path><path d="M838.2 1739L900 1659L813.2 1700Z" fill="#063848" stroke="#063848"></path><path d="M813.2 1700L900 1659L801.2 1609Z" fill="#29a690" stroke="#29a690"></path><path d="M66.8 304L0 381L93.8 410Z" fill="#008684" stroke="#008684"></path><path d="M326.3 251L245.5 258L260.5 331Z" fill="#00757b" stroke="#00757b"></path><path d="M143.6 321L66.8 304L93.8 410Z" fill="#0d968b" stroke="#0d968b"></path><path d="M397.1 179L389.1 226L480.9 174Z" fill="#006670" stroke="#006670"></path><path d="M326.3 251L248.5 178L245.5 258Z" fill="#00101c" stroke="#00101c"></path><path d="M79.8 1742L181.6 1762L153.6 1685Z" fill="#005664" stroke="#005664"></path><path d="M330.3 1859L404.1 1820L318.3 1746Z" fill="#034757" stroke="#034757"></path><path d="M79.8 1742L153.6 1685L96.8 1665Z" fill="#071d2b" stroke="#071d2b"></path><path d="M754.4 257L655.5 316L747.4 304Z" fill="#006670" stroke="#006670"></path><path d="M480.9 174L389.1 226L499.9 260Z" fill="#008684" stroke="#008684"></path><path d="M264.5 1822L318.3 1746L245.5 1741Z" fill="#072b3a" stroke="#072b3a"></path><path d="M496.9 1775L571.7 1823L575.7 1769Z" fill="#00757b" stroke="#00757b"></path><path d="M575.7 1769L651.5 1851L648.5 1741Z" fill="#072b3a" stroke="#072b3a"></path><path d="M152.6 253L66.8 304L143.6 321Z" fill="#0d968b" stroke="#0d968b"></path><path d="M808.2 256L754.4 257L747.4 304Z" fill="#063848" stroke="#063848"></path><path d="M506.9 1836L571.7 1823L496.9 1775Z" fill="#006670" stroke="#006670"></path><path d="M0 1592L0 1690L96.8 1665Z" fill="#008684" stroke="#008684"></path><path d="M739.4 1741L838.2 1739L813.2 1700Z" fill="#00101c" stroke="#00101c"></path><path d="M746.4 1838L838.2 1739L739.4 1741Z" fill="#034757" stroke="#034757"></path><path d="M170.6 168L152.6 253L245.5 258Z" fill="#072b3a" stroke="#072b3a"></path><path d="M245.5 258L152.6 253L143.6 321Z" fill="#00101c" stroke="#00101c"></path><path d="M0 231L0 334L66.8 304Z" fill="#00757b" stroke="#00757b"></path><path d="M66.8 304L0 334L0 381Z" fill="#00757b" stroke="#00757b"></path><path d="M0 1690L79.8 1742L96.8 1665Z" fill="#008684" stroke="#008684"></path><path d="M181.6 1762L264.5 1822L245.5 1741Z" fill="#0d968b" stroke="#0d968b"></path><path d="M404.1 1820L506.9 1836L496.9 1775Z" fill="#034757" stroke="#034757"></path><path d="M900 416L900 317L835.2 330Z" fill="#072b3a" stroke="#072b3a"></path><path d="M835.2 330L808.2 256L747.4 304Z" fill="#072b3a" stroke="#072b3a"></path><path d="M178.6 1860L264.5 1822L181.6 1762Z" fill="#071d2b" stroke="#071d2b"></path><path d="M404.1 1820L475.9 1914L506.9 1836Z" fill="#005664" stroke="#005664"></path><path d="M900 255L808.2 256L835.2 330Z" fill="#00101c" stroke="#00101c"></path><path d="M649.5 166L553.7 175L645.5 237Z" fill="#072b3a" stroke="#072b3a"></path><path d="M480.9 174L499.9 260L553.7 175Z" fill="#072b3a" stroke="#072b3a"></path><path d="M389.1 226L345.3 152L326.3 251Z" fill="#005664" stroke="#005664"></path><path d="M499.9 260L587.7 255L553.7 175Z" fill="#063848" stroke="#063848"></path><path d="M553.7 175L587.7 255L645.5 237Z" fill="#063848" stroke="#063848"></path><path d="M649.5 166L645.5 237L724.4 156Z" fill="#071d2b" stroke="#071d2b"></path><path d="M309.3 1933L330.3 1859L264.5 1932Z" fill="#072b3a" stroke="#072b3a"></path><path d="M264.5 1822L330.3 1859L318.3 1746Z" fill="#063848" stroke="#063848"></path><path d="M585.7 1906L651.5 1851L571.7 1823Z" fill="#071d2b" stroke="#071d2b"></path><path d="M571.7 1823L651.5 1851L575.7 1769Z" fill="#29a690" stroke="#29a690"></path><path d="M585.7 1906L571.7 1823L506.9 1836Z" fill="#29a690" stroke="#29a690"></path><path d="M345.3 152L248.5 178L326.3 251Z" fill="#072b3a" stroke="#072b3a"></path><path d="M152.6 253L82.8 231L66.8 304Z" fill="#034757" stroke="#034757"></path><path d="M345.3 152L389.1 226L397.1 179Z" fill="#034757" stroke="#034757"></path><path d="M0 1690L0 1750L79.8 1742Z" fill="#006670" stroke="#006670"></path><path d="M96.8 1847L178.6 1860L181.6 1762Z" fill="#006670" stroke="#006670"></path><path d="M170.6 168L82.8 231L152.6 253Z" fill="#034757" stroke="#034757"></path><path d="M724.4 156L645.5 237L754.4 257Z" fill="#008684" stroke="#008684"></path><path d="M345.3 152L397.1 179L407.1 66Z" fill="#006670" stroke="#006670"></path><path d="M344.3 90L345.3 152L407.1 66Z" fill="#005664" stroke="#005664"></path><path d="M559.7 100L480.9 174L553.7 175Z" fill="#034757" stroke="#034757"></path><path d="M651.5 1851L746.4 1838L648.5 1741Z" fill="#008684" stroke="#008684"></path><path d="M822.2 1846L900 1773L838.2 1739Z" fill="#006670" stroke="#006670"></path><path d="M838.2 1739L900 1773L900 1659Z" fill="#00757b" stroke="#00757b"></path><path d="M900 317L900 255L835.2 330Z" fill="#063848" stroke="#063848"></path><path d="M806.2 146L724.4 156L754.4 257Z" fill="#29a690" stroke="#29a690"></path><path d="M96.8 1847L181.6 1762L79.8 1742Z" fill="#00757b" stroke="#00757b"></path><path d="M177.6 94L170.6 168L248.5 178Z" fill="#00101c" stroke="#00101c"></path><path d="M248.5 178L170.6 168L245.5 258Z" fill="#0d968b" stroke="#0d968b"></path><path d="M806.2 146L754.4 257L808.2 256Z" fill="#063848" stroke="#063848"></path><path d="M649.5 166L559.7 100L553.7 175Z" fill="#00101c" stroke="#00101c"></path><path d="M390.1 1916L404.1 1820L330.3 1859Z" fill="#29a690" stroke="#29a690"></path><path d="M390.1 1916L475.9 1914L404.1 1820Z" fill="#0d968b" stroke="#0d968b"></path><path d="M651.5 1851L752.4 1931L746.4 1838Z" fill="#005664" stroke="#005664"></path><path d="M475.9 1914L585.7 1906L506.9 1836Z" fill="#063848" stroke="#063848"></path><path d="M746.4 1838L822.2 1846L838.2 1739Z" fill="#0d968b" stroke="#0d968b"></path><path d="M309.3 1933L390.1 1916L330.3 1859Z" fill="#071d2b" stroke="#071d2b"></path><path d="M822.2 1914L822.2 1846L746.4 1838Z" fill="#072b3a" stroke="#072b3a"></path><path d="M82.8 231L0 231L66.8 304Z" fill="#005664" stroke="#005664"></path><path d="M68.8 165L0 231L82.8 231Z" fill="#072b3a" stroke="#072b3a"></path><path d="M0 1750L96.8 1847L79.8 1742Z" fill="#0d968b" stroke="#0d968b"></path><path d="M264.5 1932L330.3 1859L264.5 1822Z" fill="#034757" stroke="#034757"></path><path d="M822.2 1846L900 1820L900 1773Z" fill="#006670" stroke="#006670"></path><path d="M669.5 75L559.7 100L649.5 166Z" fill="#005664" stroke="#005664"></path><path d="M345.3 152L344.3 90L248.5 178Z" fill="#034757" stroke="#034757"></path><path d="M264.5 1932L264.5 1822L178.6 1860Z" fill="#00101c" stroke="#00101c"></path><path d="M393.1 2000L508.9 2000L475.9 1914Z" fill="#00101c" stroke="#00101c"></path><path d="M577.7 2000L647.5 1940L585.7 1906Z" fill="#006670" stroke="#006670"></path><path d="M407.1 66L397.1 179L480.9 174Z" fill="#0d968b" stroke="#0d968b"></path><path d="M170.6 168L68.8 165L82.8 231Z" fill="#071d2b" stroke="#071d2b"></path><path d="M559.7 100L487.9 82L480.9 174Z" fill="#29a690" stroke="#29a690"></path><path d="M85.8 84L68.8 165L170.6 168Z" fill="#072b3a" stroke="#072b3a"></path><path d="M900 168L806.2 146L808.2 256Z" fill="#034757" stroke="#034757"></path><path d="M724.4 156L723.4 99L649.5 166Z" fill="#005664" stroke="#005664"></path><path d="M567.7 0L474.9 0L487.9 82Z" fill="#063848" stroke="#063848"></path><path d="M159.6 1916L264.5 1932L178.6 1860Z" fill="#00101c" stroke="#00101c"></path><path d="M585.7 1906L647.5 1940L651.5 1851Z" fill="#005664" stroke="#005664"></path><path d="M822.2 1846L900 1911L900 1820Z" fill="#071d2b" stroke="#071d2b"></path><path d="M508.9 2000L585.7 1906L475.9 1914Z" fill="#063848" stroke="#063848"></path><path d="M487.9 82L407.1 66L480.9 174Z" fill="#0d968b" stroke="#0d968b"></path><path d="M0 87L0 176L68.8 165Z" fill="#034757" stroke="#034757"></path><path d="M63.8 1912L159.6 1916L96.8 1847Z" fill="#006670" stroke="#006670"></path><path d="M96.8 1847L159.6 1916L178.6 1860Z" fill="#00757b" stroke="#00757b"></path><path d="M806.2 146L723.4 99L724.4 156Z" fill="#00757b" stroke="#00757b"></path><path d="M487.9 82L474.9 0L407.1 66Z" fill="#008684" stroke="#008684"></path><path d="M900 255L900 168L808.2 256Z" fill="#063848" stroke="#063848"></path><path d="M806.2 146L826.2 59L723.4 99Z" fill="#034757" stroke="#034757"></path><path d="M68.8 165L0 176L0 231Z" fill="#005664" stroke="#005664"></path><path d="M177.6 94L248.5 178L250.5 61Z" fill="#00757b" stroke="#00757b"></path><path d="M0 1750L0 1854L96.8 1847Z" fill="#071d2b" stroke="#071d2b"></path><path d="M250.5 61L248.5 178L344.3 90Z" fill="#00101c" stroke="#00101c"></path><path d="M645.5 0L669.5 75L725.4 0Z" fill="#00757b" stroke="#00757b"></path><path d="M723.4 99L669.5 75L649.5 166Z" fill="#0d968b" stroke="#0d968b"></path><path d="M647.5 1940L752.4 1931L651.5 1851Z" fill="#00757b" stroke="#00757b"></path><path d="M752.4 1931L822.2 1914L746.4 1838Z" fill="#063848" stroke="#063848"></path><path d="M313.3 0L250.5 61L344.3 90Z" fill="#063848" stroke="#063848"></path><path d="M0 1854L63.8 1912L96.8 1847Z" fill="#008684" stroke="#008684"></path><path d="M331.3 2000L309.3 1933L255.5 2000Z" fill="#005664" stroke="#005664"></path><path d="M390.1 1916L309.3 1933L331.3 2000Z" fill="#063848" stroke="#063848"></path><path d="M393.1 2000L390.1 1916L331.3 2000Z" fill="#005664" stroke="#005664"></path><path d="M393.1 2000L475.9 1914L390.1 1916Z" fill="#00101c" stroke="#00101c"></path><path d="M647.5 1940L720.4 2000L752.4 1931Z" fill="#072b3a" stroke="#072b3a"></path><path d="M900 2000L900 1911L822.2 1914Z" fill="#034757" stroke="#034757"></path><path d="M309.3 1933L264.5 1932L255.5 2000Z" fill="#29a690" stroke="#29a690"></path><path d="M508.9 2000L577.7 2000L585.7 1906Z" fill="#034757" stroke="#034757"></path><path d="M255.5 2000L264.5 1932L177.6 2000Z" fill="#29a690" stroke="#29a690"></path><path d="M816.2 2000L822.2 1914L752.4 1931Z" fill="#005664" stroke="#005664"></path><path d="M822.2 1914L900 1911L822.2 1846Z" fill="#29a690" stroke="#29a690"></path><path d="M164.6 0L85.8 84L177.6 94Z" fill="#071d2b" stroke="#071d2b"></path><path d="M177.6 94L85.8 84L170.6 168Z" fill="#071d2b" stroke="#071d2b"></path><path d="M0 1854L0 1906L63.8 1912Z" fill="#00757b" stroke="#00757b"></path><path d="M177.6 2000L264.5 1932L159.6 1916Z" fill="#063848" stroke="#063848"></path><path d="M177.6 2000L159.6 1916L81.8 2000Z" fill="#071d2b" stroke="#071d2b"></path><path d="M577.7 2000L671.5 2000L647.5 1940Z" fill="#29a690" stroke="#29a690"></path><path d="M567.7 0L487.9 82L559.7 100Z" fill="#006670" stroke="#006670"></path><path d="M407.1 66L313.3 0L344.3 90Z" fill="#034757" stroke="#034757"></path><path d="M250.5 61L164.6 0L177.6 94Z" fill="#005664" stroke="#005664"></path><path d="M474.9 0L425.1 0L407.1 66Z" fill="#008684" stroke="#008684"></path><path d="M900 168L900 98L806.2 146Z" fill="#0d968b" stroke="#0d968b"></path><path d="M645.5 0L567.7 0L559.7 100Z" fill="#00101c" stroke="#00101c"></path><path d="M645.5 0L559.7 100L669.5 75Z" fill="#006670" stroke="#006670"></path><path d="M671.5 2000L720.4 2000L647.5 1940Z" fill="#29a690" stroke="#29a690"></path><path d="M900 98L826.2 59L806.2 146Z" fill="#008684" stroke="#008684"></path><path d="M425.1 0L313.3 0L407.1 66Z" fill="#071d2b" stroke="#071d2b"></path><path d="M81.8 2000L159.6 1916L63.8 1912Z" fill="#29a690" stroke="#29a690"></path><path d="M725.4 0L669.5 75L723.4 99Z" fill="#0d968b" stroke="#0d968b"></path><path d="M64.8 0L0 87L85.8 84Z" fill="#071d2b" stroke="#071d2b"></path><path d="M85.8 84L0 87L68.8 165Z" fill="#008684" stroke="#008684"></path><path d="M313.3 0L250.5 0L250.5 61Z" fill="#005664" stroke="#005664"></path><path d="M829.2 0L725.4 0L826.2 59Z" fill="#008684" stroke="#008684"></path><path d="M826.2 59L725.4 0L723.4 99Z" fill="#008684" stroke="#008684"></path><path d="M720.4 2000L816.2 2000L752.4 1931Z" fill="#00101c" stroke="#00101c"></path><path d="M0 2000L81.8 2000L63.8 1912Z" fill="#008684" stroke="#008684"></path><path d="M250.5 0L164.6 0L250.5 61Z" fill="#0d968b" stroke="#0d968b"></path><path d="M900 0L829.2 0L826.2 59Z" fill="#006670" stroke="#006670"></path><path d="M816.2 2000L900 2000L822.2 1914Z" fill="#072b3a" stroke="#072b3a"></path><path d="M0 1906L0 2000L63.8 1912Z" fill="#071d2b" stroke="#071d2b"></path><path d="M164.6 0L64.8 0L85.8 84Z" fill="#008684" stroke="#008684"></path><path d="M900 98L900 0L826.2 59Z" fill="#29a690" stroke="#29a690"></path><path d="M64.8 0L0 0L0 87Z" fill="#034757" stroke="#034757"></path></g></svg>